SplineFontDB: 3.0
FontName: ElaineSans-SemiBold
FullName: Elaine Sans SemiBold
FamilyName: Elaine Sans SemiBold
Weight: Semi-Bold
Copyright: Copyright (c) 2015 by Wei Huang. All rights reserved.
Version: 1.030;PS 001.030;hotconv 1.0.70;makeotf.lib2.5.58329
ItalicAngle: 0
UnderlinePosition: -250
UnderlineWidth: 50
Ascent: 760
Descent: 240
InvalidEm: 0
sfntRevision: 0x000107ae
LayerCount: 2
Layer: 0 1 "Back" 1
Layer: 1 1 "Fore" 0
XUID: [1021 288 1899785369 2201]
StyleMap: 0x0040
FSType: 4
OS2Version: 3
OS2_WeightWidthSlopeOnly: 0
OS2_UseTypoMetrics: 0
CreationTime: 1436215488
ModificationTime: 1543787427
PfmFamily: 81
TTFWeight: 600
TTFWidth: 5
LineGap: 0
VLineGap: 0
Panose: 0 0 7 0 0 0 0 0 0 0
OS2TypoAscent: 760
OS2TypoAOffset: 0
OS2TypoDescent: -240
OS2TypoDOffset: 0
OS2TypoLinegap: 173
OS2WinAscent: 930
OS2WinAOffset: 0
OS2WinDescent: 243
OS2WinDOffset: 0
HheadAscent: 930
HheadAOffset: 0
HheadDescent: -243
HheadDOffset: 0
OS2SubXSize: 650
OS2SubYSize: 600
OS2SubXOff: 0
OS2SubYOff: 75
OS2SupXSize: 650
OS2SupYSize: 600
OS2SupXOff: 0
OS2SupYOff: 350
OS2StrikeYSize: 50
OS2StrikeYPos: 300
OS2CapHeight: 660
OS2XHeight: 500
OS2Vendor: 'UKWN'
OS2CodePages: 20000093.00000000
OS2UnicodeRanges: 00000007.00000001.00000000.00000000
Lookup: 1 0 0 "'aalt' Access All Alternates lookup 0" { "'aalt' Access All Alternates lookup 0 subtable"  } ['aalt' ('DFLT' <'dflt' > 'grek' <'dflt' > 'latn' <'CAT ' 'MOL ' 'NLD ' 'ROM ' 'TRK ' 'dflt' > ) ]
Lookup: 3 0 0 "'aalt' Access All Alternates lookup 1" { "'aalt' Access All Alternates lookup 1 subtable"  } ['aalt' ('DFLT' <'dflt' > 'grek' <'dflt' > 'latn' <'CAT ' 'MOL ' 'NLD ' 'ROM ' 'TRK ' 'dflt' > ) ]
Lookup: 1 0 0 "'locl' Localized Forms in Latin lookup 2" { "'locl' Localized Forms in Latin lookup 2 subtable"  } ['locl' ('latn' <'TRK ' > ) ]
Lookup: 1 0 0 "'locl' Localized Forms in Latin lookup 3" { "'locl' Localized Forms in Latin lookup 3 subtable"  } ['locl' ('latn' <'TAT ' > ) ]

StartChar: .notdef
Encoding: 65536 -1 0
Width: 500
Flags: W
LayerCount: 2
Fore
SplineSet
50 0 m 1,0,-1
 50 660 l 1,1,-1
 450 660 l 1,2,-1
 450 0 l 1,3,-1
 50 0 l 1,0,-1
130 80 m 1,4,-1
 370 80 l 1,5,-1
 370 580 l 1,6,-1
 130 580 l 1,7,-1
 130 80 l 1,4,-1
EndSplineSet
EndChar

StartChar: exclam
Encoding: 33 33 4
Width: 291
GlyphClass: 2
Flags: W
LayerCount: 2
Fore
SplineSet
217 660 m 1,0,-1
 217 420 l 1,1,-1
 200 213 l 1,2,-1
 90 213 l 1,3,-1
 73 420 l 1,4,-1
 73 660 l 1,5,-1
 217 660 l 1,0,-1
145 145 m 128,-1,7
 184 145 184 145 207 124 c 128,-1,8
 230 103 230 103 230 68 c 128,-1,9
 230 33 230 33 207 12 c 128,-1,10
 184 -9 184 -9 145 -9 c 128,-1,11
 106 -9 106 -9 83 12 c 128,-1,12
 60 33 60 33 60 68 c 128,-1,13
 60 103 60 103 83 124 c 128,-1,6
 106 145 106 145 145 145 c 128,-1,7
EndSplineSet
Substitution2: "'smcp' Lowercase to Small Capitals lookup 12 subtable" exclam.sc
Substitution2: "'c2sc' Capitals to Small Capitals lookup 11 subtable" exclam.sc
Substitution2: "'aalt' Access All Alternates lookup 0 subtable" exclam.sc
EndChar

StartChar: quotedbl
Encoding: 34 34 5
Width: 431
GlyphClass: 2
Flags: W
LayerCount: 2
Fore
SplineSet
192 682 m 1,0,-1
 164 416 l 1,1,-1
 70 416 l 1,2,-1
 70 682 l 1,3,-1
 192 682 l 1,0,-1
380 682 m 1,4,-1
 351 416 l 1,5,-1
 257 416 l 1,6,-1
 257 682 l 1,7,-1
 380 682 l 1,4,-1
EndSplineSet
Substitution2: "'smcp' Lowercase to Small Capitals lookup 12 subtable" quotedbl.sc
Substitution2: "'c2sc' Capitals to Small Capitals lookup 11 subtable" quotedbl.sc
Substitution2: "'aalt' Access All Alternates lookup 0 subtable" quotedbl.sc
EndChar

StartChar: numbersign
Encoding: 35 35 6
Width: 604
GlyphClass: 2
Flags: W
LayerCount: 2
Fore
SplineSet
588 406 m 1,0,-1
 477 406 l 1,1,-1
 454 257 l 1,2,-1
 548 257 l 1,3,-1
 548 170 l 1,4,-1
 440 170 l 1,5,-1
 415 0 l 1,6,-1
 326 0 l 1,7,-1
 352 170 l 1,8,-1
 211 170 l 1,9,-1
 185 0 l 1,10,-1
 97 0 l 1,11,-1
 123 170 l 1,12,-1
 16 170 l 1,13,-1
 16 257 l 1,14,-1
 136 257 l 1,15,-1
 159 406 l 1,16,-1
 55 406 l 1,17,-1
 55 493 l 1,18,-1
 172 493 l 1,19,-1
 198 660 l 1,20,-1
 286 660 l 1,21,-1
 261 493 l 1,22,-1
 402 493 l 1,23,-1
 427 660 l 1,24,-1
 515 660 l 1,25,-1
 490 493 l 1,26,-1
 588 493 l 1,27,-1
 588 406 l 1,0,-1
366 257 m 1,28,-1
 388 406 l 1,29,-1
 247 406 l 1,30,-1
 224 257 l 1,31,-1
 366 257 l 1,28,-1
EndSplineSet
Substitution2: "'tnum' Tabular Numbers lookup 26 subtable" numbersign.tf
Substitution2: "'aalt' Access All Alternates lookup 0 subtable" numbersign.tf
EndChar

StartChar: dollar
Encoding: 36 36 7
Width: 604
GlyphClass: 2
Flags: W
LayerCount: 2
Fore
SplineSet
356 373 m 1,0,1
 402 362 402 362 432.5 351.5 c 128,-1,2
 463 341 463 341 496.5 321 c 128,-1,3
 530 301 530 301 547 267.5 c 128,-1,4
 564 234 564 234 564 188 c 0,5,6
 564 110 564 110 507 60.5 c 128,-1,7
 450 11 450 11 356 2 c 1,8,-1
 356 -92 l 1,9,-1
 269 -92 l 1,10,-1
 269 2 l 1,11,12
 103 15 103 15 34 143 c 1,13,-1
 119 219 l 1,14,15
 133 173 133 173 174.5 142 c 128,-1,16
 216 111 216 111 269 101 c 1,17,-1
 269 282 l 1,18,19
 222 292 222 292 192 302 c 128,-1,20
 162 312 162 312 128.5 332 c 128,-1,21
 95 352 95 352 78 384.5 c 128,-1,22
 61 417 61 417 61 462 c 0,23,24
 61 540 61 540 116.5 594 c 128,-1,25
 172 648 172 648 269 658 c 1,26,-1
 269 752 l 1,27,-1
 356 752 l 1,28,-1
 356 658 l 1,29,30
 430 652 430 652 477.5 621.5 c 128,-1,31
 525 591 525 591 569 532 c 1,32,-1
 490 452 l 1,33,34
 446 546 446 546 356 559 c 1,35,-1
 356 373 l 1,0,1
180 471 m 0,36,37
 180 417 180 417 269 393 c 1,38,-1
 269 558 l 1,39,40
 180 543 180 543 180 471 c 0,36,37
356 100 m 1,41,42
 446 112 446 112 446 181 c 0,43,44
 446 213 446 213 423 231 c 128,-1,45
 400 249 400 249 356 262 c 1,46,-1
 356 100 l 1,41,42
EndSplineSet
Substitution2: "'tnum' Tabular Numbers lookup 26 subtable" dollar.tf
Substitution2: "'aalt' Access All Alternates lookup 0 subtable" dollar.tf
EndChar

StartChar: percent
Encoding: 37 37 8
Width: 908
GlyphClass: 2
Flags: W
LayerCount: 2
Fore
SplineSet
210 670 m 0,0,1
 290 670 290 670 338 619 c 128,-1,2
 386 568 386 568 386 484 c 128,-1,3
 386 400 386 400 338 349 c 128,-1,4
 290 298 290 298 210 298 c 0,5,6
 131 298 131 298 82.5 349 c 128,-1,7
 34 400 34 400 34 484 c 128,-1,8
 34 568 34 568 82.5 619 c 128,-1,9
 131 670 131 670 210 670 c 0,0,1
177 0 m 1,10,-1
 622 660 l 1,11,-1
 732 660 l 1,12,-1
 287 0 l 1,13,-1
 177 0 l 1,10,-1
210 575 m 128,-1,15
 176 575 176 575 158 551 c 128,-1,16
 140 527 140 527 140 484 c 128,-1,17
 140 441 140 441 158 417.5 c 128,-1,18
 176 394 176 394 210 394 c 128,-1,19
 244 394 244 394 262 417.5 c 128,-1,20
 280 441 280 441 280 484 c 128,-1,21
 280 527 280 527 262 551 c 128,-1,14
 244 575 244 575 210 575 c 128,-1,15
698 362 m 0,22,23
 777 362 777 362 825.5 311 c 128,-1,24
 874 260 874 260 874 176 c 128,-1,25
 874 92 874 92 825.5 41 c 128,-1,26
 777 -10 777 -10 698 -10 c 0,27,28
 618 -10 618 -10 570 41 c 128,-1,29
 522 92 522 92 522 176 c 128,-1,30
 522 260 522 260 570 311 c 128,-1,31
 618 362 618 362 698 362 c 0,22,23
698 266 m 0,32,33
 628 266 628 266 628 176 c 0,34,35
 628 133 628 133 646 109 c 128,-1,36
 664 85 664 85 698 85 c 128,-1,37
 732 85 732 85 750 109 c 128,-1,38
 768 133 768 133 768 176 c 128,-1,39
 768 219 768 219 750 242.5 c 128,-1,40
 732 266 732 266 698 266 c 0,32,33
EndSplineSet
EndChar

StartChar: ampersand
Encoding: 38 38 9
Width: 638
GlyphClass: 2
Flags: W
LayerCount: 2
Fore
SplineSet
637 88 m 1,0,-1
 620 -10 l 1,1,2
 569 -10 569 -10 533 3 c 128,-1,3
 497 16 497 16 451 57 c 1,4,5
 376 -10 376 -10 258 -10 c 0,6,7
 158 -10 158 -10 96 37.5 c 128,-1,8
 34 85 34 85 34 166 c 0,9,10
 32 293 32 293 178 353 c 1,11,12
 136 403 136 403 121 437 c 128,-1,13
 106 471 106 471 106 510 c 0,14,15
 106 575 106 575 154.5 622.5 c 128,-1,16
 203 670 203 670 290 670 c 0,17,18
 374 670 374 670 423 630 c 128,-1,19
 472 590 472 590 472 521 c 0,20,21
 472 463 472 463 440 418.5 c 128,-1,22
 408 374 408 374 332 339 c 1,23,24
 373 293 373 293 388 275 c 0,25,26
 454 200 454 200 460 193 c 1,27,28
 493 258 493 258 489 345 c 1,29,-1
 584 340 l 1,30,31
 587 217 587 217 520 132 c 1,32,33
 552 103 552 103 577 94 c 128,-1,34
 602 85 602 85 637 88 c 1,0,-1
292 574 m 0,35,36
 261 574 261 574 243.5 555.5 c 128,-1,37
 226 537 226 537 226 507 c 0,38,39
 226 484 226 484 237 462 c 128,-1,40
 248 440 248 440 283 398 c 1,41,42
 330 428 330 428 345 454.5 c 128,-1,43
 360 481 360 481 360 515 c 0,44,45
 360 574 360 574 292 574 c 0,35,36
153 176 m 0,46,47
 153 136 153 136 185.5 110.5 c 128,-1,48
 218 85 218 85 267 85 c 0,49,50
 334 85 334 85 389 117 c 1,51,52
 352 156 352 156 316 197 c 0,53,54
 248 271 248 271 233 289 c 1,55,56
 186 257 186 257 169.5 232.5 c 128,-1,57
 153 208 153 208 153 176 c 0,46,47
EndSplineSet
Substitution2: "'smcp' Lowercase to Small Capitals lookup 12 subtable" ampersand.sc
Substitution2: "'c2sc' Capitals to Small Capitals lookup 11 subtable" ampersand.sc
Substitution2: "'aalt' Access All Alternates lookup 0 subtable" ampersand.sc
EndChar

StartChar: quotesingle
Encoding: 39 39 10
Width: 244
GlyphClass: 2
Flags: W
LayerCount: 2
Fore
SplineSet
192 682 m 1,0,-1
 164 416 l 1,1,-1
 70 416 l 1,2,-1
 70 682 l 1,3,-1
 192 682 l 1,0,-1
EndSplineSet
Substitution2: "'smcp' Lowercase to Small Capitals lookup 12 subtable" quotesingle.sc
Substitution2: "'c2sc' Capitals to Small Capitals lookup 11 subtable" quotesingle.sc
Substitution2: "'aalt' Access All Alternates lookup 0 subtable" quotesingle.sc
EndChar

StartChar: parenleft
Encoding: 40 40 11
Width: 376
GlyphClass: 2
Flags: W
LayerCount: 2
Fore
SplineSet
291 742 m 1,0,-1
 359 675 l 1,1,2
 269 593 269 593 230.5 501 c 128,-1,3
 192 409 192 409 192 276 c 0,4,5
 192 142 192 142 230.5 50 c 128,-1,6
 269 -42 269 -42 359 -124 c 1,7,-1
 291 -191 l 1,8,9
 65 -23 65 -23 65 276 c 0,10,11
 65 574 65 574 291 742 c 1,0,-1
EndSplineSet
Substitution2: "'case' Case-Sensitive Forms lookup 29 subtable" parenleft.case
Substitution2: "'sups' Superscript lookup 15 subtable" uni207D
Substitution2: "'subs' Subscript lookup 14 subtable" uni208D
Substitution2: "'sinf' Scientific Inferiors lookup 13 subtable" uni208D
AlternateSubs2: "'aalt' Access All Alternates lookup 1 subtable" uni208D uni207D parenleft.case
EndChar

StartChar: parenright
Encoding: 41 41 12
Width: 376
GlyphClass: 2
Flags: W
LayerCount: 2
Fore
SplineSet
85 742 m 1,0,1
 311 574 311 574 311 276 c 0,2,3
 311 -23 311 -23 85 -191 c 1,4,-1
 17 -124 l 1,5,6
 107 -42 107 -42 145.5 50 c 128,-1,7
 184 142 184 142 184 276 c 0,8,9
 184 409 184 409 145.5 501 c 128,-1,10
 107 593 107 593 17 675 c 1,11,-1
 85 742 l 1,0,1
EndSplineSet
Substitution2: "'case' Case-Sensitive Forms lookup 29 subtable" parenright.case
Substitution2: "'sups' Superscript lookup 15 subtable" uni207E
Substitution2: "'subs' Subscript lookup 14 subtable" uni208E
Substitution2: "'sinf' Scientific Inferiors lookup 13 subtable" uni208E
AlternateSubs2: "'aalt' Access All Alternates lookup 1 subtable" uni208E uni207E parenright.case
EndChar

StartChar: asterisk
Encoding: 42 42 13
Width: 582
GlyphClass: 2
Flags: W
LayerCount: 2
Fore
SplineSet
353 466 m 1,0,-1
 397 423 l 1,1,-1
 475 318 l 1,2,-1
 394 259 l 1,3,-1
 318 366 l 1,4,-1
 291 421 l 1,5,-1
 264 366 l 1,6,-1
 188 259 l 1,7,-1
 107 318 l 1,8,-1
 186 423 l 1,9,-1
 229 466 l 1,10,-1
 169 475 l 1,11,-1
 44 514 l 1,12,-1
 74 609 l 1,13,-1
 199 567 l 1,14,-1
 253 538 l 1,15,-1
 243 599 l 1,16,-1
 240 730 l 1,17,-1
 341 730 l 1,18,-1
 339 599 l 1,19,-1
 329 538 l 1,20,-1
 383 567 l 1,21,-1
 508 609 l 1,22,-1
 538 514 l 1,23,-1
 413 475 l 1,24,-1
 353 466 l 1,0,-1
EndSplineSet
EndChar

StartChar: plus
Encoding: 43 43 14
Width: 604
GlyphClass: 2
Flags: W
LayerCount: 2
Fore
SplineSet
550 374 m 1,0,-1
 550 270 l 1,1,-1
 359 270 l 1,2,-1
 359 63 l 1,3,-1
 246 63 l 1,4,-1
 246 270 l 1,5,-1
 54 270 l 1,6,-1
 54 374 l 1,7,-1
 246 374 l 1,8,-1
 246 580 l 1,9,-1
 359 580 l 1,10,-1
 359 374 l 1,11,-1
 550 374 l 1,0,-1
EndSplineSet
Substitution2: "'sups' Superscript lookup 15 subtable" uni207A
Substitution2: "'subs' Subscript lookup 14 subtable" uni208A
Substitution2: "'sinf' Scientific Inferiors lookup 13 subtable" uni208A
AlternateSubs2: "'aalt' Access All Alternates lookup 1 subtable" uni208A uni207A
EndChar

StartChar: comma
Encoding: 44 44 15
Width: 304
GlyphClass: 2
Flags: W
LayerCount: 2
Fore
SplineSet
152 153 m 0,0,1
 198 153 198 153 223 120.5 c 128,-1,2
 248 88 248 88 248 36 c 0,3,4
 248 -25 248 -25 215.5 -75.5 c 128,-1,5
 183 -126 183 -126 120 -154 c 1,6,-1
 57 -106 l 1,7,8
 150 -71 150 -71 171 -1 c 1,9,-1
 167 2 l 1,10,11
 155 -8 155 -8 137 -8 c 0,12,13
 109 -8 109 -8 87 12 c 128,-1,14
 65 32 65 32 65 69 c 0,15,16
 65 108 65 108 89 130.5 c 128,-1,17
 113 153 113 153 152 153 c 0,0,1
EndSplineSet
Substitution2: "'tnum' Tabular Numbers lookup 26 subtable" comma.tf
Substitution2: "'sups' Superscript lookup 15 subtable" commasuperior
Substitution2: "'subs' Subscript lookup 14 subtable" commainferior
Substitution2: "'sinf' Scientific Inferiors lookup 13 subtable" commainferior
AlternateSubs2: "'aalt' Access All Alternates lookup 1 subtable" commainferior commasuperior comma.tf
EndChar

StartChar: hyphen
Encoding: 45 45 16
Width: 521
GlyphClass: 2
Flags: W
LayerCount: 2
Fore
SplineSet
437 324 m 1,0,-1
 437 206 l 1,1,-1
 84 206 l 1,2,-1
 84 324 l 1,3,-1
 437 324 l 1,0,-1
EndSplineSet
Substitution2: "'case' Case-Sensitive Forms lookup 29 subtable" hyphen.case
Substitution2: "'sups' Superscript lookup 15 subtable" hyphensuperior
Substitution2: "'subs' Subscript lookup 14 subtable" hypheninferior
Substitution2: "'sinf' Scientific Inferiors lookup 13 subtable" hypheninferior
AlternateSubs2: "'aalt' Access All Alternates lookup 1 subtable" hypheninferior hyphensuperior hyphen.case
EndChar

StartChar: period
Encoding: 46 46 17
Width: 302
GlyphClass: 2
Flags: W
LayerCount: 2
Fore
SplineSet
151 153 m 128,-1,1
 191 153 191 153 214.5 131.5 c 128,-1,2
 238 110 238 110 238 72 c 128,-1,3
 238 34 238 34 214.5 12.5 c 128,-1,4
 191 -9 191 -9 151 -9 c 128,-1,5
 111 -9 111 -9 87.5 12.5 c 128,-1,6
 64 34 64 34 64 72 c 128,-1,7
 64 110 64 110 87.5 131.5 c 128,-1,0
 111 153 111 153 151 153 c 128,-1,1
EndSplineSet
Substitution2: "'tnum' Tabular Numbers lookup 26 subtable" period.tf
Substitution2: "'sups' Superscript lookup 15 subtable" periodsuperior
Substitution2: "'subs' Subscript lookup 14 subtable" periodinferior
Substitution2: "'sinf' Scientific Inferiors lookup 13 subtable" periodinferior
AlternateSubs2: "'aalt' Access All Alternates lookup 1 subtable" periodinferior periodsuperior period.tf
EndChar

StartChar: slash
Encoding: 47 47 18
Width: 457
GlyphClass: 2
Flags: W
LayerCount: 2
Fore
SplineSet
437 719 m 1,0,-1
 147 -70 l 1,1,-1
 20 -70 l 1,2,-1
 309 719 l 1,3,-1
 437 719 l 1,0,-1
EndSplineSet
Substitution2: "'frac' Diagonal Fractions lookup 18 subtable" fraction
Substitution2: "'aalt' Access All Alternates lookup 0 subtable" fraction
EndChar

StartChar: zero
Encoding: 48 48 19
Width: 604
GlyphClass: 2
Flags: W
LayerCount: 2
Fore
SplineSet
302 -10 m 128,-1,1
 175 -10 175 -10 109.5 76.5 c 128,-1,2
 44 163 44 163 44 330 c 128,-1,3
 44 497 44 497 109.5 583.5 c 128,-1,4
 175 670 175 670 302 670 c 128,-1,5
 429 670 429 670 494.5 583.5 c 128,-1,6
 560 497 560 497 560 330 c 128,-1,7
 560 163 560 163 494.5 76.5 c 128,-1,0
 429 -10 429 -10 302 -10 c 128,-1,1
302 101 m 128,-1,9
 364 101 364 101 394 156.5 c 128,-1,10
 424 212 424 212 424 330 c 128,-1,11
 424 448 424 448 394 503.5 c 128,-1,12
 364 559 364 559 302 559 c 128,-1,13
 240 559 240 559 210 503.5 c 128,-1,14
 180 448 180 448 180 330 c 128,-1,15
 180 212 180 212 210 156.5 c 128,-1,8
 240 101 240 101 302 101 c 128,-1,9
EndSplineSet
Substitution2: "'zero' Slashed Zero lookup 28 subtable" zero.zero
Substitution2: "'onum' Oldstyle Figures lookup 27 subtable" zero.osf
Substitution2: "'tnum' Tabular Numbers lookup 26 subtable" zero.tf
Substitution2: "'frac' Diagonal Fractions lookup 19 subtable" zero.numr
Substitution2: "'dnom' Denominators lookup 17 subtable" zero.dnom
Substitution2: "'numr' Numerators lookup 16 subtable" zero.numr
Substitution2: "'sups' Superscript lookup 15 subtable" uni2070
Substitution2: "'subs' Subscript lookup 14 subtable" uni2080
Substitution2: "'sinf' Scientific Inferiors lookup 13 subtable" uni2080
Substitution2: "'smcp' Lowercase to Small Capitals lookup 12 subtable" zero.sc
Substitution2: "'c2sc' Capitals to Small Capitals lookup 11 subtable" zero.sc
AlternateSubs2: "'aalt' Access All Alternates lookup 1 subtable" zero.sc uni2080 uni2070 zero.numr zero.dnom zero.tf zero.osf zero.zero
EndChar

StartChar: one
Encoding: 49 49 20
Width: 604
GlyphClass: 2
Flags: W
LayerCount: 2
Fore
SplineSet
404 109 m 1,0,-1
 569 109 l 1,1,-1
 569 0 l 1,2,-1
 89 0 l 1,3,-1
 89 109 l 1,4,-1
 275 109 l 1,5,-1
 275 490 l 2,6,7
 275 513 275 513 276 526 c 1,8,9
 191 450 191 450 99 435 c 1,10,-1
 81 546 l 1,11,12
 128 551 128 551 197.5 587.5 c 128,-1,13
 267 624 267 624 292 660 c 1,14,-1
 404 660 l 1,15,-1
 404 109 l 1,0,-1
EndSplineSet
Substitution2: "'onum' Oldstyle Figures lookup 27 subtable" one.osf
Substitution2: "'tnum' Tabular Numbers lookup 26 subtable" one.tf
Substitution2: "'nalt' Alternate Annotation Forms lookup 23 subtable" uni2780
Substitution2: "'frac' Diagonal Fractions lookup 19 subtable" one.numr
Substitution2: "'dnom' Denominators lookup 17 subtable" one.dnom
Substitution2: "'numr' Numerators lookup 16 subtable" one.numr
Substitution2: "'sups' Superscript lookup 15 subtable" uni00B9
Substitution2: "'subs' Subscript lookup 14 subtable" uni2081
Substitution2: "'sinf' Scientific Inferiors lookup 13 subtable" uni2081
Substitution2: "'smcp' Lowercase to Small Capitals lookup 12 subtable" one.sc
Substitution2: "'c2sc' Capitals to Small Capitals lookup 11 subtable" one.sc
AlternateSubs2: "'aalt' Access All Alternates lookup 1 subtable" one.sc uni2081 uni00B9 one.numr one.dnom uni2780 one.tf one.osf
EndChar

StartChar: two
Encoding: 50 50 21
Width: 604
GlyphClass: 2
Flags: W
LayerCount: 2
Fore
SplineSet
67 0 m 1,0,-1
 67 94 l 1,1,2
 246 213 246 213 320 294.5 c 128,-1,3
 394 376 394 376 394 452 c 0,4,5
 394 499 394 499 365.5 528 c 128,-1,6
 337 557 337 557 286 557 c 0,7,8
 231 557 231 557 199.5 519 c 128,-1,9
 168 481 168 481 165 411 c 1,10,-1
 46 456 l 1,11,12
 52 556 52 556 119 613 c 128,-1,13
 186 670 186 670 294 670 c 0,14,15
 408 670 408 670 470.5 609 c 128,-1,16
 533 548 533 548 533 460 c 0,17,18
 533 367 533 367 463 284.5 c 128,-1,19
 393 202 393 202 240 108 c 1,20,-1
 240 107 l 1,21,22
 298 111 298 111 361 111 c 2,23,-1
 543 111 l 1,24,-1
 543 0 l 1,25,-1
 67 0 l 1,0,-1
EndSplineSet
Substitution2: "'onum' Oldstyle Figures lookup 27 subtable" two.osf
Substitution2: "'tnum' Tabular Numbers lookup 26 subtable" two.tf
Substitution2: "'nalt' Alternate Annotation Forms lookup 23 subtable" uni2781
Substitution2: "'frac' Diagonal Fractions lookup 19 subtable" two.numr
Substitution2: "'dnom' Denominators lookup 17 subtable" two.dnom
Substitution2: "'numr' Numerators lookup 16 subtable" two.numr
Substitution2: "'sups' Superscript lookup 15 subtable" uni00B2
Substitution2: "'subs' Subscript lookup 14 subtable" uni2082
Substitution2: "'sinf' Scientific Inferiors lookup 13 subtable" uni2082
Substitution2: "'smcp' Lowercase to Small Capitals lookup 12 subtable" two.sc
Substitution2: "'c2sc' Capitals to Small Capitals lookup 11 subtable" two.sc
AlternateSubs2: "'aalt' Access All Alternates lookup 1 subtable" two.sc uni2082 uni00B2 two.numr two.dnom uni2781 two.tf two.osf
EndChar

StartChar: three
Encoding: 51 51 22
Width: 604
GlyphClass: 2
Flags: W
LayerCount: 2
Fore
SplineSet
308 670 m 0,0,1
 413 670 413 670 471.5 620 c 128,-1,2
 530 570 530 570 530 490 c 0,3,4
 530 418 530 418 489.5 376 c 128,-1,5
 449 334 449 334 406 334 c 1,6,-1
 406 331 l 1,7,8
 459 331 459 331 501.5 291.5 c 128,-1,9
 544 252 544 252 544 179 c 0,10,11
 544 95 544 95 475.5 42.5 c 128,-1,12
 407 -10 407 -10 299 -10 c 0,13,14
 106 -10 106 -10 51 152 c 1,15,-1
 177 210 l 1,16,17
 186 153 186 153 215 127 c 128,-1,18
 244 101 244 101 299 101 c 0,19,20
 350 101 350 101 380 128 c 128,-1,21
 410 155 410 155 409 198 c 0,22,23
 408 243 408 243 379.5 262.5 c 128,-1,24
 351 282 351 282 292 282 c 2,25,-1
 259 282 l 1,26,-1
 259 378 l 1,27,-1
 288 378 l 2,28,29
 394 378 394 378 394 466 c 0,30,31
 395 511 395 511 370.5 535 c 128,-1,32
 346 559 346 559 301 559 c 0,33,34
 204 559 204 559 191 465 c 1,35,-1
 69 510 l 1,36,37
 88 589 88 589 152 629.5 c 128,-1,38
 216 670 216 670 308 670 c 0,0,1
EndSplineSet
Substitution2: "'onum' Oldstyle Figures lookup 27 subtable" three.osf
Substitution2: "'tnum' Tabular Numbers lookup 26 subtable" three.tf
Substitution2: "'nalt' Alternate Annotation Forms lookup 23 subtable" uni2782
Substitution2: "'frac' Diagonal Fractions lookup 19 subtable" three.numr
Substitution2: "'dnom' Denominators lookup 17 subtable" three.dnom
Substitution2: "'numr' Numerators lookup 16 subtable" three.numr
Substitution2: "'sups' Superscript lookup 15 subtable" uni00B3
Substitution2: "'subs' Subscript lookup 14 subtable" uni2083
Substitution2: "'sinf' Scientific Inferiors lookup 13 subtable" uni2083
Substitution2: "'smcp' Lowercase to Small Capitals lookup 12 subtable" three.sc
Substitution2: "'c2sc' Capitals to Small Capitals lookup 11 subtable" three.sc
AlternateSubs2: "'aalt' Access All Alternates lookup 1 subtable" three.sc uni2083 uni00B3 three.numr three.dnom uni2782 three.tf three.osf
EndChar

StartChar: four
Encoding: 52 52 23
Width: 604
GlyphClass: 2
Flags: W
LayerCount: 2
Fore
SplineSet
335 0 m 1,0,-1
 335 150 l 1,1,-1
 29 150 l 1,2,-1
 29 228 l 1,3,-1
 291 660 l 1,4,-1
 460 660 l 1,5,-1
 460 255 l 1,6,-1
 579 255 l 1,7,-1
 579 150 l 1,8,-1
 460 150 l 1,9,-1
 460 0 l 1,10,-1
 335 0 l 1,0,-1
153 255 m 1,11,-1
 338 255 l 1,12,-1
 338 412 l 2,13,14
 338 461 338 461 340 561 c 1,15,-1
 338 561 l 1,16,17
 314 508 314 508 290 470 c 2,18,-1
 153 255 l 1,11,-1
EndSplineSet
Substitution2: "'onum' Oldstyle Figures lookup 27 subtable" four.osf
Substitution2: "'tnum' Tabular Numbers lookup 26 subtable" four.tf
Substitution2: "'nalt' Alternate Annotation Forms lookup 23 subtable" uni2783
Substitution2: "'frac' Diagonal Fractions lookup 19 subtable" four.numr
Substitution2: "'dnom' Denominators lookup 17 subtable" four.dnom
Substitution2: "'numr' Numerators lookup 16 subtable" four.numr
Substitution2: "'sups' Superscript lookup 15 subtable" uni2074
Substitution2: "'subs' Subscript lookup 14 subtable" uni2084
Substitution2: "'sinf' Scientific Inferiors lookup 13 subtable" uni2084
Substitution2: "'smcp' Lowercase to Small Capitals lookup 12 subtable" four.sc
Substitution2: "'c2sc' Capitals to Small Capitals lookup 11 subtable" four.sc
AlternateSubs2: "'aalt' Access All Alternates lookup 1 subtable" four.sc uni2084 uni2074 four.numr four.dnom uni2783 four.tf four.osf
EndChar

StartChar: five
Encoding: 53 53 24
Width: 604
GlyphClass: 2
Flags: W
LayerCount: 2
Fore
SplineSet
340 425 m 0,0,1
 436 425 436 425 491.5 368.5 c 128,-1,2
 547 312 547 312 547 220 c 0,3,4
 547 109 547 109 479 49.5 c 128,-1,5
 411 -10 411 -10 302 -10 c 0,6,7
 213 -10 213 -10 152.5 23.5 c 128,-1,8
 92 57 92 57 54 129 c 1,9,-1
 178 198 l 1,10,11
 191 149 191 149 218 124.5 c 128,-1,12
 245 100 245 100 301 100 c 0,13,14
 356 100 356 100 387.5 129 c 128,-1,15
 419 158 419 158 419 211 c 0,16,17
 417 322 417 322 304 322 c 0,18,19
 221 322 221 322 183 274 c 1,20,-1
 75 286 l 1,21,-1
 116 660 l 1,22,-1
 513 660 l 1,23,-1
 513 549 l 1,24,-1
 220 549 l 1,25,-1
 201 394 l 2,26,27
 199 380 199 380 197 375 c 1,28,-1
 198 375 l 1,29,30
 245 425 245 425 340 425 c 0,0,1
EndSplineSet
Substitution2: "'onum' Oldstyle Figures lookup 27 subtable" five.osf
Substitution2: "'tnum' Tabular Numbers lookup 26 subtable" five.tf
Substitution2: "'nalt' Alternate Annotation Forms lookup 23 subtable" uni2784
Substitution2: "'frac' Diagonal Fractions lookup 19 subtable" five.numr
Substitution2: "'dnom' Denominators lookup 17 subtable" five.dnom
Substitution2: "'numr' Numerators lookup 16 subtable" five.numr
Substitution2: "'sups' Superscript lookup 15 subtable" uni2075
Substitution2: "'subs' Subscript lookup 14 subtable" uni2085
Substitution2: "'sinf' Scientific Inferiors lookup 13 subtable" uni2085
Substitution2: "'smcp' Lowercase to Small Capitals lookup 12 subtable" five.sc
Substitution2: "'c2sc' Capitals to Small Capitals lookup 11 subtable" five.sc
AlternateSubs2: "'aalt' Access All Alternates lookup 1 subtable" five.sc uni2085 uni2075 five.numr five.dnom uni2784 five.tf five.osf
EndChar

StartChar: six
Encoding: 54 54 25
Width: 604
GlyphClass: 2
Flags: W
LayerCount: 2
Fore
SplineSet
331 670 m 0,0,1
 499 670 499 670 554 526 c 1,2,-1
 438 472 l 1,3,4
 414 556 414 556 323 556 c 0,5,6
 261 556 261 556 222 494 c 128,-1,7
 183 432 183 432 183 332 c 2,8,-1
 183 314 l 1,9,-1
 186 314 l 1,10,11
 201 362 201 362 248 387.5 c 128,-1,12
 295 413 295 413 354 413 c 0,13,14
 449 413 449 413 507 356.5 c 128,-1,15
 565 300 565 300 565 205 c 0,16,17
 565 106 565 106 501.5 48 c 128,-1,18
 438 -10 438 -10 328 -10 c 0,19,20
 198 -10 198 -10 128 80.5 c 128,-1,21
 58 171 58 171 58 330 c 0,22,23
 58 495 58 495 133.5 582.5 c 128,-1,24
 209 670 209 670 331 670 c 0,0,1
325 312 m 0,25,26
 275 312 275 312 244.5 283 c 128,-1,27
 214 254 214 254 214 207 c 0,28,29
 214 158 214 158 244 129 c 128,-1,30
 274 100 274 100 325 100 c 0,31,32
 378 100 378 100 407 128 c 128,-1,33
 436 156 436 156 436 207 c 0,34,35
 436 256 436 256 406.5 284 c 128,-1,36
 377 312 377 312 325 312 c 0,25,26
EndSplineSet
Substitution2: "'onum' Oldstyle Figures lookup 27 subtable" six.osf
Substitution2: "'tnum' Tabular Numbers lookup 26 subtable" six.tf
Substitution2: "'nalt' Alternate Annotation Forms lookup 23 subtable" uni2785
Substitution2: "'frac' Diagonal Fractions lookup 19 subtable" six.numr
Substitution2: "'dnom' Denominators lookup 17 subtable" six.dnom
Substitution2: "'numr' Numerators lookup 16 subtable" six.numr
Substitution2: "'sups' Superscript lookup 15 subtable" uni2076
Substitution2: "'subs' Subscript lookup 14 subtable" uni2086
Substitution2: "'sinf' Scientific Inferiors lookup 13 subtable" uni2086
Substitution2: "'smcp' Lowercase to Small Capitals lookup 12 subtable" six.sc
Substitution2: "'c2sc' Capitals to Small Capitals lookup 11 subtable" six.sc
AlternateSubs2: "'aalt' Access All Alternates lookup 1 subtable" six.sc uni2086 uni2076 six.numr six.dnom uni2785 six.tf six.osf
EndChar

StartChar: seven
Encoding: 55 55 26
Width: 604
GlyphClass: 2
Flags: W
LayerCount: 2
Fore
SplineSet
43 660 m 1,0,-1
 567 660 l 1,1,-1
 567 555 l 1,2,3
 444 428 444 428 392 301 c 128,-1,4
 340 174 340 174 340 0 c 1,5,-1
 201 0 l 1,6,7
 201 311 201 311 434 547 c 1,8,-1
 43 547 l 1,9,-1
 43 660 l 1,0,-1
EndSplineSet
Substitution2: "'onum' Oldstyle Figures lookup 27 subtable" seven.osf
Substitution2: "'tnum' Tabular Numbers lookup 26 subtable" seven.tf
Substitution2: "'nalt' Alternate Annotation Forms lookup 23 subtable" uni2786
Substitution2: "'frac' Diagonal Fractions lookup 19 subtable" seven.numr
Substitution2: "'dnom' Denominators lookup 17 subtable" seven.dnom
Substitution2: "'numr' Numerators lookup 16 subtable" seven.numr
Substitution2: "'sups' Superscript lookup 15 subtable" uni2077
Substitution2: "'subs' Subscript lookup 14 subtable" uni2087
Substitution2: "'sinf' Scientific Inferiors lookup 13 subtable" uni2087
Substitution2: "'smcp' Lowercase to Small Capitals lookup 12 subtable" seven.sc
Substitution2: "'c2sc' Capitals to Small Capitals lookup 11 subtable" seven.sc
AlternateSubs2: "'aalt' Access All Alternates lookup 1 subtable" seven.sc uni2087 uni2077 seven.numr seven.dnom uni2786 seven.tf seven.osf
EndChar

StartChar: eight
Encoding: 56 56 27
Width: 604
GlyphClass: 2
Flags: W
LayerCount: 2
Fore
SplineSet
302 668 m 128,-1,1
 406 668 406 668 466.5 620 c 128,-1,2
 527 572 527 572 527 488 c 0,3,4
 527 438 527 438 501 400 c 128,-1,5
 475 362 475 362 430 342 c 1,6,-1
 430 341 l 1,7,8
 549 296 549 296 549 180 c 0,9,10
 549 92 549 92 482.5 41 c 128,-1,11
 416 -10 416 -10 302 -10 c 128,-1,12
 188 -10 188 -10 121.5 41 c 128,-1,13
 55 92 55 92 55 180 c 0,14,15
 55 237 55 237 86.5 278.5 c 128,-1,16
 118 320 118 320 175 341 c 1,17,-1
 175 342 l 1,18,19
 130 361 130 361 103.5 399 c 128,-1,20
 77 437 77 437 77 488 c 0,21,22
 77 572 77 572 137.5 620 c 128,-1,0
 198 668 198 668 302 668 c 128,-1,1
302 562 m 128,-1,24
 256 562 256 562 230 539.5 c 128,-1,25
 204 517 204 517 204 475 c 0,26,27
 204 435 204 435 230.5 412 c 128,-1,28
 257 389 257 389 302 389 c 128,-1,29
 347 389 347 389 373.5 412 c 128,-1,30
 400 435 400 435 400 475 c 0,31,32
 400 517 400 517 374 539.5 c 128,-1,23
 348 562 348 562 302 562 c 128,-1,24
302 96 m 0,33,34
 357 96 357 96 387.5 121.5 c 128,-1,35
 418 147 418 147 418 192 c 0,36,37
 418 238 418 238 387 263.5 c 128,-1,38
 356 289 356 289 302 289 c 0,39,40
 249 289 249 289 218 263 c 128,-1,41
 187 237 187 237 187 192 c 128,-1,42
 187 147 187 147 218 121.5 c 128,-1,43
 249 96 249 96 302 96 c 0,33,34
EndSplineSet
Substitution2: "'onum' Oldstyle Figures lookup 27 subtable" eight.osf
Substitution2: "'tnum' Tabular Numbers lookup 26 subtable" eight.tf
Substitution2: "'nalt' Alternate Annotation Forms lookup 23 subtable" uni2787
Substitution2: "'frac' Diagonal Fractions lookup 19 subtable" eight.numr
Substitution2: "'dnom' Denominators lookup 17 subtable" eight.dnom
Substitution2: "'numr' Numerators lookup 16 subtable" eight.numr
Substitution2: "'sups' Superscript lookup 15 subtable" uni2078
Substitution2: "'subs' Subscript lookup 14 subtable" uni2088
Substitution2: "'sinf' Scientific Inferiors lookup 13 subtable" uni2088
Substitution2: "'smcp' Lowercase to Small Capitals lookup 12 subtable" eight.sc
Substitution2: "'c2sc' Capitals to Small Capitals lookup 11 subtable" eight.sc
AlternateSubs2: "'aalt' Access All Alternates lookup 1 subtable" eight.sc uni2088 uni2078 eight.numr eight.dnom uni2787 eight.tf eight.osf
EndChar

StartChar: nine
Encoding: 57 57 28
Width: 604
GlyphClass: 2
Flags: W
LayerCount: 2
Fore
SplineSet
287 670 m 0,0,1
 413 670 413 670 482.5 580 c 128,-1,2
 552 490 552 490 552 328 c 0,3,4
 552 -10 552 -10 285 -10 c 0,5,6
 106 -10 106 -10 47 136 c 1,7,-1
 175 190 l 1,8,9
 188 144 188 144 213 122 c 128,-1,10
 238 100 238 100 289 100 c 0,11,12
 364 100 364 100 396.5 157.5 c 128,-1,13
 429 215 429 215 429 325 c 2,14,-1
 429 339 l 1,15,-1
 426 339 l 1,16,17
 399 240 399 240 261 238 c 0,18,19
 164 236 164 236 104 293.5 c 128,-1,20
 44 351 44 351 44 450 c 0,21,22
 44 552 44 552 109 611 c 128,-1,23
 174 670 174 670 287 670 c 0,0,1
286 557 m 0,24,25
 233 557 233 557 204 529 c 128,-1,26
 175 501 175 501 175 450 c 0,27,28
 175 400 175 400 204 372 c 128,-1,29
 233 344 233 344 286 344 c 0,30,31
 336 344 336 344 366 373 c 128,-1,32
 396 402 396 402 396 450 c 0,33,34
 396 499 396 499 366 528 c 128,-1,35
 336 557 336 557 286 557 c 0,24,25
EndSplineSet
Substitution2: "'onum' Oldstyle Figures lookup 27 subtable" nine.osf
Substitution2: "'tnum' Tabular Numbers lookup 26 subtable" nine.tf
Substitution2: "'nalt' Alternate Annotation Forms lookup 23 subtable" uni2788
Substitution2: "'frac' Diagonal Fractions lookup 19 subtable" nine.numr
Substitution2: "'dnom' Denominators lookup 17 subtable" nine.dnom
Substitution2: "'numr' Numerators lookup 16 subtable" nine.numr
Substitution2: "'sups' Superscript lookup 15 subtable" uni2079
Substitution2: "'subs' Subscript lookup 14 subtable" uni2089
Substitution2: "'sinf' Scientific Inferiors lookup 13 subtable" uni2089
Substitution2: "'smcp' Lowercase to Small Capitals lookup 12 subtable" nine.sc
Substitution2: "'c2sc' Capitals to Small Capitals lookup 11 subtable" nine.sc
AlternateSubs2: "'aalt' Access All Alternates lookup 1 subtable" nine.sc uni2089 uni2079 nine.numr nine.dnom uni2788 nine.tf nine.osf
EndChar

StartChar: colon
Encoding: 58 58 29
Width: 302
GlyphClass: 2
Flags: W
LayerCount: 2
Fore
SplineSet
151 510 m 128,-1,1
 191 510 191 510 214.5 488.5 c 128,-1,2
 238 467 238 467 238 429 c 128,-1,3
 238 391 238 391 214.5 369.5 c 128,-1,4
 191 348 191 348 151 348 c 128,-1,5
 111 348 111 348 87.5 369.5 c 128,-1,6
 64 391 64 391 64 429 c 128,-1,7
 64 467 64 467 87.5 488.5 c 128,-1,0
 111 510 111 510 151 510 c 128,-1,1
151 153 m 128,-1,9
 191 153 191 153 214.5 131.5 c 128,-1,10
 238 110 238 110 238 72 c 128,-1,11
 238 34 238 34 214.5 12.5 c 128,-1,12
 191 -9 191 -9 151 -9 c 128,-1,13
 111 -9 111 -9 87.5 12.5 c 128,-1,14
 64 34 64 34 64 72 c 128,-1,15
 64 110 64 110 87.5 131.5 c 128,-1,8
 111 153 111 153 151 153 c 128,-1,9
EndSplineSet
Substitution2: "'tnum' Tabular Numbers lookup 26 subtable" colon.tf
Substitution2: "'sups' Superscript lookup 15 subtable" colonsuperior
Substitution2: "'subs' Subscript lookup 14 subtable" coloninferior
Substitution2: "'sinf' Scientific Inferiors lookup 13 subtable" coloninferior
AlternateSubs2: "'aalt' Access All Alternates lookup 1 subtable" coloninferior colonsuperior colon.tf
EndChar

StartChar: semicolon
Encoding: 59 59 30
Width: 302
GlyphClass: 2
Flags: W
LayerCount: 2
Fore
SplineSet
154 348 m 0,0,1
 114 348 114 348 90.5 370 c 128,-1,2
 67 392 67 392 67 429 c 128,-1,3
 67 466 67 466 90.5 488 c 128,-1,4
 114 510 114 510 154 510 c 0,5,6
 195 510 195 510 218.5 488 c 128,-1,7
 242 466 242 466 242 429 c 128,-1,8
 242 392 242 392 218.5 370 c 128,-1,9
 195 348 195 348 154 348 c 0,0,1
151 153 m 0,10,11
 197 153 197 153 222 120.5 c 128,-1,12
 247 88 247 88 247 36 c 0,13,14
 247 -25 247 -25 214.5 -75.5 c 128,-1,15
 182 -126 182 -126 119 -154 c 1,16,-1
 56 -106 l 1,17,18
 148 -71 148 -71 171 -1 c 1,19,-1
 166 2 l 1,20,21
 156 -8 156 -8 137 -8 c 0,22,23
 108 -8 108 -8 86 12 c 128,-1,24
 64 32 64 32 64 69 c 0,25,26
 64 108 64 108 88 130.5 c 128,-1,27
 112 153 112 153 151 153 c 0,10,11
EndSplineSet
Substitution2: "'tnum' Tabular Numbers lookup 26 subtable" semicolon.tf
Substitution2: "'aalt' Access All Alternates lookup 0 subtable" semicolon.tf
EndChar

StartChar: less
Encoding: 60 60 31
Width: 604
GlyphClass: 2
Flags: W
LayerCount: 2
Fore
SplineSet
551 582 m 1,0,-1
 551 449 l 1,1,-1
 162 298 l 1,2,-1
 551 146 l 1,3,-1
 551 14 l 1,4,-1
 66 234 l 1,5,-1
 66 361 l 1,6,-1
 551 582 l 1,0,-1
EndSplineSet
EndChar

StartChar: equal
Encoding: 61 61 32
Width: 604
GlyphClass: 2
Flags: W
LayerCount: 2
Fore
SplineSet
540 468 m 1,0,-1
 540 366 l 1,1,-1
 64 366 l 1,2,-1
 64 468 l 1,3,-1
 540 468 l 1,0,-1
540 257 m 1,4,-1
 540 156 l 1,5,-1
 64 156 l 1,6,-1
 64 257 l 1,7,-1
 540 257 l 1,4,-1
EndSplineSet
Substitution2: "'sups' Superscript lookup 15 subtable" uni207C
Substitution2: "'subs' Subscript lookup 14 subtable" uni208C
Substitution2: "'sinf' Scientific Inferiors lookup 13 subtable" uni208C
AlternateSubs2: "'aalt' Access All Alternates lookup 1 subtable" uni208C uni207C
EndChar

StartChar: greater
Encoding: 62 62 33
Width: 604
GlyphClass: 2
Flags: W
LayerCount: 2
Fore
SplineSet
53 582 m 1,0,-1
 538 361 l 1,1,-1
 538 234 l 1,2,-1
 53 14 l 1,3,-1
 53 146 l 1,4,-1
 442 298 l 1,5,-1
 53 449 l 1,6,-1
 53 582 l 1,0,-1
EndSplineSet
EndChar

StartChar: question
Encoding: 63 63 34
Width: 583
GlyphClass: 2
Flags: W
LayerCount: 2
Fore
SplineSet
295 670 m 0,0,1
 405 670 405 670 471.5 624.5 c 128,-1,2
 538 579 538 579 538 493 c 0,3,4
 538 406 538 406 486.5 360.5 c 128,-1,5
 435 315 435 315 349 306 c 1,6,-1
 342 212 l 1,7,-1
 220 212 l 1,8,-1
 214 363 l 1,9,10
 309 373 309 373 350 399.5 c 128,-1,11
 391 426 391 426 391 473 c 0,12,13
 391 512 391 512 364.5 533.5 c 128,-1,14
 338 555 338 555 286 555 c 128,-1,15
 234 555 234 555 201.5 525.5 c 128,-1,16
 169 496 169 496 165 442 c 1,17,-1
 35 496 l 1,18,19
 48 576 48 576 113.5 623 c 128,-1,20
 179 670 179 670 295 670 c 0,0,1
281 147 m 128,-1,22
 321 147 321 147 344 126 c 128,-1,23
 367 105 367 105 367 69 c 128,-1,24
 367 33 367 33 344 12 c 128,-1,25
 321 -9 321 -9 281 -9 c 128,-1,26
 241 -9 241 -9 218.5 12 c 128,-1,27
 196 33 196 33 196 69 c 128,-1,28
 196 105 196 105 218.5 126 c 128,-1,21
 241 147 241 147 281 147 c 128,-1,22
EndSplineSet
Substitution2: "'smcp' Lowercase to Small Capitals lookup 12 subtable" question.sc
Substitution2: "'c2sc' Capitals to Small Capitals lookup 11 subtable" question.sc
Substitution2: "'aalt' Access All Alternates lookup 0 subtable" question.sc
EndChar

StartChar: at
Encoding: 64 64 35
Width: 960
GlyphClass: 2
Flags: W
LayerCount: 2
Fore
SplineSet
498 660 m 0,0,1
 690 660 690 660 796 551.5 c 128,-1,2
 902 443 902 443 902 260 c 0,3,4
 902 134 902 134 845 66 c 128,-1,5
 788 -2 788 -2 702 -2 c 0,6,7
 603 -2 603 -2 571 86 c 1,8,9
 517 2 517 2 409 2 c 0,10,11
 336 2 336 2 290 55 c 128,-1,12
 244 108 244 108 244 195 c 0,13,14
 244 323 244 323 311 395 c 128,-1,15
 378 467 378 467 474 467 c 0,16,17
 574 467 574 467 601 386 c 1,18,-1
 621 458 l 1,19,-1
 717 458 l 1,20,-1
 675 163 l 2,21,22
 662 73 662 73 730 73 c 0,23,24
 776 73 776 73 803 121 c 128,-1,25
 830 169 830 169 830 260 c 0,26,27
 830 416 830 416 743 503.5 c 128,-1,28
 656 591 656 591 498 591 c 0,29,30
 331 591 331 591 232.5 492 c 128,-1,31
 134 393 134 393 134 223 c 0,32,33
 134 64 134 64 229.5 -27.5 c 128,-1,34
 325 -119 325 -119 467 -119 c 0,35,36
 595 -119 595 -119 674 -60 c 1,37,-1
 714 -114 l 1,38,39
 662 -150 662 -150 608 -169 c 128,-1,40
 554 -188 554 -188 465 -188 c 0,41,42
 283 -188 283 -188 169 -76.5 c 128,-1,43
 55 35 55 35 55 223 c 0,44,45
 55 418 55 418 178 539 c 128,-1,46
 301 660 301 660 498 660 c 0,0,1
490 375 m 0,47,48
 433 375 433 375 398 331 c 128,-1,49
 363 287 363 287 363 210 c 0,50,51
 363 156 363 156 386 126.5 c 128,-1,52
 409 97 409 97 451 97 c 128,-1,53
 493 97 493 97 524.5 123 c 128,-1,54
 556 149 556 149 562 198 c 2,55,-1
 572 267 l 2,56,57
 586 375 586 375 490 375 c 0,47,48
EndSplineSet
Substitution2: "'case' Case-Sensitive Forms lookup 29 subtable" at.case
Substitution2: "'aalt' Access All Alternates lookup 0 subtable" at.case
EndChar

StartChar: A
Encoding: 65 65 36
Width: 671
GlyphClass: 2
Flags: W
LayerCount: 2
Fore
SplineSet
516 0 m 1,0,-1
 461 161 l 1,1,-1
 207 161 l 1,2,-1
 153 0 l 1,3,-1
 12 0 l 1,4,-1
 253 660 l 1,5,-1
 418 660 l 1,6,-1
 659 0 l 1,7,-1
 516 0 l 1,0,-1
241 263 m 1,8,-1
 427 263 l 1,9,-1
 365 449 l 1,10,-1
 335 549 l 1,11,-1
 333 549 l 1,12,-1
 305 451 l 1,13,-1
 241 263 l 1,8,-1
EndSplineSet
Substitution2: "Single Substitution lookup 56 subtable" A.swsh
Substitution2: "Single Substitution lookup 55 subtable" ordfeminine
Substitution2: "'swsh' Swash lookup 32 subtable" A.swsh
Substitution2: "'c2sc' Capitals to Small Capitals lookup 11 subtable" a.sc
AlternateSubs2: "'aalt' Access All Alternates lookup 1 subtable" a.sc ordfeminine A.swsh
EndChar

StartChar: B
Encoding: 66 66 37
Width: 672
GlyphClass: 2
Flags: W
LayerCount: 2
Fore
SplineSet
86 0 m 1,0,-1
 86 660 l 1,1,-1
 375 660 l 2,2,3
 609 660 609 660 609 480 c 0,4,5
 609 425 609 425 576 384.5 c 128,-1,6
 543 344 543 344 483 334 c 1,7,-1
 483 333 l 1,8,9
 551 323 551 323 588.5 281.5 c 128,-1,10
 626 240 626 240 626 181 c 0,11,12
 626 95 626 95 564 47.5 c 128,-1,13
 502 0 502 0 385 0 c 2,14,-1
 86 0 l 1,0,-1
220 383 m 1,15,-1
 356 383 l 2,16,17
 466 383 466 383 466 468 c 128,-1,18
 466 553 466 553 356 553 c 2,19,-1
 220 553 l 1,20,-1
 220 383 l 1,15,-1
220 104 m 1,21,-1
 373 104 l 2,22,23
 483 104 483 104 483 191 c 0,24,25
 483 277 483 277 373 277 c 2,26,-1
 220 277 l 1,27,-1
 220 104 l 1,21,-1
EndSplineSet
Substitution2: "'c2sc' Capitals to Small Capitals lookup 11 subtable" b.sc
Substitution2: "'aalt' Access All Alternates lookup 0 subtable" b.sc
EndChar

StartChar: C
Encoding: 67 67 38
Width: 683
GlyphClass: 2
Flags: W
LayerCount: 2
Fore
SplineSet
651 182 m 1,0,1
 622 87 622 87 548 38.5 c 128,-1,2
 474 -10 474 -10 371 -10 c 0,3,4
 224 -10 224 -10 138.5 80.5 c 128,-1,5
 53 171 53 171 53 330 c 0,6,7
 53 488 53 488 138.5 579 c 128,-1,8
 224 670 224 670 369 670 c 0,9,10
 472 670 472 670 543.5 627 c 128,-1,11
 615 584 615 584 642 499 c 1,12,-1
 517 446 l 1,13,14
 501 505 501 505 467 531 c 128,-1,15
 433 557 433 557 375 557 c 0,16,17
 291 557 291 557 243.5 498 c 128,-1,18
 196 439 196 439 196 330 c 128,-1,19
 196 221 196 221 242 162 c 128,-1,20
 288 103 288 103 372 103 c 0,21,22
 493 103 493 103 524 220 c 1,23,-1
 651 182 l 1,0,1
EndSplineSet
Substitution2: "'c2sc' Capitals to Small Capitals lookup 11 subtable" c.sc
Substitution2: "'aalt' Access All Alternates lookup 0 subtable" c.sc
EndChar

StartChar: D
Encoding: 68 68 39
Width: 719
GlyphClass: 2
Flags: W
LayerCount: 2
Fore
SplineSet
341 660 m 2,0,1
 496 660 496 660 581 574 c 128,-1,2
 666 488 666 488 666 330 c 128,-1,3
 666 172 666 172 581 86 c 128,-1,4
 496 0 496 0 341 0 c 2,5,-1
 86 0 l 1,6,-1
 86 660 l 1,7,-1
 341 660 l 2,0,1
334 110 m 2,8,9
 428 110 428 110 475.5 166.5 c 128,-1,10
 523 223 523 223 523 330 c 128,-1,11
 523 437 523 437 475.5 493.5 c 128,-1,12
 428 550 428 550 334 550 c 2,13,-1
 224 550 l 1,14,-1
 224 110 l 1,15,-1
 334 110 l 2,8,9
EndSplineSet
Substitution2: "'c2sc' Capitals to Small Capitals lookup 11 subtable" d.sc
Substitution2: "'aalt' Access All Alternates lookup 0 subtable" d.sc
EndChar

StartChar: E
Encoding: 69 69 40
Width: 633
GlyphClass: 2
Flags: W
AnchorPoint: "Anchor-0" 335 0 basechar 0
LayerCount: 2
Fore
SplineSet
224 111 m 1,0,-1
 595 111 l 1,1,-1
 595 0 l 1,2,-1
 86 0 l 1,3,-1
 86 660 l 1,4,-1
 581 660 l 1,5,-1
 581 549 l 1,6,-1
 224 549 l 1,7,-1
 224 385 l 1,8,-1
 505 385 l 1,9,-1
 505 279 l 1,10,-1
 224 279 l 1,11,-1
 224 111 l 1,0,-1
EndSplineSet
Substitution2: "Single Substitution lookup 57 subtable" E.swsh.001
Substitution2: "Single Substitution lookup 56 subtable" E.swsh
AlternateSubs2: "'swsh' Swash lookup 33 subtable" E.swsh E.swsh.001
Substitution2: "'c2sc' Capitals to Small Capitals lookup 11 subtable" e.sc
AlternateSubs2: "'aalt' Access All Alternates lookup 1 subtable" e.sc E.swsh E.swsh.001
EndChar

StartChar: F
Encoding: 70 70 41
Width: 612
GlyphClass: 2
Flags: W
LayerCount: 2
Fore
SplineSet
580 549 m 1,0,-1
 224 549 l 1,1,-1
 224 382 l 1,2,-1
 505 382 l 1,3,-1
 505 270 l 1,4,-1
 224 270 l 1,5,-1
 224 0 l 1,6,-1
 86 0 l 1,7,-1
 86 660 l 1,8,-1
 580 660 l 1,9,-1
 580 549 l 1,0,-1
EndSplineSet
Substitution2: "Single Substitution lookup 56 subtable" F.swsh
Substitution2: "'swsh' Swash lookup 34 subtable" F.swsh
Substitution2: "'c2sc' Capitals to Small Capitals lookup 11 subtable" f.sc
AlternateSubs2: "'aalt' Access All Alternates lookup 1 subtable" f.sc F.swsh
EndChar

StartChar: G
Encoding: 71 71 42
Width: 723
GlyphClass: 2
Flags: W
AnchorPoint: "Anchor-0" 394 0 basechar 0
LayerCount: 2
Fore
SplineSet
346 349 m 1,0,-1
 658 349 l 1,1,-1
 658 0 l 1,2,-1
 557 0 l 1,3,-1
 554 79 l 1,4,5
 494 -10 494 -10 359 -10 c 0,6,7
 221 -10 221 -10 137 80 c 128,-1,8
 53 170 53 170 53 329 c 0,9,10
 53 487 53 487 139.5 578.5 c 128,-1,11
 226 670 226 670 374 670 c 0,12,13
 481 670 481 670 548.5 631 c 128,-1,14
 616 592 616 592 655 508 c 1,15,-1
 528 453 l 1,16,17
 513 504 513 504 473.5 530.5 c 128,-1,18
 434 557 434 557 378 557 c 0,19,20
 292 557 292 557 244 498 c 128,-1,21
 196 439 196 439 196 330 c 0,22,23
 196 217 196 217 243 159 c 128,-1,24
 290 101 290 101 381 101 c 0,25,26
 451 101 451 101 495 134.5 c 128,-1,27
 539 168 539 168 539 232 c 2,28,-1
 539 247 l 1,29,-1
 346 247 l 1,30,-1
 346 349 l 1,0,-1
EndSplineSet
Substitution2: "'ss04' Style Set 4 lookup 50 subtable" G.ss04
Substitution2: "'salt' Stylistic Alternatives lookup 42 subtable" G.ss04
Substitution2: "'c2sc' Capitals to Small Capitals lookup 11 subtable" g.sc
AlternateSubs2: "'aalt' Access All Alternates lookup 1 subtable" g.sc G.ss04
EndChar

StartChar: H
Encoding: 72 72 43
Width: 739
GlyphClass: 2
Flags: W
LayerCount: 2
Fore
SplineSet
515 660 m 1,0,-1
 653 660 l 1,1,-1
 653 0 l 1,2,-1
 515 0 l 1,3,-1
 515 278 l 1,4,-1
 224 278 l 1,5,-1
 224 0 l 1,6,-1
 86 0 l 1,7,-1
 86 660 l 1,8,-1
 224 660 l 1,9,-1
 224 389 l 1,10,-1
 515 389 l 1,11,-1
 515 660 l 1,0,-1
EndSplineSet
Substitution2: "'sups' Superscript lookup 15 subtable" Hsuperior
Substitution2: "'subs' Subscript lookup 14 subtable" Hinferior
Substitution2: "'sinf' Scientific Inferiors lookup 13 subtable" Hinferior
Substitution2: "'c2sc' Capitals to Small Capitals lookup 11 subtable" h.sc
AlternateSubs2: "'aalt' Access All Alternates lookup 1 subtable" h.sc Hinferior Hsuperior
EndChar

StartChar: I
Encoding: 73 73 44
Width: 310
GlyphClass: 2
Flags: W
LayerCount: 2
Fore
SplineSet
224 660 m 1,0,-1
 224 0 l 1,1,-1
 86 0 l 1,2,-1
 86 660 l 1,3,-1
 224 660 l 1,0,-1
EndSplineSet
Substitution2: "'c2sc' Capitals to Small Capitals lookup 11 subtable" i.sc
Substitution2: "'aalt' Access All Alternates lookup 0 subtable" i.sc
EndChar

StartChar: J
Encoding: 74 74 45
Width: 601
GlyphClass: 2
Flags: W
LayerCount: 2
Fore
SplineSet
525 660 m 1,0,-1
 525 243 l 2,1,2
 525 124 525 124 457 57 c 128,-1,3
 389 -10 389 -10 266 -10 c 0,4,5
 135 -10 135 -10 76.5 59.5 c 128,-1,6
 18 129 18 129 40 245 c 1,7,-1
 175 269 l 1,8,9
 163 181 163 181 185.5 142 c 128,-1,10
 208 103 208 103 270 103 c 0,11,12
 334 103 334 103 360.5 141.5 c 128,-1,13
 387 180 387 180 387 262 c 2,14,-1
 387 660 l 1,15,-1
 525 660 l 1,0,-1
EndSplineSet
Substitution2: "'c2sc' Capitals to Small Capitals lookup 11 subtable" j.sc
Substitution2: "'aalt' Access All Alternates lookup 0 subtable" j.sc
EndChar

StartChar: K
Encoding: 75 75 46
Width: 679
GlyphClass: 2
Flags: W
AnchorPoint: "Anchor-0" 367 0 basechar 0
LayerCount: 2
Fore
SplineSet
505 0 m 1,0,-1
 318 302 l 1,1,-1
 224 195 l 1,2,-1
 224 0 l 1,3,-1
 86 0 l 1,4,-1
 86 660 l 1,5,-1
 224 660 l 1,6,-1
 224 347 l 1,7,-1
 495 660 l 1,8,-1
 655 660 l 1,9,-1
 418 391 l 1,10,-1
 663 0 l 1,11,-1
 505 0 l 1,0,-1
EndSplineSet
Substitution2: "'c2sc' Capitals to Small Capitals lookup 11 subtable" k.sc
Substitution2: "'aalt' Access All Alternates lookup 0 subtable" k.sc
EndChar

StartChar: L
Encoding: 76 76 47
Width: 601
GlyphClass: 2
Flags: W
AnchorPoint: "Anchor-0" 345 0 basechar 0
LayerCount: 2
Fore
SplineSet
224 111 m 1,0,-1
 572 111 l 1,1,-1
 572 0 l 1,2,-1
 86 0 l 1,3,-1
 86 660 l 1,4,-1
 224 660 l 1,5,-1
 224 111 l 1,0,-1
EndSplineSet
Substitution2: "Single Substitution lookup 57 subtable" L.swsh
Substitution2: "'swsh' Swash lookup 34 subtable" L.swsh
Substitution2: "'c2sc' Capitals to Small Capitals lookup 11 subtable" l.sc
AlternateSubs2: "'aalt' Access All Alternates lookup 1 subtable" l.sc L.swsh
Position2: "Single Positioning lookup 6 subtable" dx=0 dy=0 dh=-152 dv=0
EndChar

StartChar: M
Encoding: 77 77 48
Width: 890
GlyphClass: 2
Flags: W
LayerCount: 2
Fore
SplineSet
804 660 m 1,0,-1
 804 0 l 1,1,-1
 680 0 l 1,2,-1
 680 344 l 1,3,-1
 686 537 l 1,4,-1
 684 537 l 1,5,-1
 501 0 l 1,6,-1
 388 0 l 1,7,-1
 206 537 l 1,8,-1
 204 537 l 1,9,-1
 211 344 l 1,10,-1
 211 0 l 1,11,-1
 86 0 l 1,12,-1
 86 660 l 1,13,-1
 286 660 l 1,14,-1
 405 300 l 1,15,-1
 447 151 l 1,16,-1
 449 151 l 1,17,-1
 492 299 l 1,18,-1
 610 660 l 1,19,-1
 804 660 l 1,0,-1
EndSplineSet
Substitution2: "Single Substitution lookup 56 subtable" M.swsh
AlternateSubs2: "'swsh' Swash lookup 35 subtable" M.swsh M.swsh.001
Substitution2: "'c2sc' Capitals to Small Capitals lookup 11 subtable" m.sc
AlternateSubs2: "'aalt' Access All Alternates lookup 1 subtable" m.sc M.swsh M.swsh.001
EndChar

StartChar: N
Encoding: 78 78 49
Width: 739
GlyphClass: 2
Flags: W
AnchorPoint: "Anchor-0" 388 0 basechar 0
LayerCount: 2
Fore
SplineSet
653 660 m 1,0,-1
 653 0 l 1,1,-1
 495 0 l 1,2,-1
 264 388 l 1,3,-1
 207 499 l 1,4,-1
 206 499 l 1,5,-1
 210 382 l 1,6,-1
 210 0 l 1,7,-1
 86 0 l 1,8,-1
 86 660 l 1,9,-1
 243 660 l 1,10,-1
 474 273 l 1,11,-1
 531 161 l 1,12,-1
 533 161 l 1,13,-1
 529 278 l 1,14,-1
 529 660 l 1,15,-1
 653 660 l 1,0,-1
EndSplineSet
Substitution2: "Single Substitution lookup 57 subtable" N.swsh
Substitution2: "'swsh' Swash lookup 36 subtable" N.swsh
Substitution2: "'c2sc' Capitals to Small Capitals lookup 11 subtable" n.sc
AlternateSubs2: "'aalt' Access All Alternates lookup 1 subtable" n.sc N.swsh
EndChar

StartChar: O
Encoding: 79 79 50
Width: 741
GlyphClass: 2
Flags: W
LayerCount: 2
Fore
SplineSet
371 670 m 128,-1,1
 518 670 518 670 603 579.5 c 128,-1,2
 688 489 688 489 688 330 c 128,-1,3
 688 171 688 171 603 80.5 c 128,-1,4
 518 -10 518 -10 371 -10 c 128,-1,5
 224 -10 224 -10 138.5 80.5 c 128,-1,6
 53 171 53 171 53 330 c 128,-1,7
 53 489 53 489 138.5 579.5 c 128,-1,0
 224 670 224 670 371 670 c 128,-1,1
371 557 m 0,8,9
 287 557 287 557 241.5 498.5 c 128,-1,10
 196 440 196 440 196 330 c 128,-1,11
 196 220 196 220 241.5 161.5 c 128,-1,12
 287 103 287 103 371 103 c 0,13,14
 454 103 454 103 499.5 161.5 c 128,-1,15
 545 220 545 220 545 330 c 128,-1,16
 545 440 545 440 499.5 498.5 c 128,-1,17
 454 557 454 557 371 557 c 0,8,9
EndSplineSet
Substitution2: "Single Substitution lookup 55 subtable" ordmasculine
Substitution2: "'nalt' Alternate Annotation Forms lookup 23 subtable" indexring
Substitution2: "'sups' Superscript lookup 15 subtable" Osuperior
Substitution2: "'subs' Subscript lookup 14 subtable" Oinferior
Substitution2: "'sinf' Scientific Inferiors lookup 13 subtable" Oinferior
Substitution2: "'c2sc' Capitals to Small Capitals lookup 11 subtable" o.sc
AlternateSubs2: "'aalt' Access All Alternates lookup 1 subtable" o.sc Oinferior Osuperior ordmasculine indexring
EndChar

StartChar: P
Encoding: 80 80 51
Width: 646
GlyphClass: 2
Flags: W
LayerCount: 2
Fore
SplineSet
363 660 m 2,0,1
 478 660 478 660 542 604.5 c 128,-1,2
 606 549 606 549 606 448 c 0,3,4
 606 350 606 350 542 295 c 128,-1,5
 478 240 478 240 363 240 c 2,6,-1
 224 240 l 1,7,-1
 224 0 l 1,8,-1
 86 0 l 1,9,-1
 86 660 l 1,10,-1
 363 660 l 2,0,1
342 347 m 2,11,12
 466 347 466 347 466 449 c 0,13,14
 466 550 466 550 342 550 c 2,15,-1
 224 550 l 1,16,-1
 224 347 l 1,17,-1
 342 347 l 2,11,12
EndSplineSet
Substitution2: "'c2sc' Capitals to Small Capitals lookup 11 subtable" p.sc
Substitution2: "'aalt' Access All Alternates lookup 0 subtable" p.sc
EndChar

StartChar: Q
Encoding: 81 81 52
Width: 741
GlyphClass: 2
Flags: W
LayerCount: 2
Fore
SplineSet
528 -86 m 0,0,1
 608 -86 608 -86 649 -48 c 1,2,-1
 685 -154 l 1,3,4
 630 -201 630 -201 523 -201 c 0,5,6
 427 -201 427 -201 373 -151.5 c 128,-1,7
 319 -102 319 -102 321 -7 c 1,8,9
 195 8 195 8 124 97 c 128,-1,10
 53 186 53 186 53 330 c 0,11,12
 53 489 53 489 138.5 579.5 c 128,-1,13
 224 670 224 670 371 670 c 128,-1,14
 518 670 518 670 603 579.5 c 128,-1,15
 688 489 688 489 688 330 c 0,16,17
 688 185 688 185 616 96 c 128,-1,18
 544 7 544 7 417 -7 c 1,19,20
 422 -52 422 -52 450 -69 c 128,-1,21
 478 -86 478 -86 528 -86 c 0,0,1
196 330 m 128,-1,23
 196 220 196 220 241.5 161.5 c 128,-1,24
 287 103 287 103 371 103 c 0,25,26
 454 103 454 103 499.5 161.5 c 128,-1,27
 545 220 545 220 545 330 c 128,-1,28
 545 440 545 440 499.5 498.5 c 128,-1,29
 454 557 454 557 371 557 c 0,30,31
 287 557 287 557 241.5 498.5 c 128,-1,22
 196 440 196 440 196 330 c 128,-1,23
EndSplineSet
Substitution2: "'c2sc' Capitals to Small Capitals lookup 11 subtable" q.sc
Substitution2: "'aalt' Access All Alternates lookup 0 subtable" q.sc
EndChar

StartChar: R
Encoding: 82 82 53
Width: 674
GlyphClass: 2
Flags: W
AnchorPoint: "Anchor-0" 364 0 basechar 0
LayerCount: 2
Fore
SplineSet
86 0 m 1,0,-1
 86 660 l 1,1,-1
 377 660 l 2,2,3
 490 660 490 660 553.5 607 c 128,-1,4
 617 554 617 554 617 460 c 0,5,6
 617 328 617 328 484 292 c 1,7,-1
 484 290 l 1,8,9
 584 269 584 269 592 168 c 0,10,11
 603 45 603 45 627 4 c 1,12,-1
 627 0 l 1,13,-1
 481 0 l 1,14,15
 468 31 468 31 456 155 c 0,16,17
 451 206 451 206 420.5 229.5 c 128,-1,18
 390 253 390 253 329 253 c 2,19,-1
 222 253 l 1,20,-1
 222 0 l 1,21,-1
 86 0 l 1,0,-1
222 358 m 1,22,-1
 359 358 l 2,23,24
 419 358 419 358 447.5 381.5 c 128,-1,25
 476 405 476 405 476 454 c 128,-1,26
 476 503 476 503 447.5 526.5 c 128,-1,27
 419 550 419 550 359 550 c 2,28,-1
 222 550 l 1,29,-1
 222 358 l 1,22,-1
EndSplineSet
Substitution2: "Single Substitution lookup 57 subtable" R.swsh.001
Substitution2: "Single Substitution lookup 56 subtable" R.swsh
Substitution2: "'ss03' Style Set 3 lookup 49 subtable" R.ss03
Substitution2: "'salt' Stylistic Alternatives lookup 42 subtable" R.ss03
AlternateSubs2: "'swsh' Swash lookup 37 subtable" R.swsh R.swsh.001
Substitution2: "'c2sc' Capitals to Small Capitals lookup 11 subtable" r.sc
AlternateSubs2: "'aalt' Access All Alternates lookup 1 subtable" r.sc R.swsh R.swsh.001 R.ss03
EndChar

StartChar: S
Encoding: 83 83 54
Width: 643
GlyphClass: 2
Flags: W
AnchorPoint: "Anchor-0" 351 0 basechar 0
LayerCount: 2
Fore
SplineSet
327 670 m 0,0,1
 419 670 419 670 485 639.5 c 128,-1,2
 551 609 551 609 601 543 c 1,3,-1
 506 450 l 1,4,5
 455 556 455 556 328 556 c 0,6,7
 268 556 268 556 235.5 534 c 128,-1,8
 203 512 203 512 203 475 c 0,9,10
 203 441 203 441 236 421 c 128,-1,11
 269 401 269 401 355 386 c 0,12,13
 488 361 488 361 544 316 c 128,-1,14
 600 271 600 271 600 188 c 0,15,16
 600 97 600 97 525 43.5 c 128,-1,17
 450 -10 450 -10 329 -10 c 0,18,19
 220 -10 220 -10 150.5 20.5 c 128,-1,20
 81 51 81 51 38 113 c 1,21,-1
 120 211 l 1,22,23
 157 149 157 149 205 125.5 c 128,-1,24
 253 102 253 102 324 102 c 0,25,26
 455 102 455 102 455 180 c 0,27,28
 455 207 455 207 423.5 225 c 128,-1,29
 392 243 392 243 311 259 c 0,30,31
 173 287 173 287 115 333 c 128,-1,32
 57 379 57 379 57 462 c 0,33,34
 57 552 57 552 129.5 611 c 128,-1,35
 202 670 202 670 327 670 c 0,0,1
EndSplineSet
Substitution2: "Single Substitution lookup 57 subtable" S.swsh
Substitution2: "Single Substitution lookup 56 subtable" S.swsh
Substitution2: "'swsh' Swash lookup 38 subtable" S.swsh
Substitution2: "'c2sc' Capitals to Small Capitals lookup 11 subtable" s.sc
AlternateSubs2: "'aalt' Access All Alternates lookup 1 subtable" s.sc S.swsh
EndChar

StartChar: T
Encoding: 84 84 55
Width: 635
GlyphClass: 2
Flags: W
AnchorPoint: "Anchor-0" 321 0 basechar 0
LayerCount: 2
Fore
SplineSet
608 660 m 1,0,-1
 608 549 l 1,1,-1
 387 549 l 1,2,-1
 387 0 l 1,3,-1
 249 0 l 1,4,-1
 249 549 l 1,5,-1
 27 549 l 1,6,-1
 27 660 l 1,7,-1
 608 660 l 1,0,-1
EndSplineSet
Substitution2: "Single Substitution lookup 56 subtable" T.swsh
Substitution2: "'swsh' Swash lookup 38 subtable" T.swsh
Substitution2: "'c2sc' Capitals to Small Capitals lookup 11 subtable" t.sc
AlternateSubs2: "'aalt' Access All Alternates lookup 1 subtable" t.sc T.swsh
EndChar

StartChar: U
Encoding: 85 85 56
Width: 715
GlyphClass: 2
Flags: W
LayerCount: 2
Fore
SplineSet
640 660 m 1,0,-1
 640 260 l 2,1,2
 640 126 640 126 568.5 58 c 128,-1,3
 497 -10 497 -10 358 -10 c 128,-1,4
 219 -10 219 -10 147.5 58 c 128,-1,5
 76 126 76 126 76 260 c 2,6,-1
 76 660 l 1,7,-1
 214 660 l 1,8,-1
 214 266 l 2,9,10
 214 103 214 103 358 103 c 0,11,12
 431 103 431 103 466 143 c 128,-1,13
 501 183 501 183 501 266 c 2,14,-1
 501 660 l 1,15,-1
 640 660 l 1,0,-1
EndSplineSet
Substitution2: "'c2sc' Capitals to Small Capitals lookup 11 subtable" u.sc
Substitution2: "'aalt' Access All Alternates lookup 0 subtable" u.sc
EndChar

StartChar: V
Encoding: 86 86 57
Width: 670
GlyphClass: 2
Flags: W
LayerCount: 2
Fore
SplineSet
656 660 m 1,0,-1
 416 0 l 1,1,-1
 255 0 l 1,2,-1
 14 660 l 1,3,-1
 160 660 l 1,4,-1
 299 240 l 1,5,-1
 337 110 l 1,6,-1
 374 239 l 1,7,-1
 514 660 l 1,8,-1
 656 660 l 1,0,-1
EndSplineSet
Substitution2: "'c2sc' Capitals to Small Capitals lookup 11 subtable" v.sc
Substitution2: "'aalt' Access All Alternates lookup 0 subtable" v.sc
EndChar

StartChar: W
Encoding: 87 87 58
Width: 984
GlyphClass: 2
Flags: W
LayerCount: 2
Fore
SplineSet
461 360 m 1,0,-1
 370 0 l 1,1,-1
 211 0 l 1,2,-1
 19 660 l 1,3,-1
 168 660 l 1,4,-1
 296 109 l 1,5,-1
 428 660 l 1,6,-1
 560 660 l 1,7,-1
 694 109 l 1,8,-1
 822 660 l 1,9,-1
 964 660 l 1,10,-1
 772 0 l 1,11,-1
 617 0 l 1,12,-1
 525 360 l 1,13,-1
 494 516 l 1,14,-1
 492 516 l 1,15,-1
 461 360 l 1,0,-1
EndSplineSet
Substitution2: "Single Substitution lookup 56 subtable" W.swsh
Substitution2: "'swsh' Swash lookup 38 subtable" W.swsh
Substitution2: "'c2sc' Capitals to Small Capitals lookup 11 subtable" w.sc
AlternateSubs2: "'aalt' Access All Alternates lookup 1 subtable" w.sc W.swsh
EndChar

StartChar: X
Encoding: 88 88 59
Width: 640
GlyphClass: 2
Flags: W
LayerCount: 2
Fore
SplineSet
624 0 m 1,0,-1
 459 0 l 1,1,-1
 315 239 l 1,2,-1
 174 0 l 1,3,-1
 16 0 l 1,4,-1
 243 333 l 1,5,-1
 32 660 l 1,6,-1
 195 660 l 1,7,-1
 329 430 l 1,8,-1
 463 660 l 1,9,-1
 612 660 l 1,10,-1
 400 338 l 1,11,-1
 624 0 l 1,0,-1
EndSplineSet
Substitution2: "'c2sc' Capitals to Small Capitals lookup 11 subtable" x.sc
Substitution2: "'aalt' Access All Alternates lookup 0 subtable" x.sc
EndChar

StartChar: Y
Encoding: 89 89 60
Width: 626
GlyphClass: 2
Flags: W
LayerCount: 2
Fore
SplineSet
616 660 m 1,0,-1
 382 247 l 1,1,-1
 382 0 l 1,2,-1
 244 0 l 1,3,-1
 244 247 l 1,4,-1
 10 660 l 1,5,-1
 157 660 l 1,6,-1
 263 463 l 1,7,-1
 313 359 l 1,8,-1
 364 463 l 1,9,-1
 470 660 l 1,10,-1
 616 660 l 1,0,-1
EndSplineSet
Substitution2: "'c2sc' Capitals to Small Capitals lookup 11 subtable" y.sc
Substitution2: "'aalt' Access All Alternates lookup 0 subtable" y.sc
EndChar

StartChar: Z
Encoding: 90 90 61
Width: 633
GlyphClass: 2
Flags: W
LayerCount: 2
Fore
SplineSet
196 110 m 1,0,-1
 593 110 l 1,1,-1
 593 0 l 1,2,-1
 44 0 l 1,3,-1
 44 104 l 1,4,-1
 429 550 l 1,5,-1
 52 550 l 1,6,-1
 52 660 l 1,7,-1
 581 660 l 1,8,-1
 581 556 l 1,9,-1
 196 110 l 1,0,-1
EndSplineSet
Substitution2: "'c2sc' Capitals to Small Capitals lookup 11 subtable" z.sc
Substitution2: "'aalt' Access All Alternates lookup 0 subtable" z.sc
EndChar

StartChar: bracketleft
Encoding: 91 91 62
Width: 375
GlyphClass: 2
Flags: W
LayerCount: 2
Fore
SplineSet
347 618 m 1,0,-1
 206 618 l 1,1,-1
 206 -67 l 1,2,-1
 347 -67 l 1,3,-1
 347 -168 l 1,4,-1
 86 -168 l 1,5,-1
 86 719 l 1,6,-1
 347 719 l 1,7,-1
 347 618 l 1,0,-1
EndSplineSet
Substitution2: "'case' Case-Sensitive Forms lookup 29 subtable" bracketleft.case
Substitution2: "'sups' Superscript lookup 15 subtable" bracketleftsuperior
Substitution2: "'subs' Subscript lookup 14 subtable" bracketleftinferior
Substitution2: "'sinf' Scientific Inferiors lookup 13 subtable" bracketleftinferior
AlternateSubs2: "'aalt' Access All Alternates lookup 1 subtable" bracketleftinferior bracketleftsuperior bracketleft.case
EndChar

StartChar: backslash
Encoding: 92 92 63
Width: 457
GlyphClass: 2
Flags: W
LayerCount: 2
Fore
SplineSet
20 719 m 1,0,-1
 148 719 l 1,1,-1
 437 -70 l 1,2,-1
 310 -70 l 1,3,-1
 20 719 l 1,0,-1
EndSplineSet
EndChar

StartChar: bracketright
Encoding: 93 93 64
Width: 375
GlyphClass: 2
Flags: W
LayerCount: 2
Fore
SplineSet
290 719 m 1,0,-1
 290 -168 l 1,1,-1
 28 -168 l 1,2,-1
 28 -67 l 1,3,-1
 169 -67 l 1,4,-1
 169 618 l 1,5,-1
 28 618 l 1,6,-1
 28 719 l 1,7,-1
 290 719 l 1,0,-1
EndSplineSet
Substitution2: "'case' Case-Sensitive Forms lookup 29 subtable" bracketright.case
Substitution2: "'sups' Superscript lookup 15 subtable" bracketrightsuperior
Substitution2: "'subs' Subscript lookup 14 subtable" bracketrightinferior
Substitution2: "'sinf' Scientific Inferiors lookup 13 subtable" bracketrightinferior
AlternateSubs2: "'aalt' Access All Alternates lookup 1 subtable" bracketrightinferior bracketrightsuperior bracketright.case
EndChar

StartChar: asciicircum
Encoding: 94 94 65
Width: 593
GlyphClass: 2
Flags: W
LayerCount: 2
Fore
SplineSet
568 355 m 1,0,-1
 443 355 l 1,1,-1
 297 633 l 1,2,-1
 150 355 l 1,3,-1
 25 355 l 1,4,-1
 237 726 l 1,5,-1
 356 726 l 1,6,-1
 568 355 l 1,0,-1
EndSplineSet
EndChar

StartChar: underscore
Encoding: 95 95 66
Width: 539
GlyphClass: 2
Flags: W
LayerCount: 2
Fore
SplineSet
539 -77 m 1,0,-1
 539 -190 l 1,1,-1
 0 -190 l 1,2,-1
 0 -77 l 1,3,-1
 539 -77 l 1,0,-1
EndSplineSet
EndChar

StartChar: grave
Encoding: 96 96 67
Width: 500
GlyphClass: 2
Flags: W
LayerCount: 2
Fore
SplineSet
238 742 m 1,0,-1
 308 572 l 1,1,-1
 206 572 l 1,2,-1
 106 742 l 1,3,-1
 238 742 l 1,0,-1
EndSplineSet
EndChar

StartChar: a
Encoding: 97 97 68
Width: 574
GlyphClass: 2
Flags: W
LayerCount: 2
Fore
SplineSet
529 83 m 0,0,1
 550 83 550 83 563 87 c 1,2,-1
 553 4 l 1,3,4
 525 -10 525 -10 488 -10 c 0,5,6
 392 -10 392 -10 373 65 c 1,7,8
 327 -10 327 -10 196 -10 c 0,9,10
 123 -10 123 -10 82 23 c 128,-1,11
 41 56 41 56 41 118 c 0,12,13
 41 240 41 240 236 276 c 2,14,-1
 356 299 l 1,15,-1
 356 323 l 2,16,17
 356 363 356 363 333.5 386.5 c 128,-1,18
 311 410 311 410 271 410 c 0,19,20
 176 410 176 410 156 325 c 1,21,-1
 47 371 l 1,22,23
 63 436 63 436 119 473 c 128,-1,24
 175 510 175 510 265 510 c 0,25,26
 372 510 372 510 432 463.5 c 128,-1,27
 492 417 492 417 492 326 c 2,28,-1
 492 121 l 2,29,30
 492 83 492 83 529 83 c 0,0,1
239 83 m 0,31,32
 283 83 283 83 319.5 104.5 c 128,-1,33
 356 126 356 126 356 163 c 2,34,-1
 356 215 l 1,35,-1
 249 191 l 2,36,37
 182 176 182 176 182 132 c 0,38,39
 182 83 182 83 239 83 c 0,31,32
EndSplineSet
Substitution2: "Single Substitution lookup 55 subtable" ordfeminine
Substitution2: "'smcp' Lowercase to Small Capitals lookup 12 subtable" a.sc
AlternateSubs2: "'aalt' Access All Alternates lookup 1 subtable" a.sc ordfeminine
EndChar

StartChar: b
Encoding: 98 98 69
Width: 629
GlyphClass: 2
Flags: W
LayerCount: 2
Fore
SplineSet
366 510 m 0,0,1
 466 510 466 510 523 441 c 128,-1,2
 580 372 580 372 580 249 c 0,3,4
 580 127 580 127 523 58.5 c 128,-1,5
 466 -10 466 -10 366 -10 c 0,6,7
 307 -10 307 -10 263.5 19.5 c 128,-1,8
 220 49 220 49 198 99 c 1,9,-1
 193 0 l 1,10,-1
 72 0 l 1,11,-1
 72 719 l 1,12,-1
 209 719 l 1,13,-1
 209 418 l 1,14,15
 258 510 258 510 366 510 c 0,0,1
325 95 m 0,16,17
 381 95 381 95 412 135 c 128,-1,18
 443 175 443 175 443 250 c 128,-1,19
 443 325 443 325 412 365 c 128,-1,20
 381 405 381 405 325 405 c 0,21,22
 275 405 275 405 244 370 c 128,-1,23
 213 335 213 335 209 272 c 1,24,-1
 209 228 l 1,25,26
 213 164 213 164 244 129.5 c 128,-1,27
 275 95 275 95 325 95 c 0,16,17
EndSplineSet
Substitution2: "'smcp' Lowercase to Small Capitals lookup 12 subtable" b.sc
Substitution2: "'aalt' Access All Alternates lookup 0 subtable" b.sc
EndChar

StartChar: c
Encoding: 99 99 70
Width: 569
GlyphClass: 2
Flags: W
LayerCount: 2
Fore
SplineSet
301 510 m 0,0,1
 487 510 487 510 530 363 c 1,2,-1
 402 317 l 1,3,4
 384 408 384 408 305 408 c 0,5,6
 246 408 246 408 214.5 367.5 c 128,-1,7
 183 327 183 327 183 249 c 128,-1,8
 183 171 183 171 215 131.5 c 128,-1,9
 247 92 247 92 304 92 c 0,10,11
 392 92 392 92 408 181 c 1,12,-1
 532 141 l 1,13,14
 516 72 516 72 457.5 31 c 128,-1,15
 399 -10 399 -10 306 -10 c 0,16,17
 182 -10 182 -10 114 58.5 c 128,-1,18
 46 127 46 127 46 250 c 128,-1,19
 46 373 46 373 113.5 441.5 c 128,-1,20
 181 510 181 510 301 510 c 0,0,1
EndSplineSet
Substitution2: "'smcp' Lowercase to Small Capitals lookup 12 subtable" c.sc
Substitution2: "'aalt' Access All Alternates lookup 0 subtable" c.sc
EndChar

StartChar: d
Encoding: 100 100 71
Width: 629
GlyphClass: 2
Flags: W
LayerCount: 2
Fore
SplineSet
419 719 m 1,0,-1
 556 719 l 1,1,-1
 556 0 l 1,2,-1
 434 0 l 1,3,-1
 428 93 l 1,4,5
 406 46 406 46 362.5 18 c 128,-1,6
 319 -10 319 -10 263 -10 c 0,7,8
 163 -10 163 -10 106 58.5 c 128,-1,9
 49 127 49 127 49 249 c 0,10,11
 49 372 49 372 106 441 c 128,-1,12
 163 510 163 510 263 510 c 0,13,14
 373 510 373 510 419 418 c 1,15,-1
 419 719 l 1,0,-1
303 95 m 0,16,17
 357 95 357 95 388 134 c 128,-1,18
 419 173 419 173 419 245 c 2,19,-1
 419 255 l 2,20,21
 419 326 419 326 388 365.5 c 128,-1,22
 357 405 357 405 303 405 c 0,23,24
 248 405 248 405 217 365 c 128,-1,25
 186 325 186 325 186 250 c 128,-1,26
 186 175 186 175 217 135 c 128,-1,27
 248 95 248 95 303 95 c 0,16,17
EndSplineSet
Substitution2: "'smcp' Lowercase to Small Capitals lookup 12 subtable" d.sc
Substitution2: "'aalt' Access All Alternates lookup 0 subtable" d.sc
EndChar

StartChar: e
Encoding: 101 101 72
Width: 582
GlyphClass: 2
Flags: W
AnchorPoint: "Anchor-0" 300 0 basechar 0
LayerCount: 2
Fore
SplineSet
539 252 m 0,0,1
 539 224 539 224 535 198 c 1,2,-1
 181 198 l 1,3,4
 202 92 202 92 306 92 c 0,5,6
 394 92 394 92 416 154 c 1,7,-1
 528 113 l 1,8,9
 479 -10 479 -10 306 -10 c 0,10,11
 182 -10 182 -10 114 58.5 c 128,-1,12
 46 127 46 127 46 250 c 128,-1,13
 46 373 46 373 112 441.5 c 128,-1,14
 178 510 178 510 298 510 c 0,15,16
 414 510 414 510 476.5 443 c 128,-1,17
 539 376 539 376 539 252 c 0,0,1
297 409 m 0,18,19
 197 409 197 409 180 294 c 1,20,-1
 413 294 l 1,21,22
 405 350 405 350 375 379.5 c 128,-1,23
 345 409 345 409 297 409 c 0,18,19
EndSplineSet
Substitution2: "'smcp' Lowercase to Small Capitals lookup 12 subtable" e.sc
Substitution2: "'aalt' Access All Alternates lookup 0 subtable" e.sc
EndChar

StartChar: f
Encoding: 102 102 73
Width: 407
GlyphClass: 2
Flags: W
LayerCount: 2
Fore
SplineSet
239 550 m 2,0,-1
 239 500 l 1,1,-1
 397 500 l 1,2,-1
 397 398 l 1,3,-1
 245 398 l 1,4,-1
 245 0 l 1,5,-1
 108 0 l 1,6,-1
 108 398 l 1,7,-1
 21 398 l 1,8,-1
 21 500 l 1,9,-1
 108 500 l 1,10,-1
 108 560 l 2,11,12
 108 642 108 642 159 685.5 c 128,-1,13
 210 729 210 729 297 729 c 0,14,15
 367 729 367 729 401 703 c 1,16,-1
 382 612 l 1,17,18
 359 627 359 627 325 627 c 0,19,20
 239 627 239 627 239 550 c 2,0,-1
EndSplineSet
Substitution2: "'smcp' Lowercase to Small Capitals lookup 12 subtable" f.sc
Substitution2: "'aalt' Access All Alternates lookup 0 subtable" f.sc
EndChar

StartChar: g
Encoding: 103 103 74
Width: 629
GlyphClass: 2
Flags: W
LayerCount: 2
Fore
SplineSet
436 500 m 1,0,-1
 556 500 l 1,1,-1
 556 40 l 2,2,3
 556 -215 556 -215 286 -215 c 0,4,5
 87 -215 87 -215 63 -78 c 1,6,-1
 194 -38 l 1,7,8
 204 -121 204 -121 301 -121 c 0,9,10
 354 -121 354 -121 386.5 -86.5 c 128,-1,11
 419 -52 419 -52 419 7 c 2,12,-1
 419 86 l 1,13,14
 367 9 367 9 262 9 c 0,15,16
 162 9 162 9 105 75 c 128,-1,17
 48 141 48 141 48 258 c 0,18,19
 48 377 48 377 105 443.5 c 128,-1,20
 162 510 162 510 262 510 c 0,21,22
 322 510 322 510 365 483 c 128,-1,23
 408 456 408 456 429 409 c 1,24,-1
 436 500 l 1,0,-1
303 113 m 0,25,26
 356 113 356 113 387.5 150 c 128,-1,27
 419 187 419 187 419 254 c 2,28,-1
 419 264 l 2,29,30
 419 330 419 330 388 367.5 c 128,-1,31
 357 405 357 405 303 405 c 0,32,33
 248 405 248 405 217 367.5 c 128,-1,34
 186 330 186 330 186 259 c 128,-1,35
 186 188 186 188 217 150.5 c 128,-1,36
 248 113 248 113 303 113 c 0,25,26
EndSplineSet
Substitution2: "'ss01' Style Set 1 lookup 47 subtable" g.ss01
Substitution2: "'salt' Stylistic Alternatives lookup 42 subtable" g.ss01
Substitution2: "'smcp' Lowercase to Small Capitals lookup 12 subtable" g.sc
AlternateSubs2: "'aalt' Access All Alternates lookup 1 subtable" g.sc g.ss01
EndChar

StartChar: h
Encoding: 104 104 75
Width: 619
GlyphClass: 2
Flags: W
LayerCount: 2
Fore
SplineSet
370 510 m 0,0,1
 451 510 451 510 500.5 463 c 128,-1,2
 550 416 550 416 550 328 c 2,3,-1
 550 0 l 1,4,-1
 413 0 l 1,5,-1
 413 288 l 2,6,7
 413 402 413 402 324 402 c 0,8,9
 276 402 276 402 242.5 368 c 128,-1,10
 209 334 209 334 209 264 c 2,11,-1
 209 0 l 1,12,-1
 72 0 l 1,13,-1
 72 719 l 1,14,-1
 209 719 l 1,15,-1
 209 415 l 1,16,17
 256 510 256 510 370 510 c 0,0,1
EndSplineSet
Substitution2: "'smcp' Lowercase to Small Capitals lookup 12 subtable" h.sc
Substitution2: "'aalt' Access All Alternates lookup 0 subtable" h.sc
EndChar

StartChar: i
Encoding: 105 105 76
Width: 282
GlyphClass: 2
Flags: W
LayerCount: 2
Fore
SplineSet
141 572 m 128,-1,1
 56 572 56 572 56 645 c 0,2,3
 56 719 56 719 141 719 c 128,-1,4
 226 719 226 719 226 645 c 0,5,0
 226 572 226 572 141 572 c 128,-1,1
209 500 m 1,6,-1
 209 0 l 1,7,-1
 72 0 l 1,8,-1
 72 500 l 1,9,-1
 209 500 l 1,6,-1
EndSplineSet
Substitution2: "'smcp' Lowercase to Small Capitals lookup 12 subtable" i.sc
Substitution2: "'locl' Localized Forms in Latin lookup 6 subtable" i.loclTRK
Substitution2: "'locl' Localized Forms in Latin lookup 5 subtable" i.loclTRK
Substitution2: "'locl' Localized Forms in Latin lookup 4 subtable" i.loclTRK
Substitution2: "'locl' Localized Forms in Latin lookup 3 subtable" i.loclTRK
Substitution2: "'locl' Localized Forms in Latin lookup 2 subtable" i.loclTRK
Substitution2: "'aalt' Access All Alternates lookup 0 subtable" i.sc
EndChar

StartChar: j
Encoding: 106 106 77
Width: 281
GlyphClass: 2
Flags: W
LayerCount: 2
Fore
SplineSet
141 719 m 128,-1,1
 182 719 182 719 204 699.5 c 128,-1,2
 226 680 226 680 226 645 c 0,3,4
 226 572 226 572 141 572 c 128,-1,5
 56 572 56 572 56 645 c 0,6,7
 56 680 56 680 78 699.5 c 128,-1,0
 100 719 100 719 141 719 c 128,-1,1
209 500 m 1,8,-1
 209 -37 l 2,9,10
 209 -130 209 -130 161 -172.5 c 128,-1,11
 113 -215 113 -215 31 -215 c 0,12,13
 -41 -215 -41 -215 -89 -183 c 1,14,-1
 -67 -85 l 1,15,16
 -40 -109 -40 -109 3 -109 c 0,17,18
 72 -109 72 -109 72 -24 c 2,19,-1
 72 500 l 1,20,-1
 209 500 l 1,8,-1
EndSplineSet
Substitution2: "'smcp' Lowercase to Small Capitals lookup 12 subtable" j.sc
Substitution2: "'aalt' Access All Alternates lookup 0 subtable" j.sc
EndChar

StartChar: k
Encoding: 107 107 78
Width: 602
GlyphClass: 2
Flags: W
AnchorPoint: "Anchor-0" 323 0 basechar 0
LayerCount: 2
Fore
SplineSet
438 0 m 1,0,-1
 300 221 l 1,1,-1
 209 124 l 1,2,-1
 209 0 l 1,3,-1
 72 0 l 1,4,-1
 72 719 l 1,5,-1
 209 719 l 1,6,-1
 209 272 l 1,7,-1
 426 500 l 1,8,-1
 581 500 l 1,9,-1
 393 304 l 1,10,-1
 593 0 l 1,11,-1
 438 0 l 1,0,-1
EndSplineSet
Substitution2: "'smcp' Lowercase to Small Capitals lookup 12 subtable" k.sc
Substitution2: "'aalt' Access All Alternates lookup 0 subtable" k.sc
EndChar

StartChar: l
Encoding: 108 108 79
Width: 319
GlyphClass: 2
Flags: W
AnchorPoint: "Anchor-0" 199 0 basechar 0
LayerCount: 2
Fore
SplineSet
207 719 m 1,0,-1
 207 159 l 2,1,2
 207 123 207 123 217.5 109 c 128,-1,3
 228 95 228 95 256 95 c 0,4,5
 285 95 285 95 315 106 c 1,6,-1
 303 11 l 1,7,8
 267 -10 267 -10 210 -10 c 0,9,10
 137 -10 137 -10 103.5 25.5 c 128,-1,11
 70 61 70 61 70 139 c 2,12,-1
 70 719 l 1,13,-1
 207 719 l 1,0,-1
EndSplineSet
Substitution2: "'ss02' Style Set 2 lookup 48 subtable" l.ss02
Substitution2: "'salt' Stylistic Alternatives lookup 42 subtable" l.ss02
Substitution2: "'smcp' Lowercase to Small Capitals lookup 12 subtable" l.sc
AlternateSubs2: "'aalt' Access All Alternates lookup 1 subtable" l.sc l.ss02
Position2: "Single Positioning lookup 6 subtable" dx=0 dy=0 dh=-40 dv=0
EndChar

StartChar: m
Encoding: 109 109 80
Width: 945
GlyphClass: 2
Flags: W
LayerCount: 2
Fore
SplineSet
698 510 m 0,0,1
 775 510 775 510 825.5 463 c 128,-1,2
 876 416 876 416 876 328 c 2,3,-1
 876 0 l 1,4,-1
 739 0 l 1,5,-1
 739 301 l 2,6,7
 739 402 739 402 653 402 c 0,8,9
 605 402 605 402 574 367 c 128,-1,10
 543 332 543 332 543 269 c 2,11,-1
 543 0 l 1,12,-1
 406 0 l 1,13,-1
 406 301 l 2,14,15
 406 402 406 402 319 402 c 0,16,17
 274 402 274 402 241.5 367.5 c 128,-1,18
 209 333 209 333 209 265 c 2,19,-1
 209 0 l 1,20,-1
 72 0 l 1,21,-1
 72 500 l 1,22,-1
 195 500 l 1,23,-1
 199 411 l 1,24,25
 250 510 250 510 365 510 c 0,26,27
 421 510 421 510 464.5 484 c 128,-1,28
 508 458 508 458 528 409 c 1,29,30
 552 458 552 458 598 484 c 128,-1,31
 644 510 644 510 698 510 c 0,0,1
EndSplineSet
Substitution2: "'smcp' Lowercase to Small Capitals lookup 12 subtable" m.sc
Substitution2: "'aalt' Access All Alternates lookup 0 subtable" m.sc
EndChar

StartChar: n
Encoding: 110 110 81
Width: 619
GlyphClass: 2
Flags: W
AnchorPoint: "Anchor-0" 327 0 basechar 0
LayerCount: 2
Fore
SplineSet
370 510 m 0,0,1
 451 510 451 510 500.5 463 c 128,-1,2
 550 416 550 416 550 328 c 2,3,-1
 550 0 l 1,4,-1
 413 0 l 1,5,-1
 413 288 l 2,6,7
 413 402 413 402 324 402 c 0,8,9
 276 402 276 402 242.5 368 c 128,-1,10
 209 334 209 334 209 264 c 2,11,-1
 209 0 l 1,12,-1
 72 0 l 1,13,-1
 72 500 l 1,14,-1
 195 500 l 1,15,-1
 199 411 l 1,16,17
 249 510 249 510 370 510 c 0,0,1
EndSplineSet
Substitution2: "Single Substitution lookup 57 subtable" n.swsh
Substitution2: "'swsh' Swash lookup 38 subtable" n.swsh
Substitution2: "'smcp' Lowercase to Small Capitals lookup 12 subtable" n.sc
AlternateSubs2: "'aalt' Access All Alternates lookup 1 subtable" n.sc n.swsh
EndChar

StartChar: o
Encoding: 111 111 82
Width: 604
GlyphClass: 2
Flags: W
LayerCount: 2
Fore
SplineSet
302 510 m 128,-1,1
 423 510 423 510 490.5 441 c 128,-1,2
 558 372 558 372 558 250 c 128,-1,3
 558 128 558 128 490.5 59 c 128,-1,4
 423 -10 423 -10 302 -10 c 128,-1,5
 181 -10 181 -10 113.5 59 c 128,-1,6
 46 128 46 128 46 250 c 128,-1,7
 46 372 46 372 113.5 441 c 128,-1,0
 181 510 181 510 302 510 c 128,-1,1
302 408 m 128,-1,9
 183 408 183 408 183 250 c 128,-1,10
 183 92 183 92 302 92 c 128,-1,11
 421 92 421 92 421 250 c 128,-1,8
 421 408 421 408 302 408 c 128,-1,9
EndSplineSet
Substitution2: "Single Substitution lookup 55 subtable" ordmasculine
Substitution2: "'smcp' Lowercase to Small Capitals lookup 12 subtable" o.sc
AlternateSubs2: "'aalt' Access All Alternates lookup 1 subtable" o.sc ordmasculine
EndChar

StartChar: p
Encoding: 112 112 83
Width: 629
GlyphClass: 2
Flags: W
LayerCount: 2
Fore
SplineSet
366 510 m 0,0,1
 466 510 466 510 523 441.5 c 128,-1,2
 580 373 580 373 580 251 c 0,3,4
 580 128 580 128 523 59 c 128,-1,5
 466 -10 466 -10 366 -10 c 0,6,7
 258 -10 258 -10 209 82 c 1,8,-1
 209 -210 l 1,9,-1
 72 -210 l 1,10,-1
 72 500 l 1,11,-1
 193 500 l 1,12,-1
 198 401 l 1,13,14
 220 451 220 451 263.5 480.5 c 128,-1,15
 307 510 307 510 366 510 c 0,0,1
325 95 m 0,16,17
 381 95 381 95 412 135 c 128,-1,18
 443 175 443 175 443 250 c 128,-1,19
 443 325 443 325 412 365 c 128,-1,20
 381 405 381 405 325 405 c 0,21,22
 275 405 275 405 244 370.5 c 128,-1,23
 213 336 213 336 209 272 c 1,24,-1
 209 228 l 1,25,26
 213 165 213 165 244 130 c 128,-1,27
 275 95 275 95 325 95 c 0,16,17
EndSplineSet
Substitution2: "'smcp' Lowercase to Small Capitals lookup 12 subtable" p.sc
Substitution2: "'aalt' Access All Alternates lookup 0 subtable" p.sc
EndChar

StartChar: q
Encoding: 113 113 84
Width: 629
GlyphClass: 2
Flags: W
LayerCount: 2
Fore
SplineSet
437 500 m 1,0,-1
 557 500 l 1,1,-1
 557 -210 l 1,2,-1
 420 -210 l 1,3,-1
 420 83 l 1,4,5
 372 -10 372 -10 264 -10 c 0,6,7
 164 -10 164 -10 106.5 59 c 128,-1,8
 49 128 49 128 49 251 c 0,9,10
 49 373 49 373 106 441.5 c 128,-1,11
 163 510 163 510 263 510 c 0,12,13
 322 510 322 510 365.5 480.5 c 128,-1,14
 409 451 409 451 431 402 c 1,15,-1
 437 500 l 1,0,-1
304 95 m 0,16,17
 358 95 358 95 389 134.5 c 128,-1,18
 420 174 420 174 420 245 c 2,19,-1
 420 255 l 2,20,21
 420 327 420 327 389 366 c 128,-1,22
 358 405 358 405 304 405 c 0,23,24
 249 405 249 405 218 365.5 c 128,-1,25
 187 326 187 326 187 250 c 128,-1,26
 187 174 187 174 218 134.5 c 128,-1,27
 249 95 249 95 304 95 c 0,16,17
EndSplineSet
Substitution2: "'smcp' Lowercase to Small Capitals lookup 12 subtable" q.sc
Substitution2: "'aalt' Access All Alternates lookup 0 subtable" q.sc
EndChar

StartChar: r
Encoding: 114 114 85
Width: 422
GlyphClass: 2
Flags: W
AnchorPoint: "Anchor-0" 149 0 basechar 0
LayerCount: 2
Fore
SplineSet
355 510 m 0,0,1
 390 510 390 510 409 499 c 1,2,-1
 392 379 l 1,3,4
 369 394 369 394 329 394 c 0,5,6
 280 394 280 394 244.5 358.5 c 128,-1,7
 209 323 209 323 209 259 c 2,8,-1
 209 0 l 1,9,-1
 72 0 l 1,10,-1
 72 500 l 1,11,-1
 191 500 l 1,12,-1
 200 402 l 1,13,14
 241 510 241 510 355 510 c 0,0,1
EndSplineSet
Substitution2: "Single Substitution lookup 57 subtable" r.swsh
Substitution2: "'swsh' Swash lookup 38 subtable" r.swsh
Substitution2: "'smcp' Lowercase to Small Capitals lookup 12 subtable" r.sc
AlternateSubs2: "'aalt' Access All Alternates lookup 1 subtable" r.sc r.swsh
EndChar

StartChar: s
Encoding: 115 115 86
Width: 531
GlyphClass: 2
Flags: W
AnchorPoint: "Anchor-0" 277 0 basechar 0
LayerCount: 2
Fore
SplineSet
266 -10 m 0,0,1
 99 -10 99 -10 34 86 c 1,2,-1
 114 168 l 1,3,4
 150 90 150 90 264 90 c 0,5,6
 308 90 308 90 332 102 c 128,-1,7
 356 114 356 114 356 135 c 0,8,9
 356 152 356 152 333.5 164 c 128,-1,10
 311 176 311 176 256 187 c 0,11,12
 141 210 141 210 94.5 247.5 c 128,-1,13
 48 285 48 285 48 349 c 0,14,15
 48 414 48 414 108 462 c 128,-1,16
 168 510 168 510 273 510 c 0,17,18
 357 510 357 510 409 484.5 c 128,-1,19
 461 459 461 459 496 404 c 1,20,-1
 406 327 l 1,21,22
 370 410 370 410 275 410 c 0,23,24
 234 410 234 410 209.5 396 c 128,-1,25
 185 382 185 382 185 362 c 0,26,27
 185 341 185 341 209 327 c 128,-1,28
 233 313 233 313 294 301 c 0,29,30
 403 279 403 279 448.5 243.5 c 128,-1,31
 494 208 494 208 494 145 c 0,32,33
 494 75 494 75 434.5 32.5 c 128,-1,34
 375 -10 375 -10 266 -10 c 0,0,1
EndSplineSet
Substitution2: "'hist' Historical Forms lookup 44 subtable" longs
Substitution2: "'smcp' Lowercase to Small Capitals lookup 12 subtable" s.sc
AlternateSubs2: "'aalt' Access All Alternates lookup 1 subtable" s.sc longs
EndChar

StartChar: t
Encoding: 116 116 87
Width: 429
GlyphClass: 2
Flags: W
AnchorPoint: "Anchor-0" 254 0 basechar 0
LayerCount: 2
Fore
SplineSet
394 122 m 1,0,-1
 415 31 l 1,1,2
 365 -10 365 -10 278 -10 c 0,3,4
 111 -10 111 -10 111 141 c 2,5,-1
 111 398 l 1,6,-1
 20 398 l 1,7,-1
 20 500 l 1,8,-1
 111 500 l 1,9,-1
 111 615 l 1,10,-1
 248 653 l 1,11,-1
 248 500 l 1,12,-1
 410 500 l 1,13,-1
 410 398 l 1,14,-1
 248 398 l 1,15,-1
 248 163 l 2,16,17
 248 94 248 94 317 94 c 0,18,19
 361 94 361 94 394 122 c 1,0,-1
EndSplineSet
Substitution2: "Single Substitution lookup 57 subtable" t.swsh
Substitution2: "'swsh' Swash lookup 38 subtable" t.swsh
Substitution2: "'smcp' Lowercase to Small Capitals lookup 12 subtable" t.sc
AlternateSubs2: "'aalt' Access All Alternates lookup 1 subtable" t.sc t.swsh
EndChar

StartChar: u
Encoding: 117 117 88
Width: 619
GlyphClass: 2
Flags: W
LayerCount: 2
Fore
SplineSet
410 500 m 1,0,-1
 547 500 l 1,1,-1
 547 0 l 1,2,-1
 425 0 l 1,3,-1
 420 86 l 1,4,5
 372 -10 372 -10 245 -10 c 0,6,7
 164 -10 164 -10 116.5 33.5 c 128,-1,8
 69 77 69 77 69 169 c 2,9,-1
 69 500 l 1,10,-1
 206 500 l 1,11,-1
 206 204 l 2,12,13
 206 146 206 146 228 122 c 128,-1,14
 250 98 250 98 293 98 c 0,15,16
 345 98 345 98 377.5 131.5 c 128,-1,17
 410 165 410 165 410 232 c 2,18,-1
 410 500 l 1,0,-1
EndSplineSet
Substitution2: "'smcp' Lowercase to Small Capitals lookup 12 subtable" u.sc
Substitution2: "'aalt' Access All Alternates lookup 0 subtable" u.sc
EndChar

StartChar: v
Encoding: 118 118 89
Width: 546
GlyphClass: 2
Flags: W
LayerCount: 2
Fore
SplineSet
400 500 m 1,0,-1
 542 500 l 1,1,-1
 352 0 l 1,2,-1
 194 0 l 1,3,-1
 4 500 l 1,4,-1
 151 500 l 1,5,-1
 274 96 l 1,6,-1
 400 500 l 1,0,-1
EndSplineSet
Substitution2: "'smcp' Lowercase to Small Capitals lookup 12 subtable" v.sc
Substitution2: "'aalt' Access All Alternates lookup 0 subtable" v.sc
EndChar

StartChar: w
Encoding: 119 119 90
Width: 889
GlyphClass: 2
Flags: W
LayerCount: 2
Fore
SplineSet
724 500 m 1,0,-1
 869 500 l 1,1,-1
 710 0 l 1,2,-1
 551 0 l 1,3,-1
 442 353 l 1,4,-1
 337 0 l 1,5,-1
 179 0 l 1,6,-1
 20 500 l 1,7,-1
 165 500 l 1,8,-1
 265 110 l 1,9,-1
 377 500 l 1,10,-1
 512 500 l 1,11,-1
 624 110 l 1,12,-1
 724 500 l 1,0,-1
EndSplineSet
Substitution2: "'smcp' Lowercase to Small Capitals lookup 12 subtable" w.sc
Substitution2: "'aalt' Access All Alternates lookup 0 subtable" w.sc
EndChar

StartChar: x
Encoding: 120 120 91
Width: 569
GlyphClass: 2
Flags: W
LayerCount: 2
Fore
SplineSet
552 0 m 1,0,-1
 395 0 l 1,1,-1
 282 182 l 1,2,-1
 167 0 l 1,3,-1
 14 0 l 1,4,-1
 198 253 l 1,5,-1
 23 500 l 1,6,-1
 181 500 l 1,7,-1
 288 325 l 1,8,-1
 395 500 l 1,9,-1
 549 500 l 1,10,-1
 372 253 l 1,11,-1
 552 0 l 1,0,-1
EndSplineSet
Substitution2: "'smcp' Lowercase to Small Capitals lookup 12 subtable" x.sc
Substitution2: "'aalt' Access All Alternates lookup 0 subtable" x.sc
EndChar

StartChar: y
Encoding: 121 121 92
Width: 557
GlyphClass: 2
Flags: W
LayerCount: 2
Fore
SplineSet
551 500 m 1,0,-1
 349 -31 l 2,1,2
 312 -133 312 -133 263.5 -174 c 128,-1,3
 215 -215 215 -215 134 -215 c 128,-1,4
 53 -215 53 -215 7 -176 c 1,5,-1
 41 -79 l 1,6,7
 68 -110 68 -110 125 -110 c 0,8,9
 156 -110 156 -110 175 -97 c 128,-1,10
 194 -84 194 -84 207 -50 c 2,11,-1
 225 -7 l 1,12,-1
 170 123 l 1,13,-1
 17 500 l 1,14,-1
 169 500 l 1,15,-1
 263 200 l 1,16,-1
 290 100 l 1,17,-1
 320 206 l 1,18,-1
 412 500 l 1,19,-1
 551 500 l 1,0,-1
EndSplineSet
Substitution2: "Single Substitution lookup 57 subtable" y.swsh
Substitution2: "'swsh' Swash lookup 38 subtable" y.swsh
Substitution2: "'smcp' Lowercase to Small Capitals lookup 12 subtable" y.sc
AlternateSubs2: "'aalt' Access All Alternates lookup 1 subtable" y.sc y.swsh
EndChar

StartChar: z
Encoding: 122 122 93
Width: 522
GlyphClass: 2
Flags: W
LayerCount: 2
Fore
SplineSet
44 0 m 1,0,-1
 44 88 l 1,1,-1
 265 344 l 1,2,-1
 322 401 l 1,3,-1
 239 399 l 1,4,-1
 46 399 l 1,5,-1
 46 500 l 1,6,-1
 474 500 l 1,7,-1
 474 412 l 1,8,-1
 253 157 l 1,9,-1
 196 99 l 1,10,-1
 288 101 l 1,11,-1
 483 101 l 1,12,-1
 483 0 l 1,13,-1
 44 0 l 1,0,-1
EndSplineSet
Substitution2: "'smcp' Lowercase to Small Capitals lookup 12 subtable" z.sc
Substitution2: "'aalt' Access All Alternates lookup 0 subtable" z.sc
EndChar

StartChar: braceleft
Encoding: 123 123 94
Width: 395
GlyphClass: 2
Flags: W
LayerCount: 2
Fore
SplineSet
262 -27 m 2,0,1
 262 -65 262 -65 286 -81.5 c 128,-1,2
 310 -98 310 -98 364 -98 c 1,3,-1
 356 -191 l 1,4,5
 244 -191 244 -191 196 -154.5 c 128,-1,6
 148 -118 148 -118 148 -37 c 2,7,-1
 148 124 l 2,8,9
 148 180 148 180 122.5 204 c 128,-1,10
 97 228 97 228 36 228 c 1,11,-1
 36 323 l 1,12,13
 97 323 97 323 122.5 347 c 128,-1,14
 148 371 148 371 148 427 c 2,15,-1
 148 589 l 2,16,17
 148 669 148 669 196 705.5 c 128,-1,18
 244 742 244 742 356 742 c 1,19,-1
 364 649 l 1,20,21
 310 649 310 649 286 632.5 c 128,-1,22
 262 616 262 616 262 578 c 2,23,-1
 262 402 l 2,24,25
 262 304 262 304 156 275 c 1,26,27
 262 247 262 247 262 149 c 2,28,-1
 262 -27 l 2,0,1
EndSplineSet
Substitution2: "'case' Case-Sensitive Forms lookup 29 subtable" braceleft.case
Substitution2: "'aalt' Access All Alternates lookup 0 subtable" braceleft.case
EndChar

StartChar: bar
Encoding: 124 124 95
Width: 292
GlyphClass: 2
Flags: W
LayerCount: 2
Fore
SplineSet
206 719 m 1,0,-1
 206 -168 l 1,1,-1
 86 -168 l 1,2,-1
 86 719 l 1,3,-1
 206 719 l 1,0,-1
EndSplineSet
Substitution2: "'case' Case-Sensitive Forms lookup 29 subtable" bar.case
Substitution2: "'aalt' Access All Alternates lookup 0 subtable" bar.case
EndChar

StartChar: braceright
Encoding: 125 125 96
Width: 395
GlyphClass: 2
Flags: W
LayerCount: 2
Fore
SplineSet
246 427 m 2,0,1
 246 371 246 371 271.5 347 c 128,-1,2
 297 323 297 323 358 323 c 1,3,-1
 358 228 l 1,4,5
 297 228 297 228 271.5 204 c 128,-1,6
 246 180 246 180 246 124 c 2,7,-1
 246 -37 l 2,8,9
 246 -118 246 -118 198.5 -154.5 c 128,-1,10
 151 -191 151 -191 38 -191 c 1,11,-1
 30 -98 l 1,12,13
 85 -98 85 -98 109 -81.5 c 128,-1,14
 133 -65 133 -65 133 -27 c 2,15,-1
 133 149 l 2,16,17
 133 247 133 247 239 276 c 1,18,19
 133 304 133 304 133 402 c 2,20,-1
 133 578 l 2,21,22
 133 616 133 616 109 632.5 c 128,-1,23
 85 649 85 649 30 649 c 1,24,-1
 38 742 l 1,25,26
 150 742 150 742 198 706 c 128,-1,27
 246 670 246 670 246 589 c 2,28,-1
 246 427 l 2,0,1
EndSplineSet
Substitution2: "'case' Case-Sensitive Forms lookup 29 subtable" braceright.case
Substitution2: "'aalt' Access All Alternates lookup 0 subtable" braceright.case
EndChar

StartChar: asciitilde
Encoding: 126 126 97
Width: 576
GlyphClass: 2
Flags: W
LayerCount: 2
Fore
SplineSet
533 410 m 1,0,1
 522 232 522 232 384 232 c 0,2,3
 344 232 344 232 311.5 249 c 128,-1,4
 279 266 279 266 254 283 c 128,-1,5
 229 300 229 300 208 300 c 0,6,7
 164 300 164 300 155 235 c 1,8,-1
 43 235 l 1,9,10
 54 413 54 413 193 413 c 0,11,12
 232 413 232 413 264.5 396 c 128,-1,13
 297 379 297 379 322.5 362 c 128,-1,14
 348 345 348 345 369 345 c 0,15,16
 412 345 412 345 421 410 c 1,17,-1
 533 410 l 1,0,1
EndSplineSet
EndChar

StartChar: exclamdown
Encoding: 161 161 99
Width: 286
GlyphClass: 2
Flags: W
LayerCount: 2
Fore
SplineSet
143 355 m 128,-1,1
 104 355 104 355 81 376 c 128,-1,2
 58 397 58 397 58 432 c 128,-1,3
 58 467 58 467 81 488 c 128,-1,4
 104 509 104 509 143 509 c 128,-1,5
 182 509 182 509 205 488 c 128,-1,6
 228 467 228 467 228 432 c 128,-1,7
 228 397 228 397 205 376 c 128,-1,0
 182 355 182 355 143 355 c 128,-1,1
71 -160 m 1,8,-1
 71 80 l 1,9,-1
 88 287 l 1,10,-1
 198 287 l 1,11,-1
 215 80 l 1,12,-1
 215 -160 l 1,13,-1
 71 -160 l 1,8,-1
EndSplineSet
Substitution2: "'case' Case-Sensitive Forms lookup 29 subtable" exclamdown.case
Substitution2: "'smcp' Lowercase to Small Capitals lookup 12 subtable" exclamdown.sc
Substitution2: "'c2sc' Capitals to Small Capitals lookup 11 subtable" exclamdown.sc
AlternateSubs2: "'aalt' Access All Alternates lookup 1 subtable" exclamdown.sc exclamdown.case
EndChar

StartChar: cent
Encoding: 162 162 100
Width: 604
GlyphClass: 2
Flags: W
LayerCount: 2
Fore
SplineSet
540 142 m 1,0,1
 528 78 528 78 478.5 38 c 128,-1,2
 429 -2 429 -2 349 -9 c 1,3,-1
 349 -100 l 1,4,-1
 269 -100 l 1,5,-1
 269 -7 l 1,6,7
 167 5 167 5 111.5 72 c 128,-1,8
 56 139 56 139 56 250 c 128,-1,9
 56 361 56 361 112 428.5 c 128,-1,10
 168 496 168 496 269 508 c 1,11,-1
 269 600 l 1,12,-1
 349 600 l 1,13,-1
 349 508 l 1,14,15
 505 494 505 494 537 363 c 1,16,-1
 428 320 l 1,17,18
 411 397 411 397 349 414 c 1,19,-1
 349 85 l 1,20,21
 417 100 417 100 434 178 c 1,22,-1
 540 142 l 1,0,1
177 249 m 0,23,24
 177 111 177 111 269 86 c 1,25,-1
 269 414 l 1,26,27
 177 388 177 388 177 249 c 0,23,24
EndSplineSet
Substitution2: "'tnum' Tabular Numbers lookup 26 subtable" cent.tf
Substitution2: "'aalt' Access All Alternates lookup 0 subtable" cent.tf
EndChar

StartChar: sterling
Encoding: 163 163 101
Width: 604
GlyphClass: 2
Flags: W
LayerCount: 2
Fore
SplineSet
563 167 m 1,0,1
 565 85 565 85 531 37.5 c 128,-1,2
 497 -10 497 -10 429 -10 c 0,3,4
 366 -10 366 -10 285 47 c 1,5,6
 231 -10 231 -10 149 -10 c 0,7,8
 97 -10 97 -10 65 14.5 c 128,-1,9
 33 39 33 39 33 80 c 128,-1,10
 33 121 33 121 67 146.5 c 128,-1,11
 101 172 101 172 156 172 c 0,12,13
 202 172 202 172 242 158 c 1,14,-1
 242 167 l 2,15,16
 242 218 242 218 210 272 c 1,17,-1
 57 272 l 1,18,-1
 57 354 l 1,19,-1
 152 354 l 1,20,21
 110 418 110 418 110 472 c 0,22,23
 110 557 110 557 170 613.5 c 128,-1,24
 230 670 230 670 331 670 c 0,25,26
 419 670 419 670 470 629 c 128,-1,27
 521 588 521 588 541 503 c 1,28,-1
 430 454 l 1,29,30
 419 511 419 511 394 538 c 128,-1,31
 369 565 369 565 325 565 c 128,-1,32
 281 565 281 565 255.5 540.5 c 128,-1,33
 230 516 230 516 230 473 c 0,34,35
 230 432 230 432 276 363 c 2,36,-1
 282 354 l 1,37,-1
 469 354 l 1,38,-1
 469 272 l 1,39,-1
 326 272 l 1,40,41
 339 237 339 237 339 189 c 0,42,43
 337 146 337 146 325 113 c 1,44,45
 368 86 368 86 407 86 c 0,46,47
 442 86 442 86 457.5 107 c 128,-1,48
 473 128 473 128 472 175 c 1,49,-1
 563 167 l 1,0,1
156 50 m 0,50,51
 203 50 203 50 225 88 c 1,52,53
 186 109 186 109 155 109 c 0,54,55
 115 109 115 109 115 81 c 0,56,57
 115 50 115 50 156 50 c 0,50,51
EndSplineSet
Substitution2: "'tnum' Tabular Numbers lookup 26 subtable" sterling.tf
Substitution2: "'aalt' Access All Alternates lookup 0 subtable" sterling.tf
EndChar

StartChar: currency
Encoding: 164 164 102
Width: 604
GlyphClass: 2
Flags: W
LayerCount: 2
Fore
SplineSet
514 329 m 0,0,1
 514 267 514 267 485 218 c 1,2,-1
 580 132 l 1,3,-1
 499 51 l 1,4,-1
 410 146 l 1,5,6
 363 120 363 120 302 120 c 128,-1,7
 241 120 241 120 192 147 c 1,8,-1
 104 51 l 1,9,-1
 24 132 l 1,10,-1
 117 219 l 1,11,12
 89 267 89 267 89 329 c 0,13,14
 89 393 89 393 118 440 c 1,15,-1
 24 526 l 1,16,-1
 104 607 l 1,17,-1
 193 512 l 1,18,19
 240 538 240 538 302 538 c 0,20,21
 366 538 366 538 412 511 c 1,22,-1
 499 607 l 1,23,-1
 580 526 l 1,24,-1
 487 438 l 1,25,26
 514 389 514 389 514 329 c 0,0,1
302 223 m 128,-1,28
 346 223 346 223 374 252.5 c 128,-1,29
 402 282 402 282 402 329 c 128,-1,30
 402 376 402 376 374 405.5 c 128,-1,31
 346 435 346 435 302 435 c 128,-1,32
 258 435 258 435 229.5 405.5 c 128,-1,33
 201 376 201 376 201 329 c 128,-1,34
 201 282 201 282 229.5 252.5 c 128,-1,27
 258 223 258 223 302 223 c 128,-1,28
EndSplineSet
Substitution2: "'tnum' Tabular Numbers lookup 26 subtable" currency.tf
Substitution2: "'aalt' Access All Alternates lookup 0 subtable" currency.tf
EndChar

StartChar: yen
Encoding: 165 165 103
Width: 604
GlyphClass: 2
Flags: W
LayerCount: 2
Fore
SplineSet
384 300 m 1,0,-1
 429 302 l 1,1,-1
 544 302 l 1,2,-1
 544 242 l 1,3,-1
 365 242 l 1,4,-1
 365 173 l 1,5,-1
 544 173 l 1,6,-1
 544 116 l 1,7,-1
 365 116 l 1,8,-1
 365 0 l 1,9,-1
 239 0 l 1,10,-1
 239 116 l 1,11,-1
 61 116 l 1,12,-1
 61 173 l 1,13,-1
 239 173 l 1,14,-1
 239 242 l 1,15,-1
 61 242 l 1,16,-1
 61 302 l 1,17,-1
 175 302 l 1,18,-1
 220 300 l 1,19,-1
 21 660 l 1,20,-1
 156 660 l 1,21,-1
 262 439 l 1,22,-1
 301 337 l 1,23,-1
 303 337 l 1,24,-1
 342 439 l 1,25,-1
 448 660 l 1,26,-1
 583 660 l 1,27,-1
 384 300 l 1,0,-1
EndSplineSet
Substitution2: "'tnum' Tabular Numbers lookup 26 subtable" yen.tf
Substitution2: "'aalt' Access All Alternates lookup 0 subtable" yen.tf
EndChar

StartChar: brokenbar
Encoding: 166 166 104
Width: 266
GlyphClass: 2
Flags: W
LayerCount: 2
Fore
SplineSet
193 719 m 1,0,-1
 193 345 l 1,1,-1
 73 345 l 1,2,-1
 73 719 l 1,3,-1
 193 719 l 1,0,-1
193 206 m 1,4,-1
 193 -168 l 1,5,-1
 73 -168 l 1,6,-1
 73 206 l 1,7,-1
 193 206 l 1,4,-1
EndSplineSet
EndChar

StartChar: section
Encoding: 167 167 105
Width: 614
GlyphClass: 2
Flags: W
LayerCount: 2
Fore
SplineSet
589 275 m 0,0,1
 589 187 589 187 509 133 c 1,2,3
 529 102 529 102 529 53 c 0,4,5
 529 -21 529 -21 469 -65.5 c 128,-1,6
 409 -110 409 -110 306 -110 c 0,7,8
 224 -110 224 -110 171 -85.5 c 128,-1,9
 118 -61 118 -61 80 -12 c 1,10,-1
 157 57 l 1,11,12
 203 -14 203 -14 305 -14 c 0,13,14
 420 -14 420 -14 420 41 c 0,15,16
 420 73 420 73 387 90.5 c 128,-1,17
 354 108 354 108 269 118 c 0,18,19
 139 132 139 132 83 170.5 c 128,-1,20
 27 209 27 209 27 280 c 0,21,22
 27 369 27 369 107 421 c 1,23,24
 87 454 87 454 87 502 c 0,25,26
 87 576 87 576 148 623 c 128,-1,27
 209 670 209 670 314 670 c 0,28,29
 398 670 398 670 448.5 645 c 128,-1,30
 499 620 499 620 536 572 c 1,31,-1
 461 503 l 1,32,33
 434 540 434 540 401 557 c 128,-1,34
 368 574 368 574 314 574 c 0,35,36
 257 574 257 574 226.5 558 c 128,-1,37
 196 542 196 542 196 514 c 0,38,39
 196 481 196 481 229 464 c 128,-1,40
 262 447 262 447 347 437 c 0,41,42
 477 423 477 423 533 384.5 c 128,-1,43
 589 346 589 346 589 275 c 0,0,1
133 298 m 0,44,45
 133 267 133 267 165.5 251 c 128,-1,46
 198 235 198 235 281 226 c 0,47,48
 376 215 376 215 430 194 c 1,49,50
 483 218 483 218 483 257 c 0,51,52
 483 288 483 288 450.5 304 c 128,-1,53
 418 320 418 320 335 329 c 0,54,55
 243 338 243 338 186 361 c 1,56,57
 133 337 133 337 133 298 c 0,44,45
EndSplineSet
EndChar

StartChar: dieresis
Encoding: 168 168 106
Width: 500
GlyphClass: 2
Flags: W
LayerCount: 2
Fore
SplineSet
146 705 m 0,0,1
 181 705 181 705 201 686 c 128,-1,2
 221 667 221 667 221 635 c 128,-1,3
 221 603 221 603 201 584 c 128,-1,4
 181 565 181 565 146 565 c 0,5,6
 112 565 112 565 92 584 c 128,-1,7
 72 603 72 603 72 635 c 128,-1,8
 72 667 72 667 92 686 c 128,-1,9
 112 705 112 705 146 705 c 0,0,1
356 705 m 0,10,11
 391 705 391 705 411.5 686 c 128,-1,12
 432 667 432 667 432 635 c 128,-1,13
 432 603 432 603 411.5 584 c 128,-1,14
 391 565 391 565 356 565 c 0,15,16
 322 565 322 565 302 584 c 128,-1,17
 282 603 282 603 282 635 c 128,-1,18
 282 667 282 667 302 686 c 128,-1,19
 322 705 322 705 356 705 c 0,10,11
EndSplineSet
EndChar

StartChar: copyright
Encoding: 169 169 107
Width: 790
GlyphClass: 2
Flags: W
LayerCount: 2
Fore
SplineSet
395 670 m 0,0,1
 551 670 551 670 644.5 577.5 c 128,-1,2
 738 485 738 485 738 330 c 128,-1,3
 738 175 738 175 644.5 82.5 c 128,-1,4
 551 -10 551 -10 395 -10 c 0,5,6
 238 -10 238 -10 144.5 82.5 c 128,-1,7
 51 175 51 175 51 330 c 128,-1,8
 51 485 51 485 144.5 577.5 c 128,-1,9
 238 670 238 670 395 670 c 0,0,1
395 593 m 0,10,11
 276 593 276 593 205 521 c 128,-1,12
 134 449 134 449 134 330 c 128,-1,13
 134 211 134 211 205 139 c 128,-1,14
 276 67 276 67 395 67 c 0,15,16
 513 67 513 67 584.5 139 c 128,-1,17
 656 211 656 211 656 330 c 128,-1,18
 656 449 656 449 584.5 521 c 128,-1,19
 513 593 513 593 395 593 c 0,10,11
395 518 m 0,20,21
 527 518 527 518 566 413 c 1,22,-1
 484 372 l 1,23,24
 463 422 463 422 401 422 c 0,25,26
 360 422 360 422 337.5 397.5 c 128,-1,27
 315 373 315 373 315 329 c 0,28,29
 315 284 315 284 338 259.5 c 128,-1,30
 361 235 361 235 402 235 c 0,31,32
 468 235 468 235 489 288 c 1,33,-1
 567 252 l 1,34,35
 545 194 545 194 504.5 167 c 128,-1,36
 464 140 464 140 395 140 c 0,37,38
 312 140 312 140 263.5 191 c 128,-1,39
 215 242 215 242 215 329 c 128,-1,40
 215 416 215 416 263.5 467 c 128,-1,41
 312 518 312 518 395 518 c 0,20,21
EndSplineSet
EndChar

StartChar: ordfeminine
Encoding: 170 170 108
Width: 418
GlyphClass: 2
Flags: W
LayerCount: 2
Fore
SplineSet
373 380 m 0,0,1
 388 380 388 380 395 383 c 1,2,-1
 387 325 l 1,3,4
 367 314 367 314 338 314 c 0,5,6
 272 314 272 314 258 367 c 1,7,8
 222 314 222 314 132 314 c 0,9,10
 79 314 79 314 50.5 335.5 c 128,-1,11
 22 357 22 357 22 397 c 0,12,13
 22 440 22 440 53.5 466.5 c 128,-1,14
 85 493 85 493 155 506 c 2,15,-1
 240 522 l 1,16,-1
 240 535 l 2,17,18
 240 561 240 561 225 575 c 128,-1,19
 210 589 210 589 182 589 c 0,20,21
 124 589 124 589 109 535 c 1,22,-1
 27 561 l 1,23,24
 36 609 36 609 77 636 c 128,-1,25
 118 663 118 663 187 663 c 0,26,27
 345 663 345 663 345 534 c 2,28,-1
 345 410 l 2,29,30
 345 380 345 380 373 380 c 0,0,1
169 381 m 0,31,32
 197 381 197 381 218.5 396 c 128,-1,33
 240 411 240 411 240 436 c 2,34,-1
 240 473 l 1,35,-1
 187 461 l 2,36,37
 124 448 124 448 124 413 c 0,38,39
 124 381 124 381 169 381 c 0,31,32
31 169 m 1,40,-1
 31 245 l 1,41,-1
 380 245 l 1,42,-1
 380 169 l 1,43,-1
 31 169 l 1,40,-1
EndSplineSet
EndChar

StartChar: guillemotleft
Encoding: 171 171 109
Width: 552
GlyphClass: 2
Flags: W
LayerCount: 2
Fore
SplineSet
292 461 m 1,0,-1
 168 265 l 1,1,-1
 292 69 l 1,2,-1
 166 69 l 1,3,-1
 41 265 l 1,4,-1
 166 461 l 1,5,-1
 292 461 l 1,0,-1
510 461 m 1,6,-1
 387 265 l 1,7,-1
 510 69 l 1,8,-1
 385 69 l 1,9,-1
 259 265 l 1,10,-1
 385 461 l 1,11,-1
 510 461 l 1,6,-1
EndSplineSet
Substitution2: "'case' Case-Sensitive Forms lookup 29 subtable" guillemotleft.case
Substitution2: "'aalt' Access All Alternates lookup 0 subtable" guillemotleft.case
EndChar

StartChar: logicalnot
Encoding: 172 172 110
Width: 604
GlyphClass: 2
Flags: W
LayerCount: 2
Fore
SplineSet
59 374 m 1,0,-1
 545 374 l 1,1,-1
 545 110 l 1,2,-1
 429 110 l 1,3,-1
 429 270 l 1,4,-1
 59 270 l 1,5,-1
 59 374 l 1,0,-1
EndSplineSet
EndChar

StartChar: uni00AD
Encoding: 173 173 111
Width: 521
GlyphClass: 2
Flags: W
LayerCount: 2
Fore
SplineSet
437 324 m 1,0,-1
 437 206 l 1,1,-1
 84 206 l 1,2,-1
 84 324 l 1,3,-1
 437 324 l 1,0,-1
EndSplineSet
EndChar

StartChar: registered
Encoding: 174 174 112
Width: 790
GlyphClass: 2
Flags: W
LayerCount: 2
Fore
SplineSet
395 670 m 0,0,1
 551 670 551 670 644.5 577.5 c 128,-1,2
 738 485 738 485 738 330 c 128,-1,3
 738 175 738 175 644.5 82.5 c 128,-1,4
 551 -10 551 -10 395 -10 c 0,5,6
 238 -10 238 -10 144.5 82.5 c 128,-1,7
 51 175 51 175 51 330 c 128,-1,8
 51 485 51 485 144.5 577.5 c 128,-1,9
 238 670 238 670 395 670 c 0,0,1
395 67 m 0,10,11
 513 67 513 67 584.5 139 c 128,-1,12
 656 211 656 211 656 330 c 128,-1,13
 656 449 656 449 584.5 521 c 128,-1,14
 513 593 513 593 395 593 c 0,15,16
 276 593 276 593 205 521 c 128,-1,17
 134 449 134 449 134 330 c 128,-1,18
 134 211 134 211 205 139 c 128,-1,19
 276 67 276 67 395 67 c 0,10,11
558 395 m 0,20,21
 558 311 558 311 475 285 c 1,22,-1
 567 148 l 1,23,-1
 462 148 l 1,24,-1
 388 276 l 1,25,-1
 346 276 l 1,26,-1
 346 148 l 1,27,-1
 257 148 l 1,28,-1
 257 515 l 1,29,-1
 424 515 l 2,30,31
 483 515 483 515 520.5 482 c 128,-1,32
 558 449 558 449 558 395 c 0,20,21
346 443 m 1,33,-1
 346 339 l 1,34,-1
 408 339 l 2,35,36
 468 339 468 339 468 391 c 128,-1,37
 468 443 468 443 408 443 c 2,38,-1
 346 443 l 1,33,-1
EndSplineSet
Substitution2: "'ordn' Ordinals lookup 22 subtable" registeredsuperior
Substitution2: "'sups' Superscript lookup 15 subtable" registeredsuperior
Substitution2: "'aalt' Access All Alternates lookup 0 subtable" registeredsuperior
EndChar

StartChar: macron
Encoding: 175 175 113
Width: 500
GlyphClass: 2
Flags: W
LayerCount: 2
Fore
SplineSet
432 670 m 1,0,-1
 432 579 l 1,1,-1
 68 579 l 1,2,-1
 68 670 l 1,3,-1
 432 670 l 1,0,-1
EndSplineSet
EndChar

StartChar: degree
Encoding: 176 176 114
Width: 482
GlyphClass: 2
Flags: W
LayerCount: 2
Fore
SplineSet
241 313 m 0,0,1
 156 313 156 313 103.5 362.5 c 128,-1,2
 51 412 51 412 51 492 c 128,-1,3
 51 572 51 572 103.5 621 c 128,-1,4
 156 670 156 670 241 670 c 0,5,6
 327 670 327 670 379.5 621 c 128,-1,7
 432 572 432 572 432 492 c 128,-1,8
 432 412 432 412 379.5 362.5 c 128,-1,9
 327 313 327 313 241 313 c 0,0,1
241 406 m 0,10,11
 279 406 279 406 303.5 430 c 128,-1,12
 328 454 328 454 328 492 c 128,-1,13
 328 530 328 530 303.5 554 c 128,-1,14
 279 578 279 578 241 578 c 0,15,16
 204 578 204 578 179.5 554 c 128,-1,17
 155 530 155 530 155 492 c 128,-1,18
 155 454 155 454 179.5 430 c 128,-1,19
 204 406 204 406 241 406 c 0,10,11
EndSplineSet
EndChar

StartChar: plusminus
Encoding: 177 177 115
Width: 604
GlyphClass: 2
Flags: W
LayerCount: 2
Fore
SplineSet
355 461 m 1,0,-1
 550 461 l 1,1,-1
 550 359 l 1,2,-1
 355 359 l 1,3,-1
 355 174 l 1,4,-1
 250 174 l 1,5,-1
 250 359 l 1,6,-1
 54 359 l 1,7,-1
 54 461 l 1,8,-1
 250 461 l 1,9,-1
 250 648 l 1,10,-1
 355 648 l 1,11,-1
 355 461 l 1,0,-1
54 0 m 1,12,-1
 54 100 l 1,13,-1
 550 100 l 1,14,-1
 550 0 l 1,15,-1
 54 0 l 1,12,-1
EndSplineSet
EndChar

StartChar: uni00B2
Encoding: 178 178 116
Width: 382
GlyphClass: 2
Flags: W
LayerCount: 2
Fore
SplineSet
33 333 m 1,0,-1
 33 400 l 1,1,2
 99 440 99 440 123 457 c 0,3,4
 189 505 189 505 215.5 536.5 c 128,-1,5
 242 568 242 568 242 598 c 0,6,7
 242 623 242 623 227 638.5 c 128,-1,8
 212 654 212 654 184 654 c 0,9,10
 120 654 120 654 118 571 c 1,11,-1
 20 600 l 1,12,13
 22 664 22 664 67 699.5 c 128,-1,14
 112 735 112 735 187 735 c 0,15,16
 268 735 268 735 309.5 697 c 128,-1,17
 351 659 351 659 351 606 c 0,18,19
 351 528 351 528 236 450 c 0,20,21
 209 431 209 431 168 413 c 1,22,-1
 168 412 l 1,23,24
 222 415 222 415 250 415 c 2,25,-1
 357 415 l 1,26,-1
 357 333 l 1,27,-1
 33 333 l 1,0,-1
EndSplineSet
EndChar

StartChar: uni00B3
Encoding: 179 179 117
Width: 373
GlyphClass: 2
Flags: W
LayerCount: 2
Fore
SplineSet
185 735 m 0,0,1
 258 735 258 735 297.5 705.5 c 128,-1,2
 337 676 337 676 337 624 c 0,3,4
 337 584 337 584 313 559.5 c 128,-1,5
 289 535 289 535 255 533 c 1,6,-1
 255 530 l 1,7,8
 294 530 294 530 319.5 507 c 128,-1,9
 345 484 345 484 345 443 c 0,10,11
 345 391 345 391 301.5 359 c 128,-1,12
 258 327 258 327 187 327 c 0,13,14
 48 327 48 327 15 426 c 1,15,-1
 112 464 l 1,16,17
 118 405 118 405 181 405 c 0,18,19
 209 405 209 405 225 418.5 c 128,-1,20
 241 432 241 432 241 456 c 0,21,22
 241 499 241 499 181 499 c 2,23,-1
 158 499 l 1,24,-1
 158 558 l 1,25,-1
 177 558 l 2,26,27
 233 558 233 558 233 606 c 128,-1,28
 233 654 233 654 180 654 c 0,29,30
 126 654 126 654 119 600 c 1,31,-1
 25 631 l 1,32,33
 36 683 36 683 79 709 c 128,-1,34
 122 735 122 735 185 735 c 0,0,1
EndSplineSet
EndChar

StartChar: acute
Encoding: 180 180 118
Width: 500
GlyphClass: 2
Flags: W
LayerCount: 2
Fore
SplineSet
262 742 m 1,0,-1
 394 742 l 1,1,-1
 294 572 l 1,2,-1
 192 572 l 1,3,-1
 262 742 l 1,0,-1
EndSplineSet
EndChar

StartChar: uni00B5
Encoding: 181 181 119
Width: 615
GlyphClass: 2
Flags: W
LayerCount: 2
Fore
SplineSet
410 500 m 1,0,-1
 547 500 l 1,1,-1
 547 0 l 1,2,-1
 428 0 l 1,3,-1
 422 89 l 1,4,5
 377 -10 377 -10 258 -10 c 0,6,7
 232 -10 232 -10 206 -2 c 1,8,-1
 206 -210 l 1,9,-1
 69 -210 l 1,10,-1
 69 500 l 1,11,-1
 206 500 l 1,12,-1
 206 204 l 2,13,14
 206 146 206 146 227.5 122 c 128,-1,15
 249 98 249 98 293 98 c 0,16,17
 343 98 343 98 373.5 126 c 128,-1,18
 404 154 404 154 410 205 c 1,19,-1
 410 500 l 1,0,-1
EndSplineSet
EndChar

StartChar: paragraph
Encoding: 182 182 120
Width: 702
GlyphClass: 2
Flags: W
LayerCount: 2
Fore
SplineSet
627 660 m 1,0,-1
 627 -100 l 1,1,-1
 514 -100 l 1,2,-1
 514 553 l 1,3,-1
 398 553 l 1,4,-1
 398 -100 l 1,5,-1
 284 -100 l 1,6,-1
 284 235 l 1,7,8
 166 236 166 236 101.5 291 c 128,-1,9
 37 346 37 346 37 447 c 0,10,11
 37 550 37 550 105 605 c 128,-1,12
 173 660 173 660 305 660 c 2,13,-1
 627 660 l 1,0,-1
EndSplineSet
Substitution2: "'ornm' Ornaments lookup 40 subtable" uni2761
Substitution2: "'aalt' Access All Alternates lookup 0 subtable" uni2761
EndChar

StartChar: periodcentered
Encoding: 183 183 121
Width: 256
GlyphClass: 2
Flags: W
LayerCount: 2
Fore
SplineSet
128 435 m 128,-1,1
 168 435 168 435 191.5 413.5 c 128,-1,2
 215 392 215 392 215 354 c 128,-1,3
 215 316 215 316 191.5 294.5 c 128,-1,4
 168 273 168 273 128 273 c 128,-1,5
 88 273 88 273 64.5 294.5 c 128,-1,6
 41 316 41 316 41 354 c 128,-1,7
 41 392 41 392 64.5 413.5 c 128,-1,0
 88 435 88 435 128 435 c 128,-1,1
EndSplineSet
Substitution2: "Single Substitution lookup 55 subtable" periodcentered.loclCAT.sc
Substitution2: "Single Substitution lookup 54 subtable" periodcentered.loclCAT.case
Substitution2: "Single Substitution lookup 53 subtable" periodcentered.loclCAT
Substitution2: "'case' Case-Sensitive Forms lookup 29 subtable" periodcentered.case
Substitution2: "'smcp' Lowercase to Small Capitals lookup 12 subtable" periodcentered.sc
Substitution2: "'c2sc' Capitals to Small Capitals lookup 11 subtable" periodcentered.sc
AlternateSubs2: "'aalt' Access All Alternates lookup 1 subtable" periodcentered.sc periodcentered.case
Position2: "Single Positioning lookup 6 subtable" dx=0 dy=0 dh=-30 dv=0
EndChar

StartChar: cedilla
Encoding: 184 184 122
Width: 500
GlyphClass: 2
Flags: W
LayerCount: 2
Fore
SplineSet
190 3 m 1,0,-1
 232 34 l 1,1,2
 305 20 305 20 344.5 -17 c 128,-1,3
 384 -54 384 -54 384 -101 c 0,4,5
 384 -154 384 -154 347.5 -184.5 c 128,-1,6
 311 -215 311 -215 251 -215 c 0,7,8
 173 -215 173 -215 132 -177 c 1,9,-1
 168 -106 l 1,10,11
 196 -136 196 -136 239 -136 c 0,12,13
 263 -136 263 -136 278.5 -121.5 c 128,-1,14
 294 -107 294 -107 294 -83 c 0,15,16
 294 -54 294 -54 272 -35 c 128,-1,17
 250 -16 250 -16 190 3 c 1,0,-1
EndSplineSet
EndChar

StartChar: uni00B9
Encoding: 185 185 123
Width: 277
GlyphClass: 2
Flags: W
LayerCount: 2
Fore
SplineSet
143 730 m 1,0,-1
 232 730 l 1,1,-1
 232 333 l 1,2,-1
 128 333 l 1,3,-1
 128 562 l 2,4,5
 128 590 128 590 131 629 c 1,6,7
 74 583 74 583 16 577 c 1,8,-1
 16 663 l 1,9,10
 47 668 47 668 87 688.5 c 128,-1,11
 127 709 127 709 143 730 c 1,0,-1
EndSplineSet
EndChar

StartChar: ordmasculine
Encoding: 186 186 124
Width: 400
GlyphClass: 2
Flags: W
LayerCount: 2
Fore
SplineSet
200 314 m 128,-1,1
 118 314 118 314 72.5 360 c 128,-1,2
 27 406 27 406 27 488 c 0,3,4
 27 571 27 571 72.5 617 c 128,-1,5
 118 663 118 663 200 663 c 128,-1,6
 282 663 282 663 327 617 c 128,-1,7
 372 571 372 571 372 488 c 0,8,9
 372 406 372 406 327 360 c 128,-1,0
 282 314 282 314 200 314 c 128,-1,1
200 386 m 128,-1,11
 267 386 267 386 267 488 c 0,12,13
 267 592 267 592 200 592 c 128,-1,14
 133 592 133 592 133 488 c 0,15,10
 133 386 133 386 200 386 c 128,-1,11
36 169 m 1,16,-1
 36 245 l 1,17,-1
 364 245 l 1,18,-1
 364 169 l 1,19,-1
 36 169 l 1,16,-1
EndSplineSet
EndChar

StartChar: guillemotright
Encoding: 187 187 125
Width: 551
GlyphClass: 2
Flags: W
LayerCount: 2
Fore
SplineSet
41 461 m 1,0,-1
 166 461 l 1,1,-1
 292 265 l 1,2,-1
 166 69 l 1,3,-1
 41 69 l 1,4,-1
 164 265 l 1,5,-1
 41 461 l 1,0,-1
259 461 m 1,6,-1
 385 461 l 1,7,-1
 510 265 l 1,8,-1
 385 69 l 1,9,-1
 259 69 l 1,10,-1
 383 265 l 1,11,-1
 259 461 l 1,6,-1
EndSplineSet
Substitution2: "'case' Case-Sensitive Forms lookup 29 subtable" guillemotright.case
Substitution2: "'aalt' Access All Alternates lookup 0 subtable" guillemotright.case
EndChar

StartChar: onequarter
Encoding: 188 188 126
Width: 849
GlyphClass: 2
Flags: W
LayerCount: 2
Fore
SplineSet
128 497 m 2,0,1
 128 525 128 525 131 564 c 1,2,3
 74 518 74 518 16 512 c 1,4,-1
 16 598 l 1,5,6
 47 603 47 603 87 623.5 c 128,-1,7
 127 644 127 644 143 665 c 1,8,-1
 232 665 l 1,9,-1
 232 268 l 1,10,-1
 128 268 l 1,11,-1
 128 497 l 2,0,1
592 660 m 1,12,-1
 696 660 l 1,13,-1
 220 0 l 1,14,-1
 115 0 l 1,15,-1
 592 660 l 1,12,-1
768 156 m 1,16,-1
 832 156 l 1,17,-1
 832 86 l 1,18,-1
 768 86 l 1,19,-1
 768 -4 l 1,20,-1
 678 -4 l 1,21,-1
 678 86 l 1,22,-1
 478 86 l 1,23,-1
 478 135 l 1,24,-1
 647 393 l 1,25,-1
 768 393 l 1,26,-1
 768 156 l 1,16,-1
678 247 m 2,27,28
 678 251 678 251 681 326 c 1,29,-1
 678 326 l 1,30,31
 667 298 667 298 647 268 c 2,32,-1
 570 156 l 1,33,-1
 678 156 l 1,34,-1
 678 247 l 2,27,28
EndSplineSet
EndChar

StartChar: onehalf
Encoding: 189 189 127
Width: 917
GlyphClass: 2
Flags: W
LayerCount: 2
Fore
SplineSet
128 497 m 2,0,1
 128 525 128 525 131 564 c 1,2,3
 74 518 74 518 16 512 c 1,4,-1
 16 598 l 1,5,6
 47 603 47 603 87 623.5 c 128,-1,7
 127 644 127 644 143 665 c 1,8,-1
 232 665 l 1,9,-1
 232 268 l 1,10,-1
 128 268 l 1,11,-1
 128 497 l 2,0,1
592 660 m 1,12,-1
 696 660 l 1,13,-1
 220 0 l 1,14,-1
 115 0 l 1,15,-1
 592 660 l 1,12,-1
785 78 m 2,16,-1
 892 78 l 1,17,-1
 892 -4 l 1,18,-1
 568 -4 l 1,19,-1
 568 63 l 1,20,21
 634 103 634 103 658 120 c 0,22,23
 724 168 724 168 750.5 199.5 c 128,-1,24
 777 231 777 231 777 261 c 0,25,26
 777 286 777 286 762 301.5 c 128,-1,27
 747 317 747 317 719 317 c 0,28,29
 655 317 655 317 653 234 c 1,30,-1
 555 263 l 1,31,32
 557 327 557 327 602 362.5 c 128,-1,33
 647 398 647 398 722 398 c 0,34,35
 803 398 803 398 844.5 360 c 128,-1,36
 886 322 886 322 886 269 c 0,37,38
 886 191 886 191 771 113 c 0,39,40
 744 94 744 94 703 76 c 1,41,-1
 703 75 l 1,42,43
 757 78 757 78 785 78 c 2,16,-1
EndSplineSet
EndChar

StartChar: threequarters
Encoding: 190 190 128
Width: 945
GlyphClass: 2
Flags: W
LayerCount: 2
Fore
SplineSet
185 670 m 0,0,1
 258 670 258 670 297.5 640.5 c 128,-1,2
 337 611 337 611 337 559 c 0,3,4
 337 519 337 519 313 494.5 c 128,-1,5
 289 470 289 470 255 468 c 1,6,-1
 255 465 l 1,7,8
 294 465 294 465 319.5 442 c 128,-1,9
 345 419 345 419 345 378 c 0,10,11
 345 326 345 326 301.5 294 c 128,-1,12
 258 262 258 262 187 262 c 0,13,14
 48 262 48 262 14 361 c 1,15,-1
 112 399 l 1,16,17
 118 340 118 340 181 340 c 0,18,19
 209 340 209 340 225 353.5 c 128,-1,20
 241 367 241 367 241 391 c 0,21,22
 241 434 241 434 181 434 c 2,23,-1
 158 434 l 1,24,-1
 158 493 l 1,25,-1
 177 493 l 2,26,27
 233 493 233 493 233 541 c 128,-1,28
 233 589 233 589 180 589 c 0,29,30
 126 589 126 589 119 535 c 1,31,-1
 25 566 l 1,32,33
 36 618 36 618 79 644 c 128,-1,34
 122 670 122 670 185 670 c 0,0,1
211 0 m 1,35,-1
 688 660 l 1,36,-1
 792 660 l 1,37,-1
 316 0 l 1,38,-1
 211 0 l 1,35,-1
927 156 m 1,39,-1
 927 86 l 1,40,-1
 863 86 l 1,41,-1
 863 -4 l 1,42,-1
 773 -4 l 1,43,-1
 773 86 l 1,44,-1
 573 86 l 1,45,-1
 573 135 l 1,46,-1
 742 393 l 1,47,-1
 863 393 l 1,48,-1
 863 156 l 1,49,-1
 927 156 l 1,39,-1
665 156 m 1,50,-1
 773 156 l 1,51,-1
 773 247 l 2,52,53
 773 251 773 251 776 326 c 1,54,-1
 773 326 l 1,55,56
 762 298 762 298 742 268 c 2,57,-1
 665 156 l 1,50,-1
EndSplineSet
EndChar

StartChar: questiondown
Encoding: 191 191 129
Width: 580
GlyphClass: 2
Flags: W
LayerCount: 2
Fore
SplineSet
301 353 m 128,-1,1
 261 353 261 353 238 374 c 128,-1,2
 215 395 215 395 215 431 c 128,-1,3
 215 467 215 467 238 488 c 128,-1,4
 261 509 261 509 301 509 c 128,-1,5
 341 509 341 509 363.5 488 c 128,-1,6
 386 467 386 467 386 431 c 128,-1,7
 386 395 386 395 363.5 374 c 128,-1,0
 341 353 341 353 301 353 c 128,-1,1
287 -170 m 0,8,9
 176 -170 176 -170 109.5 -124.5 c 128,-1,10
 43 -79 43 -79 43 8 c 128,-1,11
 43 95 43 95 94.5 140.5 c 128,-1,12
 146 186 146 186 233 195 c 1,13,-1
 239 289 l 1,14,-1
 362 289 l 1,15,-1
 368 137 l 1,16,17
 272 127 272 127 231 101 c 128,-1,18
 190 75 190 75 190 27 c 0,19,20
 190 -12 190 -12 216.5 -33.5 c 128,-1,21
 243 -55 243 -55 296 -55 c 0,22,23
 348 -55 348 -55 380 -25 c 128,-1,24
 412 5 412 5 417 59 c 1,25,-1
 547 4 l 1,26,27
 534 -75 534 -75 468 -122.5 c 128,-1,28
 402 -170 402 -170 287 -170 c 0,8,9
EndSplineSet
Substitution2: "'case' Case-Sensitive Forms lookup 29 subtable" questiondown.case
Substitution2: "'smcp' Lowercase to Small Capitals lookup 12 subtable" questiondown.sc
Substitution2: "'c2sc' Capitals to Small Capitals lookup 11 subtable" questiondown.sc
AlternateSubs2: "'aalt' Access All Alternates lookup 1 subtable" questiondown.sc questiondown.case
EndChar

StartChar: Agrave
Encoding: 192 192 130
Width: 671
GlyphClass: 2
Flags: W
LayerCount: 2
Fore
SplineSet
383 730 m 1,0,-1
 280 730 l 1,1,-1
 191 885 l 1,2,-1
 327 885 l 1,3,-1
 383 730 l 1,0,-1
516 0 m 1,4,-1
 461 161 l 1,5,-1
 207 161 l 1,6,-1
 153 0 l 1,7,-1
 12 0 l 1,8,-1
 253 660 l 1,9,-1
 418 660 l 1,10,-1
 659 0 l 1,11,-1
 516 0 l 1,4,-1
241 263 m 1,12,-1
 427 263 l 1,13,-1
 365 449 l 1,14,-1
 335 549 l 1,15,-1
 333 549 l 1,16,-1
 305 451 l 1,17,-1
 241 263 l 1,12,-1
EndSplineSet
Substitution2: "Single Substitution lookup 56 subtable" Agrave.swsh
Substitution2: "'swsh' Swash lookup 32 subtable" Agrave.swsh
Substitution2: "'c2sc' Capitals to Small Capitals lookup 11 subtable" agrave.sc
AlternateSubs2: "'aalt' Access All Alternates lookup 1 subtable" agrave.sc Agrave.swsh
EndChar

StartChar: Aacute
Encoding: 193 193 131
Width: 671
GlyphClass: 2
Flags: W
LayerCount: 2
Fore
SplineSet
466 885 m 1,0,-1
 377 730 l 1,1,-1
 274 730 l 1,2,-1
 330 885 l 1,3,-1
 466 885 l 1,0,-1
516 0 m 1,4,-1
 461 161 l 1,5,-1
 207 161 l 1,6,-1
 153 0 l 1,7,-1
 12 0 l 1,8,-1
 253 660 l 1,9,-1
 418 660 l 1,10,-1
 659 0 l 1,11,-1
 516 0 l 1,4,-1
241 263 m 1,12,-1
 427 263 l 1,13,-1
 365 449 l 1,14,-1
 335 549 l 1,15,-1
 333 549 l 1,16,-1
 305 451 l 1,17,-1
 241 263 l 1,12,-1
EndSplineSet
Substitution2: "Single Substitution lookup 56 subtable" Aacute.swsh
Substitution2: "'swsh' Swash lookup 32 subtable" Aacute.swsh
Substitution2: "'c2sc' Capitals to Small Capitals lookup 11 subtable" aacute.sc
AlternateSubs2: "'aalt' Access All Alternates lookup 1 subtable" aacute.sc Aacute.swsh
EndChar

StartChar: Acircumflex
Encoding: 194 194 132
Width: 671
GlyphClass: 2
Flags: W
LayerCount: 2
Fore
SplineSet
335 824 m 1,0,-1
 261 726 l 1,1,-1
 155 726 l 1,2,-1
 266 893 l 1,3,-1
 404 893 l 1,4,-1
 515 726 l 1,5,-1
 409 726 l 1,6,-1
 335 824 l 1,0,-1
516 0 m 1,7,-1
 461 161 l 1,8,-1
 207 161 l 1,9,-1
 153 0 l 1,10,-1
 12 0 l 1,11,-1
 253 660 l 1,12,-1
 418 660 l 1,13,-1
 659 0 l 1,14,-1
 516 0 l 1,7,-1
241 263 m 1,15,-1
 427 263 l 1,16,-1
 365 449 l 1,17,-1
 335 549 l 1,18,-1
 333 549 l 1,19,-1
 305 451 l 1,20,-1
 241 263 l 1,15,-1
EndSplineSet
Substitution2: "Single Substitution lookup 56 subtable" Acircumflex.swsh
Substitution2: "'swsh' Swash lookup 32 subtable" Acircumflex.swsh
Substitution2: "'c2sc' Capitals to Small Capitals lookup 11 subtable" acircumflex.sc
AlternateSubs2: "'aalt' Access All Alternates lookup 1 subtable" acircumflex.sc Acircumflex.swsh
EndChar

StartChar: Atilde
Encoding: 195 195 133
Width: 671
GlyphClass: 2
Flags: W
LayerCount: 2
Fore
SplineSet
269 789 m 0,0,1
 235 789 235 789 227 728 c 1,2,-1
 143 728 l 1,3,4
 150 878 150 878 269 878 c 0,5,6
 301 878 301 878 325.5 863 c 128,-1,7
 350 848 350 848 368 832.5 c 128,-1,8
 386 817 386 817 401 817 c 0,9,10
 435 817 435 817 443 878 c 1,11,-1
 527 878 l 1,12,13
 520 728 520 728 402 728 c 0,14,15
 369 728 369 728 344.5 743 c 128,-1,16
 320 758 320 758 302.5 773.5 c 128,-1,17
 285 789 285 789 269 789 c 0,0,1
516 0 m 1,18,-1
 461 161 l 1,19,-1
 207 161 l 1,20,-1
 153 0 l 1,21,-1
 12 0 l 1,22,-1
 253 660 l 1,23,-1
 418 660 l 1,24,-1
 659 0 l 1,25,-1
 516 0 l 1,18,-1
241 263 m 1,26,-1
 427 263 l 1,27,-1
 365 449 l 1,28,-1
 335 549 l 1,29,-1
 333 549 l 1,30,-1
 305 451 l 1,31,-1
 241 263 l 1,26,-1
EndSplineSet
Substitution2: "Single Substitution lookup 56 subtable" Atilde.swsh
Substitution2: "'swsh' Swash lookup 32 subtable" Atilde.swsh
Substitution2: "'c2sc' Capitals to Small Capitals lookup 11 subtable" atilde.sc
AlternateSubs2: "'aalt' Access All Alternates lookup 1 subtable" atilde.sc Atilde.swsh
EndChar

StartChar: Adieresis
Encoding: 196 196 134
Width: 671
GlyphClass: 2
Flags: W
LayerCount: 2
Fore
SplineSet
229 725 m 0,0,1
 195 725 195 725 175 744 c 128,-1,2
 155 763 155 763 155 795 c 128,-1,3
 155 827 155 827 175 846 c 128,-1,4
 195 865 195 865 229 865 c 0,5,6
 264 865 264 865 284 846 c 128,-1,7
 304 827 304 827 304 795 c 128,-1,8
 304 763 304 763 284 744 c 128,-1,9
 264 725 264 725 229 725 c 0,0,1
439 725 m 0,10,11
 405 725 405 725 385 744 c 128,-1,12
 365 763 365 763 365 795 c 128,-1,13
 365 827 365 827 385 846 c 128,-1,14
 405 865 405 865 439 865 c 0,15,16
 474 865 474 865 494.5 846 c 128,-1,17
 515 827 515 827 515 795 c 128,-1,18
 515 763 515 763 494.5 744 c 128,-1,19
 474 725 474 725 439 725 c 0,10,11
516 0 m 1,20,-1
 461 161 l 1,21,-1
 207 161 l 1,22,-1
 153 0 l 1,23,-1
 12 0 l 1,24,-1
 253 660 l 1,25,-1
 418 660 l 1,26,-1
 659 0 l 1,27,-1
 516 0 l 1,20,-1
241 263 m 1,28,-1
 427 263 l 1,29,-1
 365 449 l 1,30,-1
 335 549 l 1,31,-1
 333 549 l 1,32,-1
 305 451 l 1,33,-1
 241 263 l 1,28,-1
EndSplineSet
Substitution2: "Single Substitution lookup 56 subtable" Adieresis.swsh
Substitution2: "'titl' Titling lookup 41 subtable" Adieresis.titl
Substitution2: "'swsh' Swash lookup 32 subtable" Adieresis.swsh
Substitution2: "'c2sc' Capitals to Small Capitals lookup 11 subtable" adieresis.sc
AlternateSubs2: "'aalt' Access All Alternates lookup 1 subtable" adieresis.sc Adieresis.swsh Adieresis.titl
EndChar

StartChar: Aring
Encoding: 197 197 135
Width: 671
GlyphClass: 2
Flags: W
LayerCount: 2
Fore
SplineSet
516 0 m 1,0,-1
 461 161 l 1,1,-1
 207 161 l 1,2,-1
 153 0 l 1,3,-1
 12 0 l 1,4,-1
 247 634 l 1,5,6
 195 666 195 666 195 732 c 0,7,8
 195 789 195 789 233.5 823.5 c 128,-1,9
 272 858 272 858 336 858 c 0,10,11
 401 858 401 858 439 823.5 c 128,-1,12
 477 789 477 789 477 732 c 0,13,14
 477 666 477 666 424 634 c 1,15,-1
 659 0 l 1,16,-1
 516 0 l 1,0,-1
336 790 m 128,-1,18
 308 790 308 790 290.5 773 c 128,-1,19
 273 756 273 756 273 729 c 128,-1,20
 273 702 273 702 290.5 685 c 128,-1,21
 308 668 308 668 336 668 c 128,-1,22
 364 668 364 668 381.5 685 c 128,-1,23
 399 702 399 702 399 729 c 128,-1,24
 399 756 399 756 381.5 773 c 128,-1,17
 364 790 364 790 336 790 c 128,-1,18
241 263 m 1,25,-1
 427 263 l 1,26,-1
 365 449 l 1,27,-1
 336 549 l 1,28,-1
 333 549 l 1,29,-1
 305 451 l 1,30,-1
 241 263 l 1,25,-1
EndSplineSet
Substitution2: "'c2sc' Capitals to Small Capitals lookup 11 subtable" aring.sc
Substitution2: "'aalt' Access All Alternates lookup 0 subtable" aring.sc
EndChar

StartChar: AE
Encoding: 198 198 136
Width: 935
GlyphClass: 2
Flags: W
LayerCount: 2
Fore
SplineSet
563 108 m 1,0,-1
 897 108 l 1,1,-1
 897 0 l 1,2,-1
 432 0 l 1,3,-1
 432 202 l 1,4,-1
 232 202 l 1,5,-1
 141 0 l 1,6,-1
 0 0 l 1,7,-1
 321 660 l 1,8,-1
 883 660 l 1,9,-1
 883 552 l 1,10,-1
 563 552 l 1,11,-1
 563 384 l 1,12,-1
 807 384 l 1,13,-1
 807 281 l 1,14,-1
 563 281 l 1,15,-1
 563 108 l 1,0,-1
277 301 m 1,16,-1
 432 301 l 1,17,-1
 432 555 l 1,18,-1
 392 555 l 1,19,-1
 277 301 l 1,16,-1
EndSplineSet
Substitution2: "'c2sc' Capitals to Small Capitals lookup 11 subtable" ae.sc
Substitution2: "'aalt' Access All Alternates lookup 0 subtable" ae.sc
EndChar

StartChar: Ccedilla
Encoding: 199 199 137
Width: 683
GlyphClass: 2
Flags: W
LayerCount: 2
Fore
SplineSet
651 182 m 1,0,1
 627 104 627 104 572 57 c 128,-1,2
 517 10 517 10 439 -4 c 1,3,4
 494 -43 494 -43 494 -101 c 0,5,6
 494 -154 494 -154 457.5 -184.5 c 128,-1,7
 421 -215 421 -215 361 -215 c 0,8,9
 283 -215 283 -215 242 -177 c 1,10,-1
 278 -106 l 1,11,12
 306 -136 306 -136 349 -136 c 0,13,14
 373 -136 373 -136 388.5 -121.5 c 128,-1,15
 404 -107 404 -107 404 -83 c 0,16,17
 404 -58 404 -58 389 -41 c 128,-1,18
 374 -24 374 -24 333 -8 c 1,19,20
 202 3 202 3 127.5 92.5 c 128,-1,21
 53 182 53 182 53 330 c 0,22,23
 53 488 53 488 138.5 579 c 128,-1,24
 224 670 224 670 369 670 c 0,25,26
 472 670 472 670 543.5 627 c 128,-1,27
 615 584 615 584 642 499 c 1,28,-1
 517 446 l 1,29,30
 501 505 501 505 467 531 c 128,-1,31
 433 557 433 557 375 557 c 0,32,33
 291 557 291 557 243.5 498 c 128,-1,34
 196 439 196 439 196 330 c 128,-1,35
 196 221 196 221 242 162 c 128,-1,36
 288 103 288 103 372 103 c 0,37,38
 493 103 493 103 524 220 c 1,39,-1
 651 182 l 1,0,1
EndSplineSet
Substitution2: "'c2sc' Capitals to Small Capitals lookup 11 subtable" ccedilla.sc
Substitution2: "'aalt' Access All Alternates lookup 0 subtable" ccedilla.sc
EndChar

StartChar: Egrave
Encoding: 200 200 138
Width: 633
GlyphClass: 2
Flags: W
AnchorPoint: "Anchor-0" 335 0 basechar 0
LayerCount: 2
Fore
SplineSet
398 730 m 1,0,-1
 295 730 l 1,1,-1
 206 885 l 1,2,-1
 342 885 l 1,3,-1
 398 730 l 1,0,-1
224 111 m 1,4,-1
 595 111 l 1,5,-1
 595 0 l 1,6,-1
 86 0 l 1,7,-1
 86 660 l 1,8,-1
 581 660 l 1,9,-1
 581 549 l 1,10,-1
 224 549 l 1,11,-1
 224 385 l 1,12,-1
 505 385 l 1,13,-1
 505 279 l 1,14,-1
 224 279 l 1,15,-1
 224 111 l 1,4,-1
EndSplineSet
Substitution2: "Single Substitution lookup 57 subtable" Egrave.swsh.001
Substitution2: "Single Substitution lookup 56 subtable" Egrave.swsh
AlternateSubs2: "'swsh' Swash lookup 33 subtable" Egrave.swsh Egrave.swsh.001
Substitution2: "'c2sc' Capitals to Small Capitals lookup 11 subtable" egrave.sc
AlternateSubs2: "'aalt' Access All Alternates lookup 1 subtable" egrave.sc Egrave.swsh Egrave.swsh.001
EndChar

StartChar: Eacute
Encoding: 201 201 139
Width: 633
GlyphClass: 2
Flags: W
AnchorPoint: "Anchor-0" 335 0 basechar 0
LayerCount: 2
Fore
SplineSet
460 885 m 1,0,-1
 371 730 l 1,1,-1
 268 730 l 1,2,-1
 324 885 l 1,3,-1
 460 885 l 1,0,-1
224 111 m 1,4,-1
 595 111 l 1,5,-1
 595 0 l 1,6,-1
 86 0 l 1,7,-1
 86 660 l 1,8,-1
 581 660 l 1,9,-1
 581 549 l 1,10,-1
 224 549 l 1,11,-1
 224 385 l 1,12,-1
 505 385 l 1,13,-1
 505 279 l 1,14,-1
 224 279 l 1,15,-1
 224 111 l 1,4,-1
EndSplineSet
Substitution2: "Single Substitution lookup 57 subtable" Eacute.swsh.001
Substitution2: "Single Substitution lookup 56 subtable" Eacute.swsh
AlternateSubs2: "'swsh' Swash lookup 33 subtable" Eacute.swsh Eacute.swsh.001
Substitution2: "'c2sc' Capitals to Small Capitals lookup 11 subtable" eacute.sc
AlternateSubs2: "'aalt' Access All Alternates lookup 1 subtable" eacute.sc Eacute.swsh Eacute.swsh.001
EndChar

StartChar: Ecircumflex
Encoding: 202 202 140
Width: 633
GlyphClass: 2
Flags: W
AnchorPoint: "Anchor-0" 335 0 basechar 0
LayerCount: 2
Fore
SplineSet
329 824 m 1,0,-1
 255 726 l 1,1,-1
 149 726 l 1,2,-1
 260 893 l 1,3,-1
 398 893 l 1,4,-1
 509 726 l 1,5,-1
 403 726 l 1,6,-1
 329 824 l 1,0,-1
224 111 m 1,7,-1
 595 111 l 1,8,-1
 595 0 l 1,9,-1
 86 0 l 1,10,-1
 86 660 l 1,11,-1
 581 660 l 1,12,-1
 581 549 l 1,13,-1
 224 549 l 1,14,-1
 224 385 l 1,15,-1
 505 385 l 1,16,-1
 505 279 l 1,17,-1
 224 279 l 1,18,-1
 224 111 l 1,7,-1
EndSplineSet
Substitution2: "Single Substitution lookup 57 subtable" Ecircumflex.swsh.001
Substitution2: "Single Substitution lookup 56 subtable" Ecircumflex.swsh
AlternateSubs2: "'swsh' Swash lookup 33 subtable" Ecircumflex.swsh Ecircumflex.swsh.001
Substitution2: "'c2sc' Capitals to Small Capitals lookup 11 subtable" ecircumflex.sc
AlternateSubs2: "'aalt' Access All Alternates lookup 1 subtable" ecircumflex.sc Ecircumflex.swsh Ecircumflex.swsh.001
EndChar

StartChar: Edieresis
Encoding: 203 203 141
Width: 633
GlyphClass: 2
Flags: W
AnchorPoint: "Anchor-0" 335 0 basechar 0
LayerCount: 2
Fore
SplineSet
223 725 m 0,0,1
 189 725 189 725 169 744 c 128,-1,2
 149 763 149 763 149 795 c 128,-1,3
 149 827 149 827 169 846 c 128,-1,4
 189 865 189 865 223 865 c 0,5,6
 258 865 258 865 278 846 c 128,-1,7
 298 827 298 827 298 795 c 128,-1,8
 298 763 298 763 278 744 c 128,-1,9
 258 725 258 725 223 725 c 0,0,1
433 725 m 0,10,11
 399 725 399 725 379 744 c 128,-1,12
 359 763 359 763 359 795 c 128,-1,13
 359 827 359 827 379 846 c 128,-1,14
 399 865 399 865 433 865 c 0,15,16
 468 865 468 865 488.5 846 c 128,-1,17
 509 827 509 827 509 795 c 128,-1,18
 509 763 509 763 488.5 744 c 128,-1,19
 468 725 468 725 433 725 c 0,10,11
224 111 m 1,20,-1
 595 111 l 1,21,-1
 595 0 l 1,22,-1
 86 0 l 1,23,-1
 86 660 l 1,24,-1
 581 660 l 1,25,-1
 581 549 l 1,26,-1
 224 549 l 1,27,-1
 224 385 l 1,28,-1
 505 385 l 1,29,-1
 505 279 l 1,30,-1
 224 279 l 1,31,-1
 224 111 l 1,20,-1
EndSplineSet
Substitution2: "Single Substitution lookup 57 subtable" Edieresis.swsh.001
Substitution2: "Single Substitution lookup 56 subtable" Edieresis.swsh
AlternateSubs2: "'swsh' Swash lookup 33 subtable" Edieresis.swsh Edieresis.swsh.001
Substitution2: "'c2sc' Capitals to Small Capitals lookup 11 subtable" edieresis.sc
AlternateSubs2: "'aalt' Access All Alternates lookup 1 subtable" edieresis.sc Edieresis.swsh Edieresis.swsh.001
EndChar

StartChar: Igrave
Encoding: 204 204 142
Width: 310
GlyphClass: 2
Flags: W
LayerCount: 2
Fore
SplineSet
147 885 m 1,0,-1
 203 730 l 1,1,-1
 100 730 l 1,2,-1
 11 885 l 1,3,-1
 147 885 l 1,0,-1
224 660 m 1,4,-1
 224 0 l 1,5,-1
 86 0 l 1,6,-1
 86 660 l 1,7,-1
 224 660 l 1,4,-1
EndSplineSet
Substitution2: "'c2sc' Capitals to Small Capitals lookup 11 subtable" igrave.sc
Substitution2: "'aalt' Access All Alternates lookup 0 subtable" igrave.sc
EndChar

StartChar: Iacute
Encoding: 205 205 143
Width: 310
GlyphClass: 2
Flags: W
LayerCount: 2
Fore
SplineSet
150 885 m 1,0,-1
 286 885 l 1,1,-1
 197 730 l 1,2,-1
 94 730 l 1,3,-1
 150 885 l 1,0,-1
224 660 m 1,4,-1
 224 0 l 1,5,-1
 86 0 l 1,6,-1
 86 660 l 1,7,-1
 224 660 l 1,4,-1
EndSplineSet
Substitution2: "'c2sc' Capitals to Small Capitals lookup 11 subtable" iacute.sc
Substitution2: "'aalt' Access All Alternates lookup 0 subtable" iacute.sc
EndChar

StartChar: Icircumflex
Encoding: 206 206 144
Width: 310
GlyphClass: 2
Flags: W
LayerCount: 2
Fore
SplineSet
335 726 m 1,0,-1
 229 726 l 1,1,-1
 155 824 l 1,2,-1
 81 726 l 1,3,-1
 -25 726 l 1,4,-1
 86 893 l 1,5,-1
 224 893 l 1,6,-1
 335 726 l 1,0,-1
224 660 m 1,7,-1
 224 0 l 1,8,-1
 86 0 l 1,9,-1
 86 660 l 1,10,-1
 224 660 l 1,7,-1
EndSplineSet
Substitution2: "'c2sc' Capitals to Small Capitals lookup 11 subtable" icircumflex.sc
Substitution2: "'aalt' Access All Alternates lookup 0 subtable" icircumflex.sc
EndChar

StartChar: Idieresis
Encoding: 207 207 145
Width: 310
GlyphClass: 2
Flags: W
LayerCount: 2
Fore
SplineSet
58 865 m 0,0,1
 92 865 92 865 112 846 c 128,-1,2
 132 827 132 827 132 795 c 128,-1,3
 132 763 132 763 112 744 c 128,-1,4
 92 725 92 725 58 725 c 0,5,6
 25 725 25 725 5.5 744 c 128,-1,7
 -14 763 -14 763 -14 795 c 128,-1,8
 -14 827 -14 827 5.5 846 c 128,-1,9
 25 865 25 865 58 865 c 0,0,1
250 865 m 0,10,11
 284 865 284 865 304 846 c 128,-1,12
 324 827 324 827 324 795 c 128,-1,13
 324 763 324 763 304 744 c 128,-1,14
 284 725 284 725 250 725 c 0,15,16
 217 725 217 725 197.5 744 c 128,-1,17
 178 763 178 763 178 795 c 128,-1,18
 178 827 178 827 197.5 846 c 128,-1,19
 217 865 217 865 250 865 c 0,10,11
224 660 m 1,20,-1
 224 0 l 1,21,-1
 86 0 l 1,22,-1
 86 660 l 1,23,-1
 224 660 l 1,20,-1
EndSplineSet
Substitution2: "'c2sc' Capitals to Small Capitals lookup 11 subtable" idieresis.sc
Substitution2: "'aalt' Access All Alternates lookup 0 subtable" idieresis.sc
EndChar

StartChar: Eth
Encoding: 208 208 146
Width: 740
GlyphClass: 2
Flags: W
LayerCount: 2
Fore
SplineSet
362 660 m 2,0,1
 517 660 517 660 602 574 c 128,-1,2
 687 488 687 488 687 330 c 128,-1,3
 687 172 687 172 602 86 c 128,-1,4
 517 0 517 0 362 0 c 2,5,-1
 107 0 l 1,6,-1
 107 284 l 1,7,-1
 18 284 l 1,8,-1
 18 378 l 1,9,-1
 107 378 l 1,10,-1
 107 660 l 1,11,-1
 362 660 l 2,0,1
355 110 m 2,12,13
 449 110 449 110 496.5 166.5 c 128,-1,14
 544 223 544 223 544 330 c 128,-1,15
 544 437 544 437 496.5 493.5 c 128,-1,16
 449 550 449 550 355 550 c 2,17,-1
 245 550 l 1,18,-1
 245 378 l 1,19,-1
 399 378 l 1,20,-1
 399 284 l 1,21,-1
 245 284 l 1,22,-1
 245 110 l 1,23,-1
 355 110 l 2,12,13
EndSplineSet
Substitution2: "'c2sc' Capitals to Small Capitals lookup 11 subtable" eth.sc
Substitution2: "'aalt' Access All Alternates lookup 0 subtable" eth.sc
EndChar

StartChar: Ntilde
Encoding: 209 209 147
Width: 739
GlyphClass: 2
Flags: W
AnchorPoint: "Anchor-0" 388 0 basechar 0
LayerCount: 2
Fore
SplineSet
563 878 m 1,0,1
 556 728 556 728 438 728 c 0,2,3
 405 728 405 728 380.5 743 c 128,-1,4
 356 758 356 758 338.5 773.5 c 128,-1,5
 321 789 321 789 305 789 c 0,6,7
 271 789 271 789 263 728 c 1,8,-1
 179 728 l 1,9,10
 186 878 186 878 305 878 c 0,11,12
 337 878 337 878 361.5 863 c 128,-1,13
 386 848 386 848 404 832.5 c 128,-1,14
 422 817 422 817 437 817 c 0,15,16
 471 817 471 817 479 878 c 1,17,-1
 563 878 l 1,0,1
653 660 m 1,18,-1
 653 0 l 1,19,-1
 495 0 l 1,20,-1
 264 388 l 1,21,-1
 207 499 l 1,22,-1
 206 499 l 1,23,-1
 210 382 l 1,24,-1
 210 0 l 1,25,-1
 86 0 l 1,26,-1
 86 660 l 1,27,-1
 243 660 l 1,28,-1
 474 273 l 1,29,-1
 531 161 l 1,30,-1
 533 161 l 1,31,-1
 529 278 l 1,32,-1
 529 660 l 1,33,-1
 653 660 l 1,18,-1
EndSplineSet
Substitution2: "Single Substitution lookup 57 subtable" Ntilde.swsh
Substitution2: "'swsh' Swash lookup 36 subtable" Ntilde.swsh
Substitution2: "'c2sc' Capitals to Small Capitals lookup 11 subtable" ntilde.sc
AlternateSubs2: "'aalt' Access All Alternates lookup 1 subtable" ntilde.sc Ntilde.swsh
EndChar

StartChar: Ograve
Encoding: 210 210 148
Width: 741
GlyphClass: 2
Flags: W
LayerCount: 2
Fore
SplineSet
363 885 m 1,0,-1
 419 730 l 1,1,-1
 316 730 l 1,2,-1
 227 885 l 1,3,-1
 363 885 l 1,0,-1
371 670 m 128,-1,5
 518 670 518 670 603 579.5 c 128,-1,6
 688 489 688 489 688 330 c 128,-1,7
 688 171 688 171 603 80.5 c 128,-1,8
 518 -10 518 -10 371 -10 c 128,-1,9
 224 -10 224 -10 138.5 80.5 c 128,-1,10
 53 171 53 171 53 330 c 128,-1,11
 53 489 53 489 138.5 579.5 c 128,-1,4
 224 670 224 670 371 670 c 128,-1,5
371 557 m 0,12,13
 287 557 287 557 241.5 498.5 c 128,-1,14
 196 440 196 440 196 330 c 128,-1,15
 196 220 196 220 241.5 161.5 c 128,-1,16
 287 103 287 103 371 103 c 0,17,18
 454 103 454 103 499.5 161.5 c 128,-1,19
 545 220 545 220 545 330 c 128,-1,20
 545 440 545 440 499.5 498.5 c 128,-1,21
 454 557 454 557 371 557 c 0,12,13
EndSplineSet
Substitution2: "'c2sc' Capitals to Small Capitals lookup 11 subtable" ograve.sc
Substitution2: "'aalt' Access All Alternates lookup 0 subtable" ograve.sc
EndChar

StartChar: Oacute
Encoding: 211 211 149
Width: 741
GlyphClass: 2
Flags: W
LayerCount: 2
Fore
SplineSet
366 885 m 1,0,-1
 502 885 l 1,1,-1
 413 730 l 1,2,-1
 310 730 l 1,3,-1
 366 885 l 1,0,-1
371 670 m 128,-1,5
 518 670 518 670 603 579.5 c 128,-1,6
 688 489 688 489 688 330 c 128,-1,7
 688 171 688 171 603 80.5 c 128,-1,8
 518 -10 518 -10 371 -10 c 128,-1,9
 224 -10 224 -10 138.5 80.5 c 128,-1,10
 53 171 53 171 53 330 c 128,-1,11
 53 489 53 489 138.5 579.5 c 128,-1,4
 224 670 224 670 371 670 c 128,-1,5
371 557 m 0,12,13
 287 557 287 557 241.5 498.5 c 128,-1,14
 196 440 196 440 196 330 c 128,-1,15
 196 220 196 220 241.5 161.5 c 128,-1,16
 287 103 287 103 371 103 c 0,17,18
 454 103 454 103 499.5 161.5 c 128,-1,19
 545 220 545 220 545 330 c 128,-1,20
 545 440 545 440 499.5 498.5 c 128,-1,21
 454 557 454 557 371 557 c 0,12,13
EndSplineSet
Substitution2: "'c2sc' Capitals to Small Capitals lookup 11 subtable" oacute.sc
Substitution2: "'aalt' Access All Alternates lookup 0 subtable" oacute.sc
EndChar

StartChar: Ocircumflex
Encoding: 212 212 150
Width: 741
GlyphClass: 2
Flags: W
LayerCount: 2
Fore
SplineSet
551 726 m 1,0,-1
 445 726 l 1,1,-1
 371 824 l 1,2,-1
 297 726 l 1,3,-1
 191 726 l 1,4,-1
 302 893 l 1,5,-1
 440 893 l 1,6,-1
 551 726 l 1,0,-1
371 670 m 128,-1,8
 518 670 518 670 603 579.5 c 128,-1,9
 688 489 688 489 688 330 c 128,-1,10
 688 171 688 171 603 80.5 c 128,-1,11
 518 -10 518 -10 371 -10 c 128,-1,12
 224 -10 224 -10 138.5 80.5 c 128,-1,13
 53 171 53 171 53 330 c 128,-1,14
 53 489 53 489 138.5 579.5 c 128,-1,7
 224 670 224 670 371 670 c 128,-1,8
371 557 m 0,15,16
 287 557 287 557 241.5 498.5 c 128,-1,17
 196 440 196 440 196 330 c 128,-1,18
 196 220 196 220 241.5 161.5 c 128,-1,19
 287 103 287 103 371 103 c 0,20,21
 454 103 454 103 499.5 161.5 c 128,-1,22
 545 220 545 220 545 330 c 128,-1,23
 545 440 545 440 499.5 498.5 c 128,-1,24
 454 557 454 557 371 557 c 0,15,16
EndSplineSet
Substitution2: "'c2sc' Capitals to Small Capitals lookup 11 subtable" ocircumflex.sc
Substitution2: "'aalt' Access All Alternates lookup 0 subtable" ocircumflex.sc
EndChar

StartChar: Otilde
Encoding: 213 213 151
Width: 741
GlyphClass: 2
Flags: W
LayerCount: 2
Fore
SplineSet
562 878 m 1,0,1
 554 728 554 728 437 728 c 0,2,3
 404 728 404 728 379.5 743 c 128,-1,4
 355 758 355 758 337.5 773.5 c 128,-1,5
 320 789 320 789 304 789 c 0,6,7
 270 789 270 789 262 728 c 1,8,-1
 178 728 l 1,9,10
 186 878 186 878 304 878 c 0,11,12
 329 878 329 878 350.5 868.5 c 128,-1,13
 372 859 372 859 383.5 847.5 c 128,-1,14
 395 836 395 836 409 826.5 c 128,-1,15
 423 817 423 817 436 817 c 0,16,17
 470 817 470 817 478 878 c 1,18,-1
 562 878 l 1,0,1
371 670 m 128,-1,20
 518 670 518 670 603 579.5 c 128,-1,21
 688 489 688 489 688 330 c 128,-1,22
 688 171 688 171 603 80.5 c 128,-1,23
 518 -10 518 -10 371 -10 c 128,-1,24
 224 -10 224 -10 138.5 80.5 c 128,-1,25
 53 171 53 171 53 330 c 128,-1,26
 53 489 53 489 138.5 579.5 c 128,-1,19
 224 670 224 670 371 670 c 128,-1,20
371 557 m 0,27,28
 287 557 287 557 241.5 498.5 c 128,-1,29
 196 440 196 440 196 330 c 128,-1,30
 196 220 196 220 241.5 161.5 c 128,-1,31
 287 103 287 103 371 103 c 0,32,33
 454 103 454 103 499.5 161.5 c 128,-1,34
 545 220 545 220 545 330 c 128,-1,35
 545 440 545 440 499.5 498.5 c 128,-1,36
 454 557 454 557 371 557 c 0,27,28
EndSplineSet
Substitution2: "'c2sc' Capitals to Small Capitals lookup 11 subtable" otilde.sc
Substitution2: "'aalt' Access All Alternates lookup 0 subtable" otilde.sc
EndChar

StartChar: Odieresis
Encoding: 214 214 152
Width: 741
GlyphClass: 2
Flags: W
LayerCount: 2
Fore
SplineSet
265 865 m 0,0,1
 300 865 300 865 320 846 c 128,-1,2
 340 827 340 827 340 795 c 128,-1,3
 340 763 340 763 320 744 c 128,-1,4
 300 725 300 725 265 725 c 0,5,6
 231 725 231 725 211 744 c 128,-1,7
 191 763 191 763 191 795 c 128,-1,8
 191 827 191 827 211 846 c 128,-1,9
 231 865 231 865 265 865 c 0,0,1
475 865 m 0,10,11
 510 865 510 865 530.5 846 c 128,-1,12
 551 827 551 827 551 795 c 128,-1,13
 551 763 551 763 530.5 744 c 128,-1,14
 510 725 510 725 475 725 c 0,15,16
 441 725 441 725 421 744 c 128,-1,17
 401 763 401 763 401 795 c 128,-1,18
 401 827 401 827 421 846 c 128,-1,19
 441 865 441 865 475 865 c 0,10,11
371 670 m 128,-1,21
 518 670 518 670 603 579.5 c 128,-1,22
 688 489 688 489 688 330 c 128,-1,23
 688 171 688 171 603 80.5 c 128,-1,24
 518 -10 518 -10 371 -10 c 128,-1,25
 224 -10 224 -10 138.5 80.5 c 128,-1,26
 53 171 53 171 53 330 c 128,-1,27
 53 489 53 489 138.5 579.5 c 128,-1,20
 224 670 224 670 371 670 c 128,-1,21
371 557 m 0,28,29
 287 557 287 557 241.5 498.5 c 128,-1,30
 196 440 196 440 196 330 c 128,-1,31
 196 220 196 220 241.5 161.5 c 128,-1,32
 287 103 287 103 371 103 c 0,33,34
 454 103 454 103 499.5 161.5 c 128,-1,35
 545 220 545 220 545 330 c 128,-1,36
 545 440 545 440 499.5 498.5 c 128,-1,37
 454 557 454 557 371 557 c 0,28,29
EndSplineSet
Substitution2: "'titl' Titling lookup 41 subtable" Odieresis.titl
Substitution2: "'c2sc' Capitals to Small Capitals lookup 11 subtable" odieresis.sc
AlternateSubs2: "'aalt' Access All Alternates lookup 1 subtable" odieresis.sc Odieresis.titl
EndChar

StartChar: multiply
Encoding: 215 215 153
Width: 604
GlyphClass: 2
Flags: W
LayerCount: 2
Fore
SplineSet
539 483 m 1,0,-1
 379 323 l 1,1,-1
 539 163 l 1,2,-1
 462 85 l 1,3,-1
 302 245 l 1,4,-1
 142 85 l 1,5,-1
 64 163 l 1,6,-1
 224 323 l 1,7,-1
 64 483 l 1,8,-1
 142 561 l 1,9,-1
 302 401 l 1,10,-1
 462 561 l 1,11,-1
 539 483 l 1,0,-1
EndSplineSet
EndChar

StartChar: Oslash
Encoding: 216 216 154
Width: 741
GlyphClass: 2
Flags: W
LayerCount: 2
Fore
SplineSet
598 584 m 1,0,1
 688 494 688 494 688 330 c 0,2,3
 688 171 688 171 603 80.5 c 128,-1,4
 518 -10 518 -10 371 -10 c 0,5,6
 271 -10 271 -10 199 33 c 1,7,-1
 153 -31 l 1,8,-1
 73 -31 l 1,9,-1
 146 72 l 1,10,11
 53 165 53 165 53 330 c 0,12,13
 53 489 53 489 138.5 579.5 c 128,-1,14
 224 670 224 670 371 670 c 0,15,16
 473 670 473 670 547 625 c 1,17,-1
 588 682 l 1,18,-1
 668 682 l 1,19,-1
 598 584 l 1,0,1
371 557 m 0,20,21
 287 557 287 557 241.5 498.5 c 128,-1,22
 196 440 196 440 196 330 c 0,23,24
 196 236 196 236 229 180 c 1,25,-1
 472 526 l 1,26,27
 430 557 430 557 371 557 c 0,20,21
371 103 m 0,28,29
 454 103 454 103 499.5 161.5 c 128,-1,30
 545 220 545 220 545 330 c 0,31,32
 545 417 545 417 516 473 c 1,33,-1
 275 130 l 1,34,35
 314 103 314 103 371 103 c 0,28,29
EndSplineSet
Substitution2: "'c2sc' Capitals to Small Capitals lookup 11 subtable" oslash.sc
Substitution2: "'aalt' Access All Alternates lookup 0 subtable" oslash.sc
EndChar

StartChar: Ugrave
Encoding: 217 217 155
Width: 715
GlyphClass: 2
Flags: W
LayerCount: 2
Fore
SplineSet
350 885 m 1,0,-1
 406 730 l 1,1,-1
 303 730 l 1,2,-1
 214 885 l 1,3,-1
 350 885 l 1,0,-1
640 660 m 1,4,-1
 640 260 l 2,5,6
 640 126 640 126 568.5 58 c 128,-1,7
 497 -10 497 -10 358 -10 c 128,-1,8
 219 -10 219 -10 147.5 58 c 128,-1,9
 76 126 76 126 76 260 c 2,10,-1
 76 660 l 1,11,-1
 214 660 l 1,12,-1
 214 266 l 2,13,14
 214 103 214 103 358 103 c 0,15,16
 431 103 431 103 466 143 c 128,-1,17
 501 183 501 183 501 266 c 2,18,-1
 501 660 l 1,19,-1
 640 660 l 1,4,-1
EndSplineSet
Substitution2: "'c2sc' Capitals to Small Capitals lookup 11 subtable" ugrave.sc
Substitution2: "'aalt' Access All Alternates lookup 0 subtable" ugrave.sc
EndChar

StartChar: Uacute
Encoding: 218 218 156
Width: 715
GlyphClass: 2
Flags: W
LayerCount: 2
Fore
SplineSet
353 885 m 1,0,-1
 489 885 l 1,1,-1
 400 730 l 1,2,-1
 297 730 l 1,3,-1
 353 885 l 1,0,-1
640 660 m 1,4,-1
 640 260 l 2,5,6
 640 126 640 126 568.5 58 c 128,-1,7
 497 -10 497 -10 358 -10 c 128,-1,8
 219 -10 219 -10 147.5 58 c 128,-1,9
 76 126 76 126 76 260 c 2,10,-1
 76 660 l 1,11,-1
 214 660 l 1,12,-1
 214 266 l 2,13,14
 214 103 214 103 358 103 c 0,15,16
 431 103 431 103 466 143 c 128,-1,17
 501 183 501 183 501 266 c 2,18,-1
 501 660 l 1,19,-1
 640 660 l 1,4,-1
EndSplineSet
Substitution2: "'c2sc' Capitals to Small Capitals lookup 11 subtable" uacute.sc
Substitution2: "'aalt' Access All Alternates lookup 0 subtable" uacute.sc
EndChar

StartChar: Ucircumflex
Encoding: 219 219 157
Width: 715
GlyphClass: 2
Flags: W
LayerCount: 2
Fore
SplineSet
538 726 m 1,0,-1
 432 726 l 1,1,-1
 358 824 l 1,2,-1
 284 726 l 1,3,-1
 178 726 l 1,4,-1
 289 893 l 1,5,-1
 427 893 l 1,6,-1
 538 726 l 1,0,-1
640 660 m 1,7,-1
 640 260 l 2,8,9
 640 126 640 126 568.5 58 c 128,-1,10
 497 -10 497 -10 358 -10 c 128,-1,11
 219 -10 219 -10 147.5 58 c 128,-1,12
 76 126 76 126 76 260 c 2,13,-1
 76 660 l 1,14,-1
 214 660 l 1,15,-1
 214 266 l 2,16,17
 214 103 214 103 358 103 c 0,18,19
 431 103 431 103 466 143 c 128,-1,20
 501 183 501 183 501 266 c 2,21,-1
 501 660 l 1,22,-1
 640 660 l 1,7,-1
EndSplineSet
Substitution2: "'c2sc' Capitals to Small Capitals lookup 11 subtable" ucircumflex.sc
Substitution2: "'aalt' Access All Alternates lookup 0 subtable" ucircumflex.sc
EndChar

StartChar: Udieresis
Encoding: 220 220 158
Width: 715
GlyphClass: 2
Flags: W
LayerCount: 2
Fore
SplineSet
252 865 m 0,0,1
 287 865 287 865 307 846 c 128,-1,2
 327 827 327 827 327 795 c 128,-1,3
 327 763 327 763 307 744 c 128,-1,4
 287 725 287 725 252 725 c 0,5,6
 218 725 218 725 198 744 c 128,-1,7
 178 763 178 763 178 795 c 128,-1,8
 178 827 178 827 198 846 c 128,-1,9
 218 865 218 865 252 865 c 0,0,1
462 865 m 0,10,11
 497 865 497 865 517.5 846 c 128,-1,12
 538 827 538 827 538 795 c 128,-1,13
 538 763 538 763 517.5 744 c 128,-1,14
 497 725 497 725 462 725 c 0,15,16
 428 725 428 725 408 744 c 128,-1,17
 388 763 388 763 388 795 c 128,-1,18
 388 827 388 827 408 846 c 128,-1,19
 428 865 428 865 462 865 c 0,10,11
640 660 m 1,20,-1
 640 260 l 2,21,22
 640 126 640 126 568.5 58 c 128,-1,23
 497 -10 497 -10 358 -10 c 128,-1,24
 219 -10 219 -10 147.5 58 c 128,-1,25
 76 126 76 126 76 260 c 2,26,-1
 76 660 l 1,27,-1
 214 660 l 1,28,-1
 214 266 l 2,29,30
 214 103 214 103 358 103 c 0,31,32
 431 103 431 103 466 143 c 128,-1,33
 501 183 501 183 501 266 c 2,34,-1
 501 660 l 1,35,-1
 640 660 l 1,20,-1
EndSplineSet
Substitution2: "'titl' Titling lookup 41 subtable" Udieresis.titl
Substitution2: "'c2sc' Capitals to Small Capitals lookup 11 subtable" udieresis.sc
AlternateSubs2: "'aalt' Access All Alternates lookup 1 subtable" udieresis.sc Udieresis.titl
EndChar

StartChar: Yacute
Encoding: 221 221 159
Width: 626
GlyphClass: 2
Flags: W
LayerCount: 2
Fore
SplineSet
308 885 m 1,0,-1
 444 885 l 1,1,-1
 355 730 l 1,2,-1
 252 730 l 1,3,-1
 308 885 l 1,0,-1
616 660 m 1,4,-1
 382 247 l 1,5,-1
 382 0 l 1,6,-1
 244 0 l 1,7,-1
 244 247 l 1,8,-1
 10 660 l 1,9,-1
 157 660 l 1,10,-1
 263 463 l 1,11,-1
 313 359 l 1,12,-1
 364 463 l 1,13,-1
 470 660 l 1,14,-1
 616 660 l 1,4,-1
EndSplineSet
Substitution2: "'c2sc' Capitals to Small Capitals lookup 11 subtable" yacute.sc
Substitution2: "'aalt' Access All Alternates lookup 0 subtable" yacute.sc
EndChar

StartChar: Thorn
Encoding: 222 222 160
Width: 652
GlyphClass: 2
Flags: W
LayerCount: 2
Fore
SplineSet
352 553 m 2,0,1
 477 553 477 553 542.5 498 c 128,-1,2
 608 443 608 443 607 337 c 0,3,4
 608 232 608 232 542.5 176.5 c 128,-1,5
 477 121 477 121 352 121 c 2,6,-1
 224 121 l 1,7,-1
 224 0 l 1,8,-1
 86 0 l 1,9,-1
 86 660 l 1,10,-1
 224 660 l 1,11,-1
 224 553 l 1,12,-1
 352 553 l 2,0,1
342 230 m 2,13,14
 467 230 467 230 467 337 c 128,-1,15
 467 444 467 444 342 444 c 2,16,-1
 224 444 l 1,17,-1
 224 230 l 1,18,-1
 342 230 l 2,13,14
EndSplineSet
Substitution2: "'c2sc' Capitals to Small Capitals lookup 11 subtable" thorn.sc
Substitution2: "'aalt' Access All Alternates lookup 0 subtable" thorn.sc
EndChar

StartChar: germandbls
Encoding: 223 223 161
Width: 637
GlyphClass: 2
Flags: W
LayerCount: 2
Fore
SplineSet
411 374 m 1,0,1
 500 374 500 374 547 320 c 128,-1,2
 594 266 594 266 594 189 c 0,3,4
 594 106 594 106 536.5 48 c 128,-1,5
 479 -10 479 -10 373 -10 c 0,6,7
 298 -10 298 -10 256 23 c 1,8,-1
 282 118 l 1,9,10
 309 94 309 94 356 94 c 0,11,12
 406 94 406 94 434 125 c 128,-1,13
 462 156 462 156 462 207 c 0,14,15
 462 260 462 260 428 288 c 128,-1,16
 394 316 394 316 330 316 c 2,17,-1
 285 316 l 1,18,-1
 296 420 l 1,19,-1
 330 420 l 2,20,21
 381 420 381 420 410 448.5 c 128,-1,22
 439 477 439 477 439 522 c 0,23,24
 439 618 439 618 332 618 c 0,25,26
 264 618 264 618 236.5 579.5 c 128,-1,27
 209 541 209 541 209 457 c 2,28,-1
 209 0 l 1,29,-1
 72 0 l 1,30,-1
 72 474 l 2,31,32
 72 594 72 594 134 659 c 128,-1,33
 196 724 196 724 337 724 c 0,34,35
 453 724 453 724 513.5 668.5 c 128,-1,36
 574 613 574 613 574 533 c 0,37,38
 574 471 574 471 531.5 423.5 c 128,-1,39
 489 376 489 376 411 376 c 1,40,-1
 411 374 l 1,0,1
EndSplineSet
Substitution2: "Single Substitution lookup 57 subtable" germandbls.calt
Substitution2: "'smcp' Lowercase to Small Capitals lookup 12 subtable" germandbls.sc
AlternateSubs2: "'aalt' Access All Alternates lookup 1 subtable" germandbls.sc germandbls.calt
EndChar

StartChar: agrave
Encoding: 224 224 162
Width: 574
GlyphClass: 2
Flags: W
LayerCount: 2
Fore
SplineSet
334 572 m 1,0,-1
 232 572 l 1,1,-1
 132 742 l 1,2,-1
 264 742 l 1,3,-1
 334 572 l 1,0,-1
529 83 m 0,4,5
 550 83 550 83 563 87 c 1,6,-1
 553 4 l 1,7,8
 525 -10 525 -10 488 -10 c 0,9,10
 392 -10 392 -10 373 65 c 1,11,12
 327 -10 327 -10 196 -10 c 0,13,14
 123 -10 123 -10 82 23 c 128,-1,15
 41 56 41 56 41 118 c 0,16,17
 41 240 41 240 236 276 c 2,18,-1
 356 299 l 1,19,-1
 356 323 l 2,20,21
 356 363 356 363 333.5 386.5 c 128,-1,22
 311 410 311 410 271 410 c 0,23,24
 176 410 176 410 156 325 c 1,25,-1
 47 371 l 1,26,27
 63 436 63 436 119 473 c 128,-1,28
 175 510 175 510 265 510 c 0,29,30
 372 510 372 510 432 463.5 c 128,-1,31
 492 417 492 417 492 326 c 2,32,-1
 492 121 l 2,33,34
 492 83 492 83 529 83 c 0,4,5
239 83 m 0,35,36
 283 83 283 83 319.5 104.5 c 128,-1,37
 356 126 356 126 356 163 c 2,38,-1
 356 215 l 1,39,-1
 249 191 l 2,40,41
 182 176 182 176 182 132 c 0,42,43
 182 83 182 83 239 83 c 0,35,36
EndSplineSet
Substitution2: "'smcp' Lowercase to Small Capitals lookup 12 subtable" agrave.sc
Substitution2: "'aalt' Access All Alternates lookup 0 subtable" agrave.sc
EndChar

StartChar: aacute
Encoding: 225 225 163
Width: 574
GlyphClass: 2
Flags: W
LayerCount: 2
Fore
SplineSet
411 742 m 1,0,-1
 311 572 l 1,1,-1
 209 572 l 1,2,-1
 279 742 l 1,3,-1
 411 742 l 1,0,-1
529 83 m 0,4,5
 550 83 550 83 563 87 c 1,6,-1
 553 4 l 1,7,8
 525 -10 525 -10 488 -10 c 0,9,10
 392 -10 392 -10 373 65 c 1,11,12
 327 -10 327 -10 196 -10 c 0,13,14
 123 -10 123 -10 82 23 c 128,-1,15
 41 56 41 56 41 118 c 0,16,17
 41 240 41 240 236 276 c 2,18,-1
 356 299 l 1,19,-1
 356 323 l 2,20,21
 356 363 356 363 333.5 386.5 c 128,-1,22
 311 410 311 410 271 410 c 0,23,24
 176 410 176 410 156 325 c 1,25,-1
 47 371 l 1,26,27
 63 436 63 436 119 473 c 128,-1,28
 175 510 175 510 265 510 c 0,29,30
 372 510 372 510 432 463.5 c 128,-1,31
 492 417 492 417 492 326 c 2,32,-1
 492 121 l 2,33,34
 492 83 492 83 529 83 c 0,4,5
239 83 m 0,35,36
 283 83 283 83 319.5 104.5 c 128,-1,37
 356 126 356 126 356 163 c 2,38,-1
 356 215 l 1,39,-1
 249 191 l 2,40,41
 182 176 182 176 182 132 c 0,42,43
 182 83 182 83 239 83 c 0,35,36
EndSplineSet
Substitution2: "'smcp' Lowercase to Small Capitals lookup 12 subtable" aacute.sc
Substitution2: "'aalt' Access All Alternates lookup 0 subtable" aacute.sc
EndChar

StartChar: acircumflex
Encoding: 226 226 164
Width: 574
GlyphClass: 2
Flags: W
LayerCount: 2
Fore
SplineSet
276 660 m 1,0,-1
 202 565 l 1,1,-1
 97 565 l 1,2,-1
 207 735 l 1,3,-1
 345 735 l 1,4,-1
 455 565 l 1,5,-1
 350 565 l 1,6,-1
 276 660 l 1,0,-1
529 83 m 0,7,8
 550 83 550 83 563 87 c 1,9,-1
 553 4 l 1,10,11
 525 -10 525 -10 488 -10 c 0,12,13
 392 -10 392 -10 373 65 c 1,14,15
 327 -10 327 -10 196 -10 c 0,16,17
 123 -10 123 -10 82 23 c 128,-1,18
 41 56 41 56 41 118 c 0,19,20
 41 240 41 240 236 276 c 2,21,-1
 356 299 l 1,22,-1
 356 323 l 2,23,24
 356 363 356 363 333.5 386.5 c 128,-1,25
 311 410 311 410 271 410 c 0,26,27
 176 410 176 410 156 325 c 1,28,-1
 47 371 l 1,29,30
 63 436 63 436 119 473 c 128,-1,31
 175 510 175 510 265 510 c 0,32,33
 372 510 372 510 432 463.5 c 128,-1,34
 492 417 492 417 492 326 c 2,35,-1
 492 121 l 2,36,37
 492 83 492 83 529 83 c 0,7,8
239 83 m 0,38,39
 283 83 283 83 319.5 104.5 c 128,-1,40
 356 126 356 126 356 163 c 2,41,-1
 356 215 l 1,42,-1
 249 191 l 2,43,44
 182 176 182 176 182 132 c 0,45,46
 182 83 182 83 239 83 c 0,38,39
EndSplineSet
Substitution2: "'smcp' Lowercase to Small Capitals lookup 12 subtable" acircumflex.sc
Substitution2: "'aalt' Access All Alternates lookup 0 subtable" acircumflex.sc
EndChar

StartChar: atilde
Encoding: 227 227 165
Width: 574
GlyphClass: 2
Flags: W
LayerCount: 2
Fore
SplineSet
209 629 m 0,0,1
 175 629 175 629 167 568 c 1,2,-1
 83 568 l 1,3,4
 90 718 90 718 209 718 c 0,5,6
 241 718 241 718 265.5 703 c 128,-1,7
 290 688 290 688 308 672.5 c 128,-1,8
 326 657 326 657 341 657 c 0,9,10
 375 657 375 657 383 718 c 1,11,-1
 467 718 l 1,12,13
 460 568 460 568 342 568 c 0,14,15
 309 568 309 568 284.5 583 c 128,-1,16
 260 598 260 598 242.5 613.5 c 128,-1,17
 225 629 225 629 209 629 c 0,0,1
529 83 m 0,18,19
 550 83 550 83 563 87 c 1,20,-1
 553 4 l 1,21,22
 525 -10 525 -10 488 -10 c 0,23,24
 392 -10 392 -10 373 65 c 1,25,26
 327 -10 327 -10 196 -10 c 0,27,28
 123 -10 123 -10 82 23 c 128,-1,29
 41 56 41 56 41 118 c 0,30,31
 41 240 41 240 236 276 c 2,32,-1
 356 299 l 1,33,-1
 356 323 l 2,34,35
 356 363 356 363 333.5 386.5 c 128,-1,36
 311 410 311 410 271 410 c 0,37,38
 176 410 176 410 156 325 c 1,39,-1
 47 371 l 1,40,41
 63 436 63 436 119 473 c 128,-1,42
 175 510 175 510 265 510 c 0,43,44
 372 510 372 510 432 463.5 c 128,-1,45
 492 417 492 417 492 326 c 2,46,-1
 492 121 l 2,47,48
 492 83 492 83 529 83 c 0,18,19
239 83 m 0,49,50
 283 83 283 83 319.5 104.5 c 128,-1,51
 356 126 356 126 356 163 c 2,52,-1
 356 215 l 1,53,-1
 249 191 l 2,54,55
 182 176 182 176 182 132 c 0,56,57
 182 83 182 83 239 83 c 0,49,50
EndSplineSet
Substitution2: "'smcp' Lowercase to Small Capitals lookup 12 subtable" atilde.sc
Substitution2: "'aalt' Access All Alternates lookup 0 subtable" atilde.sc
EndChar

StartChar: adieresis
Encoding: 228 228 166
Width: 574
GlyphClass: 2
Flags: W
LayerCount: 2
Fore
SplineSet
170 565 m 0,0,1
 136 565 136 565 116 584 c 128,-1,2
 96 603 96 603 96 635 c 128,-1,3
 96 667 96 667 116 686 c 128,-1,4
 136 705 136 705 170 705 c 0,5,6
 205 705 205 705 225 686 c 128,-1,7
 245 667 245 667 245 635 c 128,-1,8
 245 603 245 603 225 584 c 128,-1,9
 205 565 205 565 170 565 c 0,0,1
380 565 m 0,10,11
 346 565 346 565 326 584 c 128,-1,12
 306 603 306 603 306 635 c 128,-1,13
 306 667 306 667 326 686 c 128,-1,14
 346 705 346 705 380 705 c 0,15,16
 415 705 415 705 435.5 686 c 128,-1,17
 456 667 456 667 456 635 c 128,-1,18
 456 603 456 603 435.5 584 c 128,-1,19
 415 565 415 565 380 565 c 0,10,11
529 83 m 0,20,21
 550 83 550 83 563 87 c 1,22,-1
 553 4 l 1,23,24
 525 -10 525 -10 488 -10 c 0,25,26
 392 -10 392 -10 373 65 c 1,27,28
 327 -10 327 -10 196 -10 c 0,29,30
 123 -10 123 -10 82 23 c 128,-1,31
 41 56 41 56 41 118 c 0,32,33
 41 240 41 240 236 276 c 2,34,-1
 356 299 l 1,35,-1
 356 323 l 2,36,37
 356 363 356 363 333.5 386.5 c 128,-1,38
 311 410 311 410 271 410 c 0,39,40
 176 410 176 410 156 325 c 1,41,-1
 47 371 l 1,42,43
 63 436 63 436 119 473 c 128,-1,44
 175 510 175 510 265 510 c 0,45,46
 372 510 372 510 432 463.5 c 128,-1,47
 492 417 492 417 492 326 c 2,48,-1
 492 121 l 2,49,50
 492 83 492 83 529 83 c 0,20,21
239 83 m 0,51,52
 283 83 283 83 319.5 104.5 c 128,-1,53
 356 126 356 126 356 163 c 2,54,-1
 356 215 l 1,55,-1
 249 191 l 2,56,57
 182 176 182 176 182 132 c 0,58,59
 182 83 182 83 239 83 c 0,51,52
EndSplineSet
Substitution2: "'smcp' Lowercase to Small Capitals lookup 12 subtable" adieresis.sc
Substitution2: "'aalt' Access All Alternates lookup 0 subtable" adieresis.sc
EndChar

StartChar: aring
Encoding: 229 229 167
Width: 574
GlyphClass: 2
Flags: W
LayerCount: 2
Fore
SplineSet
275 560 m 128,-1,1
 214 560 214 560 178.5 592.5 c 128,-1,2
 143 625 143 625 143 680 c 128,-1,3
 143 735 143 735 178.5 767.5 c 128,-1,4
 214 800 214 800 275 800 c 128,-1,5
 336 800 336 800 371 767.5 c 128,-1,6
 406 735 406 735 406 680 c 128,-1,7
 406 625 406 625 371 592.5 c 128,-1,0
 336 560 336 560 275 560 c 128,-1,1
275 738 m 128,-1,9
 249 738 249 738 232.5 722 c 128,-1,10
 216 706 216 706 216 680 c 0,11,12
 216 655 216 655 232.5 639 c 128,-1,13
 249 623 249 623 275 623 c 128,-1,14
 301 623 301 623 317.5 639 c 128,-1,15
 334 655 334 655 334 680 c 0,16,17
 334 706 334 706 317.5 722 c 128,-1,8
 301 738 301 738 275 738 c 128,-1,9
529 83 m 0,18,19
 550 83 550 83 563 87 c 1,20,-1
 553 4 l 1,21,22
 525 -10 525 -10 488 -10 c 0,23,24
 392 -10 392 -10 373 65 c 1,25,26
 327 -10 327 -10 196 -10 c 0,27,28
 123 -10 123 -10 82 23 c 128,-1,29
 41 56 41 56 41 118 c 0,30,31
 41 240 41 240 236 276 c 2,32,-1
 356 299 l 1,33,-1
 356 323 l 2,34,35
 356 363 356 363 333.5 386.5 c 128,-1,36
 311 410 311 410 271 410 c 0,37,38
 176 410 176 410 156 325 c 1,39,-1
 47 371 l 1,40,41
 63 436 63 436 119 473 c 128,-1,42
 175 510 175 510 265 510 c 0,43,44
 372 510 372 510 432 463.5 c 128,-1,45
 492 417 492 417 492 326 c 2,46,-1
 492 121 l 2,47,48
 492 83 492 83 529 83 c 0,18,19
239 83 m 0,49,50
 283 83 283 83 319.5 104.5 c 128,-1,51
 356 126 356 126 356 163 c 2,52,-1
 356 215 l 1,53,-1
 249 191 l 2,54,55
 182 176 182 176 182 132 c 0,56,57
 182 83 182 83 239 83 c 0,49,50
EndSplineSet
Substitution2: "'smcp' Lowercase to Small Capitals lookup 12 subtable" aring.sc
Substitution2: "'aalt' Access All Alternates lookup 0 subtable" aring.sc
EndChar

StartChar: ae
Encoding: 230 230 168
Width: 882
GlyphClass: 2
Flags: W
LayerCount: 2
Fore
SplineSet
836 272 m 0,0,1
 836 238 836 238 832 208 c 1,2,-1
 497 208 l 1,3,4
 505 150 505 150 536 121 c 128,-1,5
 567 92 567 92 614 92 c 0,6,7
 693 92 693 92 715 154 c 1,8,-1
 826 113 l 1,9,10
 777 -10 777 -10 611 -10 c 0,11,12
 482 -10 482 -10 426 86 c 1,13,14
 376 -10 376 -10 204 -10 c 0,15,16
 126 -10 126 -10 83.5 24.5 c 128,-1,17
 41 59 41 59 41 118 c 0,18,19
 41 237 41 237 227 272 c 2,20,-1
 361 298 l 1,21,-1
 361 323 l 2,22,23
 361 364 361 364 336.5 387 c 128,-1,24
 312 410 312 410 267 410 c 0,25,26
 184 410 184 410 158 328 c 1,27,-1
 49 366 l 1,28,29
 65 434 65 434 122.5 472 c 128,-1,30
 180 510 180 510 273 510 c 0,31,32
 391 510 391 510 441 429 c 1,33,34
 500 510 500 510 606 510 c 0,35,36
 717 510 717 510 776.5 444 c 128,-1,37
 836 378 836 378 836 272 c 0,0,1
610 409 m 0,38,39
 512 409 512 409 497 292 c 1,40,-1
 712 292 l 1,41,42
 701 409 701 409 610 409 c 0,38,39
245 83 m 0,43,44
 292 83 292 83 326.5 110 c 128,-1,45
 361 137 361 137 361 184 c 2,46,-1
 361 220 l 1,47,-1
 269 199 l 2,48,49
 222 187 222 187 202 173 c 128,-1,50
 182 159 182 159 182 132 c 0,51,52
 182 83 182 83 245 83 c 0,43,44
EndSplineSet
Substitution2: "'smcp' Lowercase to Small Capitals lookup 12 subtable" ae.sc
Substitution2: "'aalt' Access All Alternates lookup 0 subtable" ae.sc
EndChar

StartChar: ccedilla
Encoding: 231 231 169
Width: 569
GlyphClass: 2
Flags: W
LayerCount: 2
Fore
SplineSet
532 141 m 1,0,1
 519 85 519 85 477.5 46.5 c 128,-1,2
 436 8 436 8 371 -4 c 1,3,4
 426 -44 426 -44 426 -101 c 0,5,6
 426 -154 426 -154 389.5 -184.5 c 128,-1,7
 353 -215 353 -215 293 -215 c 0,8,9
 215 -215 215 -215 174 -177 c 1,10,-1
 210 -106 l 1,11,12
 238 -136 238 -136 281 -136 c 0,13,14
 305 -136 305 -136 320.5 -121.5 c 128,-1,15
 336 -107 336 -107 336 -83 c 0,16,17
 336 -58 336 -58 320 -41 c 128,-1,18
 304 -24 304 -24 263 -8 c 1,19,20
 159 4 159 4 102.5 71 c 128,-1,21
 46 138 46 138 46 250 c 0,22,23
 46 373 46 373 113.5 441.5 c 128,-1,24
 181 510 181 510 301 510 c 0,25,26
 487 510 487 510 530 363 c 1,27,-1
 402 317 l 1,28,29
 384 408 384 408 305 408 c 0,30,31
 246 408 246 408 214.5 367.5 c 128,-1,32
 183 327 183 327 183 249 c 128,-1,33
 183 171 183 171 215 131.5 c 128,-1,34
 247 92 247 92 304 92 c 0,35,36
 392 92 392 92 408 181 c 1,37,-1
 532 141 l 1,0,1
EndSplineSet
Substitution2: "'smcp' Lowercase to Small Capitals lookup 12 subtable" ccedilla.sc
Substitution2: "'aalt' Access All Alternates lookup 0 subtable" ccedilla.sc
EndChar

StartChar: egrave
Encoding: 232 232 170
Width: 582
GlyphClass: 2
Flags: W
AnchorPoint: "Anchor-0" 300 0 basechar 0
LayerCount: 2
Fore
SplineSet
353 572 m 1,0,-1
 251 572 l 1,1,-1
 151 742 l 1,2,-1
 283 742 l 1,3,-1
 353 572 l 1,0,-1
539 252 m 0,4,5
 539 224 539 224 535 198 c 1,6,-1
 181 198 l 1,7,8
 202 92 202 92 306 92 c 0,9,10
 394 92 394 92 416 154 c 1,11,-1
 528 113 l 1,12,13
 479 -10 479 -10 306 -10 c 0,14,15
 182 -10 182 -10 114 58.5 c 128,-1,16
 46 127 46 127 46 250 c 128,-1,17
 46 373 46 373 112 441.5 c 128,-1,18
 178 510 178 510 298 510 c 0,19,20
 414 510 414 510 476.5 443 c 128,-1,21
 539 376 539 376 539 252 c 0,4,5
297 409 m 0,22,23
 197 409 197 409 180 294 c 1,24,-1
 413 294 l 1,25,26
 405 350 405 350 375 379.5 c 128,-1,27
 345 409 345 409 297 409 c 0,22,23
EndSplineSet
Substitution2: "'smcp' Lowercase to Small Capitals lookup 12 subtable" egrave.sc
Substitution2: "'aalt' Access All Alternates lookup 0 subtable" egrave.sc
EndChar

StartChar: eacute
Encoding: 233 233 171
Width: 582
GlyphClass: 2
Flags: W
AnchorPoint: "Anchor-0" 300 0 basechar 0
LayerCount: 2
Fore
SplineSet
430 742 m 1,0,-1
 330 572 l 1,1,-1
 228 572 l 1,2,-1
 298 742 l 1,3,-1
 430 742 l 1,0,-1
539 252 m 0,4,5
 539 224 539 224 535 198 c 1,6,-1
 181 198 l 1,7,8
 202 92 202 92 306 92 c 0,9,10
 394 92 394 92 416 154 c 1,11,-1
 528 113 l 1,12,13
 479 -10 479 -10 306 -10 c 0,14,15
 182 -10 182 -10 114 58.5 c 128,-1,16
 46 127 46 127 46 250 c 128,-1,17
 46 373 46 373 112 441.5 c 128,-1,18
 178 510 178 510 298 510 c 0,19,20
 414 510 414 510 476.5 443 c 128,-1,21
 539 376 539 376 539 252 c 0,4,5
297 409 m 0,22,23
 197 409 197 409 180 294 c 1,24,-1
 413 294 l 1,25,26
 405 350 405 350 375 379.5 c 128,-1,27
 345 409 345 409 297 409 c 0,22,23
EndSplineSet
Substitution2: "'smcp' Lowercase to Small Capitals lookup 12 subtable" eacute.sc
Substitution2: "'aalt' Access All Alternates lookup 0 subtable" eacute.sc
EndChar

StartChar: ecircumflex
Encoding: 234 234 172
Width: 582
GlyphClass: 2
Flags: W
AnchorPoint: "Anchor-0" 300 0 basechar 0
LayerCount: 2
Fore
SplineSet
295 660 m 1,0,-1
 221 565 l 1,1,-1
 116 565 l 1,2,-1
 226 735 l 1,3,-1
 364 735 l 1,4,-1
 474 565 l 1,5,-1
 369 565 l 1,6,-1
 295 660 l 1,0,-1
539 252 m 0,7,8
 539 224 539 224 535 198 c 1,9,-1
 181 198 l 1,10,11
 202 92 202 92 306 92 c 0,12,13
 394 92 394 92 416 154 c 1,14,-1
 528 113 l 1,15,16
 479 -10 479 -10 306 -10 c 0,17,18
 182 -10 182 -10 114 58.5 c 128,-1,19
 46 127 46 127 46 250 c 128,-1,20
 46 373 46 373 112 441.5 c 128,-1,21
 178 510 178 510 298 510 c 0,22,23
 414 510 414 510 476.5 443 c 128,-1,24
 539 376 539 376 539 252 c 0,7,8
297 409 m 0,25,26
 197 409 197 409 180 294 c 1,27,-1
 413 294 l 1,28,29
 405 350 405 350 375 379.5 c 128,-1,30
 345 409 345 409 297 409 c 0,25,26
EndSplineSet
Substitution2: "'smcp' Lowercase to Small Capitals lookup 12 subtable" ecircumflex.sc
Substitution2: "'aalt' Access All Alternates lookup 0 subtable" ecircumflex.sc
EndChar

StartChar: edieresis
Encoding: 235 235 173
Width: 582
GlyphClass: 2
Flags: W
AnchorPoint: "Anchor-0" 300 0 basechar 0
LayerCount: 2
Fore
SplineSet
189 565 m 0,0,1
 155 565 155 565 135 584 c 128,-1,2
 115 603 115 603 115 635 c 128,-1,3
 115 667 115 667 135 686 c 128,-1,4
 155 705 155 705 189 705 c 0,5,6
 224 705 224 705 244 686 c 128,-1,7
 264 667 264 667 264 635 c 128,-1,8
 264 603 264 603 244 584 c 128,-1,9
 224 565 224 565 189 565 c 0,0,1
399 565 m 0,10,11
 365 565 365 565 345 584 c 128,-1,12
 325 603 325 603 325 635 c 128,-1,13
 325 667 325 667 345 686 c 128,-1,14
 365 705 365 705 399 705 c 0,15,16
 434 705 434 705 454.5 686 c 128,-1,17
 475 667 475 667 475 635 c 128,-1,18
 475 603 475 603 454.5 584 c 128,-1,19
 434 565 434 565 399 565 c 0,10,11
539 252 m 0,20,21
 539 224 539 224 535 198 c 1,22,-1
 181 198 l 1,23,24
 202 92 202 92 306 92 c 0,25,26
 394 92 394 92 416 154 c 1,27,-1
 528 113 l 1,28,29
 479 -10 479 -10 306 -10 c 0,30,31
 182 -10 182 -10 114 58.5 c 128,-1,32
 46 127 46 127 46 250 c 128,-1,33
 46 373 46 373 112 441.5 c 128,-1,34
 178 510 178 510 298 510 c 0,35,36
 414 510 414 510 476.5 443 c 128,-1,37
 539 376 539 376 539 252 c 0,20,21
297 409 m 0,38,39
 197 409 197 409 180 294 c 1,40,-1
 413 294 l 1,41,42
 405 350 405 350 375 379.5 c 128,-1,43
 345 409 345 409 297 409 c 0,38,39
EndSplineSet
Substitution2: "'smcp' Lowercase to Small Capitals lookup 12 subtable" edieresis.sc
Substitution2: "'aalt' Access All Alternates lookup 0 subtable" edieresis.sc
EndChar

StartChar: igrave
Encoding: 236 236 174
Width: 282
GlyphClass: 2
Flags: W
LayerCount: 2
Fore
SplineSet
129 742 m 1,0,-1
 199 572 l 1,1,-1
 97 572 l 1,2,-1
 -3 742 l 1,3,-1
 129 742 l 1,0,-1
209 500 m 1,4,-1
 209 0 l 1,5,-1
 72 0 l 1,6,-1
 72 500 l 1,7,-1
 209 500 l 1,4,-1
EndSplineSet
Substitution2: "'smcp' Lowercase to Small Capitals lookup 12 subtable" igrave.sc
Substitution2: "'aalt' Access All Alternates lookup 0 subtable" igrave.sc
EndChar

StartChar: iacute
Encoding: 237 237 175
Width: 282
GlyphClass: 2
Flags: W
LayerCount: 2
Fore
SplineSet
150 742 m 1,0,-1
 282 742 l 1,1,-1
 182 572 l 1,2,-1
 80 572 l 1,3,-1
 150 742 l 1,0,-1
209 500 m 1,4,-1
 209 0 l 1,5,-1
 72 0 l 1,6,-1
 72 500 l 1,7,-1
 209 500 l 1,4,-1
EndSplineSet
Substitution2: "'smcp' Lowercase to Small Capitals lookup 12 subtable" iacute.sc
Substitution2: "'aalt' Access All Alternates lookup 0 subtable" iacute.sc
EndChar

StartChar: icircumflex
Encoding: 238 238 176
Width: 282
GlyphClass: 2
Flags: W
LayerCount: 2
Fore
SplineSet
320 565 m 1,0,-1
 215 565 l 1,1,-1
 141 660 l 1,2,-1
 67 565 l 1,3,-1
 -38 565 l 1,4,-1
 72 735 l 1,5,-1
 210 735 l 1,6,-1
 320 565 l 1,0,-1
209 500 m 1,7,-1
 209 0 l 1,8,-1
 72 0 l 1,9,-1
 72 500 l 1,10,-1
 209 500 l 1,7,-1
EndSplineSet
Substitution2: "'smcp' Lowercase to Small Capitals lookup 12 subtable" icircumflex.sc
Substitution2: "'aalt' Access All Alternates lookup 0 subtable" icircumflex.sc
EndChar

StartChar: idieresis
Encoding: 239 239 177
Width: 282
GlyphClass: 2
Flags: W
LayerCount: 2
Fore
SplineSet
51 564 m 128,-1,1
 17 564 17 564 -2 582.5 c 128,-1,2
 -21 601 -21 601 -21 635 c 128,-1,3
 -21 669 -21 669 -2 687.5 c 128,-1,4
 17 706 17 706 51 706 c 128,-1,5
 85 706 85 706 104 687.5 c 128,-1,6
 123 669 123 669 123 635 c 128,-1,7
 123 601 123 601 104 582.5 c 128,-1,0
 85 564 85 564 51 564 c 128,-1,1
231 564 m 128,-1,9
 197 564 197 564 178 582.5 c 128,-1,10
 159 601 159 601 159 635 c 128,-1,11
 159 669 159 669 178 687.5 c 128,-1,12
 197 706 197 706 231 706 c 128,-1,13
 265 706 265 706 284 687.5 c 128,-1,14
 303 669 303 669 303 635 c 128,-1,15
 303 601 303 601 284 582.5 c 128,-1,8
 265 564 265 564 231 564 c 128,-1,9
209 500 m 1,16,-1
 209 0 l 1,17,-1
 72 0 l 1,18,-1
 72 500 l 1,19,-1
 209 500 l 1,16,-1
EndSplineSet
Substitution2: "'smcp' Lowercase to Small Capitals lookup 12 subtable" idieresis.sc
Substitution2: "'aalt' Access All Alternates lookup 0 subtable" idieresis.sc
EndChar

StartChar: eth
Encoding: 240 240 178
Width: 610
GlyphClass: 2
Flags: W
LayerCount: 2
Fore
SplineSet
559 621 m 1,0,-1
 462 607 l 1,1,2
 556 481 556 481 556 298 c 0,3,4
 556 -10 556 -10 295 -10 c 0,5,6
 180 -10 180 -10 114.5 56.5 c 128,-1,7
 49 123 49 123 49 241 c 0,8,9
 49 357 49 357 115.5 424 c 128,-1,10
 182 491 182 491 289 491 c 128,-1,11
 396 491 396 491 441 421 c 1,12,13
 420 518 420 518 364 584 c 1,14,-1
 192 545 l 1,15,-1
 182 598 l 1,16,-1
 327 623 l 1,17,18
 273 674 273 674 186 725 c 1,19,-1
 326 725 l 1,20,21
 381 693 381 693 429 646 c 1,22,-1
 545 675 l 1,23,-1
 559 621 l 1,0,-1
304 92 m 0,24,25
 362 92 362 92 394 133 c 128,-1,26
 426 174 426 174 426 241 c 0,27,28
 426 317 426 317 395.5 356 c 128,-1,29
 365 395 365 395 307 395 c 0,30,31
 188 395 188 395 188 241 c 0,32,33
 188 168 188 168 218 130 c 128,-1,34
 248 92 248 92 304 92 c 0,24,25
EndSplineSet
Substitution2: "'smcp' Lowercase to Small Capitals lookup 12 subtable" eth.sc
Substitution2: "'aalt' Access All Alternates lookup 0 subtable" eth.sc
EndChar

StartChar: ntilde
Encoding: 241 241 179
Width: 619
GlyphClass: 2
Flags: W
AnchorPoint: "Anchor-0" 327 0 basechar 0
LayerCount: 2
Fore
SplineSet
248 629 m 0,0,1
 214 629 214 629 206 568 c 1,2,-1
 122 568 l 1,3,4
 130 718 130 718 248 718 c 0,5,6
 273 718 273 718 294.5 708.5 c 128,-1,7
 316 699 316 699 327.5 687.5 c 128,-1,8
 339 676 339 676 353 666.5 c 128,-1,9
 367 657 367 657 380 657 c 0,10,11
 414 657 414 657 422 718 c 1,12,-1
 506 718 l 1,13,14
 498 568 498 568 381 568 c 0,15,16
 348 568 348 568 323.5 583 c 128,-1,17
 299 598 299 598 281.5 613.5 c 128,-1,18
 264 629 264 629 248 629 c 0,0,1
370 510 m 0,19,20
 451 510 451 510 500.5 463 c 128,-1,21
 550 416 550 416 550 328 c 2,22,-1
 550 0 l 1,23,-1
 413 0 l 1,24,-1
 413 288 l 2,25,26
 413 402 413 402 324 402 c 0,27,28
 276 402 276 402 242.5 368 c 128,-1,29
 209 334 209 334 209 264 c 2,30,-1
 209 0 l 1,31,-1
 72 0 l 1,32,-1
 72 500 l 1,33,-1
 195 500 l 1,34,-1
 199 411 l 1,35,36
 249 510 249 510 370 510 c 0,19,20
EndSplineSet
Substitution2: "Single Substitution lookup 57 subtable" ntilde.swsh
Substitution2: "'swsh' Swash lookup 38 subtable" ntilde.swsh
Substitution2: "'smcp' Lowercase to Small Capitals lookup 12 subtable" ntilde.sc
AlternateSubs2: "'aalt' Access All Alternates lookup 1 subtable" ntilde.sc ntilde.swsh
EndChar

StartChar: ograve
Encoding: 242 242 180
Width: 604
GlyphClass: 2
Flags: W
LayerCount: 2
Fore
SplineSet
290 742 m 1,0,-1
 360 572 l 1,1,-1
 258 572 l 1,2,-1
 158 742 l 1,3,-1
 290 742 l 1,0,-1
302 510 m 128,-1,5
 423 510 423 510 490.5 441 c 128,-1,6
 558 372 558 372 558 250 c 128,-1,7
 558 128 558 128 490.5 59 c 128,-1,8
 423 -10 423 -10 302 -10 c 128,-1,9
 181 -10 181 -10 113.5 59 c 128,-1,10
 46 128 46 128 46 250 c 128,-1,11
 46 372 46 372 113.5 441 c 128,-1,4
 181 510 181 510 302 510 c 128,-1,5
302 408 m 128,-1,13
 183 408 183 408 183 250 c 128,-1,14
 183 92 183 92 302 92 c 128,-1,15
 421 92 421 92 421 250 c 128,-1,12
 421 408 421 408 302 408 c 128,-1,13
EndSplineSet
Substitution2: "'smcp' Lowercase to Small Capitals lookup 12 subtable" ograve.sc
Substitution2: "'aalt' Access All Alternates lookup 0 subtable" ograve.sc
EndChar

StartChar: oacute
Encoding: 243 243 181
Width: 604
GlyphClass: 2
Flags: W
LayerCount: 2
Fore
SplineSet
305 742 m 1,0,-1
 437 742 l 1,1,-1
 337 572 l 1,2,-1
 235 572 l 1,3,-1
 305 742 l 1,0,-1
302 510 m 128,-1,5
 423 510 423 510 490.5 441 c 128,-1,6
 558 372 558 372 558 250 c 128,-1,7
 558 128 558 128 490.5 59 c 128,-1,8
 423 -10 423 -10 302 -10 c 128,-1,9
 181 -10 181 -10 113.5 59 c 128,-1,10
 46 128 46 128 46 250 c 128,-1,11
 46 372 46 372 113.5 441 c 128,-1,4
 181 510 181 510 302 510 c 128,-1,5
302 408 m 128,-1,13
 183 408 183 408 183 250 c 128,-1,14
 183 92 183 92 302 92 c 128,-1,15
 421 92 421 92 421 250 c 128,-1,12
 421 408 421 408 302 408 c 128,-1,13
EndSplineSet
Substitution2: "'smcp' Lowercase to Small Capitals lookup 12 subtable" oacute.sc
Substitution2: "'aalt' Access All Alternates lookup 0 subtable" oacute.sc
EndChar

StartChar: ocircumflex
Encoding: 244 244 182
Width: 604
GlyphClass: 2
Flags: W
LayerCount: 2
Fore
SplineSet
481 565 m 1,0,-1
 376 565 l 1,1,-1
 302 660 l 1,2,-1
 228 565 l 1,3,-1
 123 565 l 1,4,-1
 233 735 l 1,5,-1
 371 735 l 1,6,-1
 481 565 l 1,0,-1
302 510 m 128,-1,8
 423 510 423 510 490.5 441 c 128,-1,9
 558 372 558 372 558 250 c 128,-1,10
 558 128 558 128 490.5 59 c 128,-1,11
 423 -10 423 -10 302 -10 c 128,-1,12
 181 -10 181 -10 113.5 59 c 128,-1,13
 46 128 46 128 46 250 c 128,-1,14
 46 372 46 372 113.5 441 c 128,-1,7
 181 510 181 510 302 510 c 128,-1,8
302 408 m 128,-1,16
 183 408 183 408 183 250 c 128,-1,17
 183 92 183 92 302 92 c 128,-1,18
 421 92 421 92 421 250 c 128,-1,15
 421 408 421 408 302 408 c 128,-1,16
EndSplineSet
Substitution2: "'smcp' Lowercase to Small Capitals lookup 12 subtable" ocircumflex.sc
Substitution2: "'aalt' Access All Alternates lookup 0 subtable" ocircumflex.sc
EndChar

StartChar: otilde
Encoding: 245 245 183
Width: 604
GlyphClass: 2
Flags: W
LayerCount: 2
Fore
SplineSet
493 718 m 1,0,1
 486 568 486 568 368 568 c 0,2,3
 335 568 335 568 310.5 583 c 128,-1,4
 286 598 286 598 268.5 613.5 c 128,-1,5
 251 629 251 629 235 629 c 0,6,7
 201 629 201 629 193 568 c 1,8,-1
 109 568 l 1,9,10
 116 718 116 718 235 718 c 0,11,12
 267 718 267 718 291.5 703 c 128,-1,13
 316 688 316 688 334 672.5 c 128,-1,14
 352 657 352 657 367 657 c 0,15,16
 401 657 401 657 409 718 c 1,17,-1
 493 718 l 1,0,1
302 510 m 128,-1,19
 423 510 423 510 490.5 441 c 128,-1,20
 558 372 558 372 558 250 c 128,-1,21
 558 128 558 128 490.5 59 c 128,-1,22
 423 -10 423 -10 302 -10 c 128,-1,23
 181 -10 181 -10 113.5 59 c 128,-1,24
 46 128 46 128 46 250 c 128,-1,25
 46 372 46 372 113.5 441 c 128,-1,18
 181 510 181 510 302 510 c 128,-1,19
302 408 m 128,-1,27
 183 408 183 408 183 250 c 128,-1,28
 183 92 183 92 302 92 c 128,-1,29
 421 92 421 92 421 250 c 128,-1,26
 421 408 421 408 302 408 c 128,-1,27
EndSplineSet
Substitution2: "'smcp' Lowercase to Small Capitals lookup 12 subtable" otilde.sc
Substitution2: "'aalt' Access All Alternates lookup 0 subtable" otilde.sc
EndChar

StartChar: odieresis
Encoding: 246 246 184
Width: 604
GlyphClass: 2
Flags: W
LayerCount: 2
Fore
SplineSet
196 705 m 0,0,1
 231 705 231 705 251 686 c 128,-1,2
 271 667 271 667 271 635 c 128,-1,3
 271 603 271 603 251 584 c 128,-1,4
 231 565 231 565 196 565 c 0,5,6
 162 565 162 565 142 584 c 128,-1,7
 122 603 122 603 122 635 c 128,-1,8
 122 667 122 667 142 686 c 128,-1,9
 162 705 162 705 196 705 c 0,0,1
406 705 m 0,10,11
 441 705 441 705 461.5 686 c 128,-1,12
 482 667 482 667 482 635 c 128,-1,13
 482 603 482 603 461.5 584 c 128,-1,14
 441 565 441 565 406 565 c 0,15,16
 372 565 372 565 352 584 c 128,-1,17
 332 603 332 603 332 635 c 128,-1,18
 332 667 332 667 352 686 c 128,-1,19
 372 705 372 705 406 705 c 0,10,11
302 510 m 128,-1,21
 423 510 423 510 490.5 441 c 128,-1,22
 558 372 558 372 558 250 c 128,-1,23
 558 128 558 128 490.5 59 c 128,-1,24
 423 -10 423 -10 302 -10 c 128,-1,25
 181 -10 181 -10 113.5 59 c 128,-1,26
 46 128 46 128 46 250 c 128,-1,27
 46 372 46 372 113.5 441 c 128,-1,20
 181 510 181 510 302 510 c 128,-1,21
302 408 m 128,-1,29
 183 408 183 408 183 250 c 128,-1,30
 183 92 183 92 302 92 c 128,-1,31
 421 92 421 92 421 250 c 128,-1,28
 421 408 421 408 302 408 c 128,-1,29
EndSplineSet
Substitution2: "'smcp' Lowercase to Small Capitals lookup 12 subtable" odieresis.sc
Substitution2: "'aalt' Access All Alternates lookup 0 subtable" odieresis.sc
EndChar

StartChar: divide
Encoding: 247 247 185
Width: 604
GlyphClass: 2
Flags: W
LayerCount: 2
Fore
SplineSet
303 607 m 128,-1,1
 340 607 340 607 361.5 586.5 c 128,-1,2
 383 566 383 566 383 530 c 0,3,4
 383 495 383 495 361.5 474.5 c 128,-1,5
 340 454 340 454 303 454 c 128,-1,6
 266 454 266 454 244.5 474.5 c 128,-1,7
 223 495 223 495 223 530 c 0,8,9
 223 566 223 566 244.5 586.5 c 128,-1,0
 266 607 266 607 303 607 c 128,-1,1
551 374 m 1,10,-1
 551 270 l 1,11,-1
 53 270 l 1,12,-1
 53 374 l 1,13,-1
 551 374 l 1,10,-1
303 191 m 128,-1,15
 340 191 340 191 361.5 170.5 c 128,-1,16
 383 150 383 150 383 115 c 0,17,18
 383 79 383 79 361.5 58.5 c 128,-1,19
 340 38 340 38 303 38 c 128,-1,20
 266 38 266 38 244.5 58.5 c 128,-1,21
 223 79 223 79 223 115 c 0,22,23
 223 150 223 150 244.5 170.5 c 128,-1,14
 266 191 266 191 303 191 c 128,-1,15
EndSplineSet
EndChar

StartChar: oslash
Encoding: 248 248 186
Width: 605
GlyphClass: 2
Flags: W
LayerCount: 2
Fore
SplineSet
302 510 m 0,0,1
 390 510 390 510 451 472 c 1,2,-1
 490 522 l 1,3,-1
 557 522 l 1,4,-1
 492 439 l 1,5,6
 558 371 558 371 558 250 c 0,7,8
 558 128 558 128 490.5 59 c 128,-1,9
 423 -10 423 -10 302 -10 c 0,10,11
 220 -10 220 -10 162 22 c 1,12,-1
 122 -31 l 1,13,-1
 55 -31 l 1,14,-1
 119 54 l 1,15,16
 46 122 46 122 46 250 c 0,17,18
 46 372 46 372 113.5 441 c 128,-1,19
 181 510 181 510 302 510 c 0,0,1
206 156 m 1,20,-1
 207 156 l 1,21,-1
 235 196 l 1,22,-1
 376 383 l 1,23,24
 348 408 348 408 302 408 c 0,25,26
 183 408 183 408 183 250 c 0,27,28
 183 194 183 194 206 156 c 1,20,-1
302 92 m 0,29,30
 421 92 421 92 421 250 c 0,31,32
 421 301 421 301 402 333 c 1,33,-1
 401 333 l 1,34,-1
 376 296 l 1,35,-1
 236 111 l 1,36,37
 261 92 261 92 302 92 c 0,29,30
EndSplineSet
Substitution2: "'smcp' Lowercase to Small Capitals lookup 12 subtable" oslash.sc
Substitution2: "'aalt' Access All Alternates lookup 0 subtable" oslash.sc
EndChar

StartChar: ugrave
Encoding: 249 249 187
Width: 619
GlyphClass: 2
Flags: W
LayerCount: 2
Fore
SplineSet
364 572 m 1,0,-1
 262 572 l 1,1,-1
 162 742 l 1,2,-1
 294 742 l 1,3,-1
 364 572 l 1,0,-1
410 500 m 1,4,-1
 547 500 l 1,5,-1
 547 0 l 1,6,-1
 425 0 l 1,7,-1
 420 86 l 1,8,9
 372 -10 372 -10 245 -10 c 0,10,11
 164 -10 164 -10 116.5 33.5 c 128,-1,12
 69 77 69 77 69 169 c 2,13,-1
 69 500 l 1,14,-1
 206 500 l 1,15,-1
 206 204 l 2,16,17
 206 146 206 146 228 122 c 128,-1,18
 250 98 250 98 293 98 c 0,19,20
 345 98 345 98 377.5 131.5 c 128,-1,21
 410 165 410 165 410 232 c 2,22,-1
 410 500 l 1,4,-1
EndSplineSet
Substitution2: "'smcp' Lowercase to Small Capitals lookup 12 subtable" ugrave.sc
Substitution2: "'aalt' Access All Alternates lookup 0 subtable" ugrave.sc
EndChar

StartChar: uacute
Encoding: 250 250 188
Width: 619
GlyphClass: 2
Flags: W
LayerCount: 2
Fore
SplineSet
442 742 m 1,0,-1
 342 572 l 1,1,-1
 240 572 l 1,2,-1
 310 742 l 1,3,-1
 442 742 l 1,0,-1
410 500 m 1,4,-1
 547 500 l 1,5,-1
 547 0 l 1,6,-1
 425 0 l 1,7,-1
 420 86 l 1,8,9
 372 -10 372 -10 245 -10 c 0,10,11
 164 -10 164 -10 116.5 33.5 c 128,-1,12
 69 77 69 77 69 169 c 2,13,-1
 69 500 l 1,14,-1
 206 500 l 1,15,-1
 206 204 l 2,16,17
 206 146 206 146 228 122 c 128,-1,18
 250 98 250 98 293 98 c 0,19,20
 345 98 345 98 377.5 131.5 c 128,-1,21
 410 165 410 165 410 232 c 2,22,-1
 410 500 l 1,4,-1
EndSplineSet
Substitution2: "'smcp' Lowercase to Small Capitals lookup 12 subtable" uacute.sc
Substitution2: "'aalt' Access All Alternates lookup 0 subtable" uacute.sc
EndChar

StartChar: ucircumflex
Encoding: 251 251 189
Width: 619
GlyphClass: 2
Flags: W
LayerCount: 2
Fore
SplineSet
306 660 m 1,0,-1
 232 565 l 1,1,-1
 127 565 l 1,2,-1
 237 735 l 1,3,-1
 375 735 l 1,4,-1
 485 565 l 1,5,-1
 380 565 l 1,6,-1
 306 660 l 1,0,-1
410 500 m 1,7,-1
 547 500 l 1,8,-1
 547 0 l 1,9,-1
 425 0 l 1,10,-1
 420 86 l 1,11,12
 372 -10 372 -10 245 -10 c 0,13,14
 164 -10 164 -10 116.5 33.5 c 128,-1,15
 69 77 69 77 69 169 c 2,16,-1
 69 500 l 1,17,-1
 206 500 l 1,18,-1
 206 204 l 2,19,20
 206 146 206 146 228 122 c 128,-1,21
 250 98 250 98 293 98 c 0,22,23
 345 98 345 98 377.5 131.5 c 128,-1,24
 410 165 410 165 410 232 c 2,25,-1
 410 500 l 1,7,-1
EndSplineSet
Substitution2: "'smcp' Lowercase to Small Capitals lookup 12 subtable" ucircumflex.sc
Substitution2: "'aalt' Access All Alternates lookup 0 subtable" ucircumflex.sc
EndChar

StartChar: udieresis
Encoding: 252 252 190
Width: 619
GlyphClass: 2
Flags: W
LayerCount: 2
Fore
SplineSet
201 565 m 0,0,1
 167 565 167 565 147 584 c 128,-1,2
 127 603 127 603 127 635 c 128,-1,3
 127 667 127 667 147 686 c 128,-1,4
 167 705 167 705 201 705 c 0,5,6
 236 705 236 705 256 686 c 128,-1,7
 276 667 276 667 276 635 c 128,-1,8
 276 603 276 603 256 584 c 128,-1,9
 236 565 236 565 201 565 c 0,0,1
411 565 m 0,10,11
 377 565 377 565 357 584 c 128,-1,12
 337 603 337 603 337 635 c 128,-1,13
 337 667 337 667 357 686 c 128,-1,14
 377 705 377 705 411 705 c 0,15,16
 446 705 446 705 466.5 686 c 128,-1,17
 487 667 487 667 487 635 c 128,-1,18
 487 603 487 603 466.5 584 c 128,-1,19
 446 565 446 565 411 565 c 0,10,11
410 500 m 1,20,-1
 547 500 l 1,21,-1
 547 0 l 1,22,-1
 425 0 l 1,23,-1
 420 86 l 1,24,25
 372 -10 372 -10 245 -10 c 0,26,27
 164 -10 164 -10 116.5 33.5 c 128,-1,28
 69 77 69 77 69 169 c 2,29,-1
 69 500 l 1,30,-1
 206 500 l 1,31,-1
 206 204 l 2,32,33
 206 146 206 146 228 122 c 128,-1,34
 250 98 250 98 293 98 c 0,35,36
 345 98 345 98 377.5 131.5 c 128,-1,37
 410 165 410 165 410 232 c 2,38,-1
 410 500 l 1,20,-1
EndSplineSet
Substitution2: "'smcp' Lowercase to Small Capitals lookup 12 subtable" udieresis.sc
Substitution2: "'aalt' Access All Alternates lookup 0 subtable" udieresis.sc
EndChar

StartChar: yacute
Encoding: 253 253 191
Width: 557
GlyphClass: 2
Flags: W
LayerCount: 2
Fore
SplineSet
295 742 m 1,0,-1
 427 742 l 1,1,-1
 327 572 l 1,2,-1
 225 572 l 1,3,-1
 295 742 l 1,0,-1
551 500 m 1,4,-1
 349 -31 l 2,5,6
 312 -133 312 -133 263.5 -174 c 128,-1,7
 215 -215 215 -215 134 -215 c 128,-1,8
 53 -215 53 -215 7 -176 c 1,9,-1
 41 -79 l 1,10,11
 68 -110 68 -110 125 -110 c 0,12,13
 156 -110 156 -110 175 -97 c 128,-1,14
 194 -84 194 -84 207 -50 c 2,15,-1
 225 -7 l 1,16,-1
 170 123 l 1,17,-1
 17 500 l 1,18,-1
 169 500 l 1,19,-1
 263 200 l 1,20,-1
 290 100 l 1,21,-1
 320 206 l 1,22,-1
 412 500 l 1,23,-1
 551 500 l 1,4,-1
EndSplineSet
Substitution2: "Single Substitution lookup 57 subtable" yacute.swsh
Substitution2: "'swsh' Swash lookup 38 subtable" yacute.swsh
Substitution2: "'smcp' Lowercase to Small Capitals lookup 12 subtable" yacute.sc
AlternateSubs2: "'aalt' Access All Alternates lookup 1 subtable" yacute.sc yacute.swsh
EndChar

StartChar: thorn
Encoding: 254 254 192
Width: 629
GlyphClass: 2
Flags: W
LayerCount: 2
Fore
SplineSet
369 510 m 0,0,1
 464 510 464 510 522 443.5 c 128,-1,2
 580 377 580 377 580 253 c 0,3,4
 580 122 580 122 519 56 c 128,-1,5
 458 -10 458 -10 366 -10 c 0,6,7
 258 -10 258 -10 209 74 c 1,8,-1
 209 -210 l 1,9,-1
 72 -210 l 1,10,-1
 72 719 l 1,11,-1
 209 719 l 1,12,-1
 209 420 l 1,13,14
 260 510 260 510 369 510 c 0,0,1
325 95 m 0,15,16
 382 95 382 95 412.5 134.5 c 128,-1,17
 443 174 443 174 443 250 c 128,-1,18
 443 326 443 326 412.5 365.5 c 128,-1,19
 382 405 382 405 325 405 c 0,20,21
 272 405 272 405 240.5 366 c 128,-1,22
 209 327 209 327 209 255 c 2,23,-1
 209 245 l 2,24,25
 209 174 209 174 240 134.5 c 128,-1,26
 271 95 271 95 325 95 c 0,15,16
EndSplineSet
Substitution2: "'smcp' Lowercase to Small Capitals lookup 12 subtable" thorn.sc
Substitution2: "'aalt' Access All Alternates lookup 0 subtable" thorn.sc
EndChar

StartChar: ydieresis
Encoding: 255 255 193
Width: 557
GlyphClass: 2
Flags: W
LayerCount: 2
Fore
SplineSet
186 705 m 0,0,1
 221 705 221 705 241 686 c 128,-1,2
 261 667 261 667 261 635 c 128,-1,3
 261 603 261 603 241 584 c 128,-1,4
 221 565 221 565 186 565 c 0,5,6
 152 565 152 565 132 584 c 128,-1,7
 112 603 112 603 112 635 c 128,-1,8
 112 667 112 667 132 686 c 128,-1,9
 152 705 152 705 186 705 c 0,0,1
396 705 m 0,10,11
 431 705 431 705 451.5 686 c 128,-1,12
 472 667 472 667 472 635 c 128,-1,13
 472 603 472 603 451.5 584 c 128,-1,14
 431 565 431 565 396 565 c 0,15,16
 362 565 362 565 342 584 c 128,-1,17
 322 603 322 603 322 635 c 128,-1,18
 322 667 322 667 342 686 c 128,-1,19
 362 705 362 705 396 705 c 0,10,11
551 500 m 1,20,-1
 349 -31 l 2,21,22
 312 -133 312 -133 263.5 -174 c 128,-1,23
 215 -215 215 -215 134 -215 c 128,-1,24
 53 -215 53 -215 7 -176 c 1,25,-1
 41 -79 l 1,26,27
 68 -110 68 -110 125 -110 c 0,28,29
 156 -110 156 -110 175 -97 c 128,-1,30
 194 -84 194 -84 207 -50 c 2,31,-1
 225 -7 l 1,32,-1
 170 123 l 1,33,-1
 17 500 l 1,34,-1
 169 500 l 1,35,-1
 263 200 l 1,36,-1
 290 100 l 1,37,-1
 320 206 l 1,38,-1
 412 500 l 1,39,-1
 551 500 l 1,20,-1
EndSplineSet
Substitution2: "Single Substitution lookup 57 subtable" ydieresis.swsh
Substitution2: "'swsh' Swash lookup 38 subtable" ydieresis.swsh
Substitution2: "'smcp' Lowercase to Small Capitals lookup 12 subtable" ydieresis.sc
AlternateSubs2: "'aalt' Access All Alternates lookup 1 subtable" ydieresis.sc ydieresis.swsh
EndChar

StartChar: Amacron
Encoding: 256 256 194
Width: 671
GlyphClass: 2
Flags: W
LayerCount: 2
Fore
SplineSet
517 830 m 1,0,-1
 517 739 l 1,1,-1
 153 739 l 1,2,-1
 153 830 l 1,3,-1
 517 830 l 1,0,-1
516 0 m 1,4,-1
 461 161 l 1,5,-1
 207 161 l 1,6,-1
 153 0 l 1,7,-1
 12 0 l 1,8,-1
 253 660 l 1,9,-1
 418 660 l 1,10,-1
 659 0 l 1,11,-1
 516 0 l 1,4,-1
241 263 m 1,12,-1
 427 263 l 1,13,-1
 365 449 l 1,14,-1
 335 549 l 1,15,-1
 333 549 l 1,16,-1
 305 451 l 1,17,-1
 241 263 l 1,12,-1
EndSplineSet
Substitution2: "Single Substitution lookup 56 subtable" Amacron.swsh
Substitution2: "'swsh' Swash lookup 32 subtable" Amacron.swsh
Substitution2: "'c2sc' Capitals to Small Capitals lookup 11 subtable" amacron.sc
AlternateSubs2: "'aalt' Access All Alternates lookup 1 subtable" amacron.sc Amacron.swsh
EndChar

StartChar: amacron
Encoding: 257 257 195
Width: 574
GlyphClass: 2
Flags: W
LayerCount: 2
Fore
SplineSet
458 670 m 1,0,-1
 458 579 l 1,1,-1
 94 579 l 1,2,-1
 94 670 l 1,3,-1
 458 670 l 1,0,-1
529 83 m 0,4,5
 550 83 550 83 563 87 c 1,6,-1
 553 4 l 1,7,8
 525 -10 525 -10 488 -10 c 0,9,10
 392 -10 392 -10 373 65 c 1,11,12
 327 -10 327 -10 196 -10 c 0,13,14
 123 -10 123 -10 82 23 c 128,-1,15
 41 56 41 56 41 118 c 0,16,17
 41 240 41 240 236 276 c 2,18,-1
 356 299 l 1,19,-1
 356 323 l 2,20,21
 356 363 356 363 333.5 386.5 c 128,-1,22
 311 410 311 410 271 410 c 0,23,24
 176 410 176 410 156 325 c 1,25,-1
 47 371 l 1,26,27
 63 436 63 436 119 473 c 128,-1,28
 175 510 175 510 265 510 c 0,29,30
 372 510 372 510 432 463.5 c 128,-1,31
 492 417 492 417 492 326 c 2,32,-1
 492 121 l 2,33,34
 492 83 492 83 529 83 c 0,4,5
239 83 m 0,35,36
 283 83 283 83 319.5 104.5 c 128,-1,37
 356 126 356 126 356 163 c 2,38,-1
 356 215 l 1,39,-1
 249 191 l 2,40,41
 182 176 182 176 182 132 c 0,42,43
 182 83 182 83 239 83 c 0,35,36
EndSplineSet
Substitution2: "'smcp' Lowercase to Small Capitals lookup 12 subtable" amacron.sc
Substitution2: "'aalt' Access All Alternates lookup 0 subtable" amacron.sc
EndChar

StartChar: Abreve
Encoding: 258 258 196
Width: 671
GlyphClass: 2
Flags: W
LayerCount: 2
Fore
SplineSet
335 723 m 128,-1,1
 261 723 261 723 217.5 765.5 c 128,-1,2
 174 808 174 808 174 880 c 1,3,-1
 267 880 l 1,4,5
 267 848 267 848 286 826.5 c 128,-1,6
 305 805 305 805 335 805 c 128,-1,7
 365 805 365 805 384 826.5 c 128,-1,8
 403 848 403 848 403 880 c 1,9,-1
 496 880 l 1,10,11
 496 808 496 808 452.5 765.5 c 128,-1,0
 409 723 409 723 335 723 c 128,-1,1
516 0 m 1,12,-1
 461 161 l 1,13,-1
 207 161 l 1,14,-1
 153 0 l 1,15,-1
 12 0 l 1,16,-1
 253 660 l 1,17,-1
 418 660 l 1,18,-1
 659 0 l 1,19,-1
 516 0 l 1,12,-1
241 263 m 1,20,-1
 427 263 l 1,21,-1
 365 449 l 1,22,-1
 335 549 l 1,23,-1
 333 549 l 1,24,-1
 305 451 l 1,25,-1
 241 263 l 1,20,-1
EndSplineSet
Substitution2: "Single Substitution lookup 56 subtable" Abreve.swsh
Substitution2: "'swsh' Swash lookup 32 subtable" Abreve.swsh
Substitution2: "'c2sc' Capitals to Small Capitals lookup 11 subtable" abreve.sc
AlternateSubs2: "'aalt' Access All Alternates lookup 1 subtable" abreve.sc Abreve.swsh
EndChar

StartChar: abreve
Encoding: 259 259 197
Width: 574
GlyphClass: 2
Flags: W
LayerCount: 2
Fore
SplineSet
276 563 m 128,-1,1
 202 563 202 563 158.5 605.5 c 128,-1,2
 115 648 115 648 115 720 c 1,3,-1
 208 720 l 1,4,5
 208 688 208 688 227 666.5 c 128,-1,6
 246 645 246 645 276 645 c 128,-1,7
 306 645 306 645 325 666.5 c 128,-1,8
 344 688 344 688 344 720 c 1,9,-1
 437 720 l 1,10,11
 437 648 437 648 393.5 605.5 c 128,-1,0
 350 563 350 563 276 563 c 128,-1,1
529 83 m 0,12,13
 550 83 550 83 563 87 c 1,14,-1
 553 4 l 1,15,16
 525 -10 525 -10 488 -10 c 0,17,18
 392 -10 392 -10 373 65 c 1,19,20
 327 -10 327 -10 196 -10 c 0,21,22
 123 -10 123 -10 82 23 c 128,-1,23
 41 56 41 56 41 118 c 0,24,25
 41 240 41 240 236 276 c 2,26,-1
 356 299 l 1,27,-1
 356 323 l 2,28,29
 356 363 356 363 333.5 386.5 c 128,-1,30
 311 410 311 410 271 410 c 0,31,32
 176 410 176 410 156 325 c 1,33,-1
 47 371 l 1,34,35
 63 436 63 436 119 473 c 128,-1,36
 175 510 175 510 265 510 c 0,37,38
 372 510 372 510 432 463.5 c 128,-1,39
 492 417 492 417 492 326 c 2,40,-1
 492 121 l 2,41,42
 492 83 492 83 529 83 c 0,12,13
239 83 m 0,43,44
 283 83 283 83 319.5 104.5 c 128,-1,45
 356 126 356 126 356 163 c 2,46,-1
 356 215 l 1,47,-1
 249 191 l 2,48,49
 182 176 182 176 182 132 c 0,50,51
 182 83 182 83 239 83 c 0,43,44
EndSplineSet
Substitution2: "'smcp' Lowercase to Small Capitals lookup 12 subtable" abreve.sc
Substitution2: "'aalt' Access All Alternates lookup 0 subtable" abreve.sc
EndChar

StartChar: Aogonek
Encoding: 260 260 198
Width: 671
GlyphClass: 2
Flags: W
LayerCount: 2
Fore
SplineSet
648 -123 m 1,0,-1
 668 -193 l 1,1,2
 635 -215 635 -215 572 -215 c 0,3,4
 513 -215 513 -215 476.5 -186.5 c 128,-1,5
 440 -158 440 -158 440 -105 c 0,6,7
 440 -35 440 -35 514 4 c 1,8,-1
 461 161 l 1,9,-1
 207 161 l 1,10,-1
 153 0 l 1,11,-1
 12 0 l 1,12,-1
 253 660 l 1,13,-1
 418 660 l 1,14,-1
 659 0 l 1,15,16
 592 -16 592 -16 565.5 -37 c 128,-1,17
 539 -58 539 -58 539 -87 c 0,18,19
 539 -109 539 -109 555 -121.5 c 128,-1,20
 571 -134 571 -134 598 -134 c 0,21,22
 631 -134 631 -134 648 -123 c 1,0,-1
241 263 m 1,23,-1
 427 263 l 1,24,-1
 365 449 l 1,25,-1
 335 549 l 1,26,-1
 333 549 l 1,27,-1
 305 451 l 1,28,-1
 241 263 l 1,23,-1
EndSplineSet
Substitution2: "Single Substitution lookup 56 subtable" Aogonek.swsh
Substitution2: "'swsh' Swash lookup 32 subtable" Aogonek.swsh
Substitution2: "'c2sc' Capitals to Small Capitals lookup 11 subtable" aogonek.sc
AlternateSubs2: "'aalt' Access All Alternates lookup 1 subtable" aogonek.sc Aogonek.swsh
EndChar

StartChar: aogonek
Encoding: 261 261 199
Width: 574
GlyphClass: 2
Flags: W
LayerCount: 2
Fore
SplineSet
491 -134 m 0,0,1
 524 -134 524 -134 541 -123 c 1,2,-1
 561 -194 l 1,3,4
 527 -215 527 -215 468 -215 c 128,-1,5
 409 -215 409 -215 373.5 -187 c 128,-1,6
 338 -159 338 -159 338 -108 c 0,7,8
 338 -26 338 -26 436 12 c 1,9,10
 391 28 391 28 379 76 c 1,11,12
 337 -10 337 -10 196 -10 c 0,13,14
 123 -10 123 -10 82 23 c 128,-1,15
 41 56 41 56 41 118 c 0,16,17
 41 240 41 240 236 276 c 2,18,-1
 356 299 l 1,19,-1
 356 323 l 2,20,21
 356 363 356 363 333.5 386.5 c 128,-1,22
 311 410 311 410 271 410 c 0,23,24
 176 410 176 410 156 325 c 1,25,-1
 47 371 l 1,26,27
 63 436 63 436 119 473 c 128,-1,28
 175 510 175 510 265 510 c 0,29,30
 372 510 372 510 432 463.5 c 128,-1,31
 492 417 492 417 492 326 c 2,32,-1
 492 121 l 2,33,34
 492 83 492 83 529 83 c 0,35,36
 550 83 550 83 563 87 c 1,37,-1
 553 4 l 1,38,39
 437 -24 437 -24 437 -86 c 0,40,41
 437 -134 437 -134 491 -134 c 0,0,1
239 83 m 0,42,43
 283 83 283 83 319.5 104.5 c 128,-1,44
 356 126 356 126 356 163 c 2,45,-1
 356 215 l 1,46,-1
 249 191 l 2,47,48
 182 176 182 176 182 132 c 0,49,50
 182 83 182 83 239 83 c 0,42,43
EndSplineSet
Substitution2: "'smcp' Lowercase to Small Capitals lookup 12 subtable" aogonek.sc
Substitution2: "'aalt' Access All Alternates lookup 0 subtable" aogonek.sc
EndChar

StartChar: Cacute
Encoding: 262 262 200
Width: 683
GlyphClass: 2
Flags: W
LayerCount: 2
Fore
SplineSet
361 885 m 1,0,-1
 497 885 l 1,1,-1
 408 730 l 1,2,-1
 305 730 l 1,3,-1
 361 885 l 1,0,-1
651 182 m 1,4,5
 622 87 622 87 548 38.5 c 128,-1,6
 474 -10 474 -10 371 -10 c 0,7,8
 224 -10 224 -10 138.5 80.5 c 128,-1,9
 53 171 53 171 53 330 c 0,10,11
 53 488 53 488 138.5 579 c 128,-1,12
 224 670 224 670 369 670 c 0,13,14
 472 670 472 670 543.5 627 c 128,-1,15
 615 584 615 584 642 499 c 1,16,-1
 517 446 l 1,17,18
 501 505 501 505 467 531 c 128,-1,19
 433 557 433 557 375 557 c 0,20,21
 291 557 291 557 243.5 498 c 128,-1,22
 196 439 196 439 196 330 c 128,-1,23
 196 221 196 221 242 162 c 128,-1,24
 288 103 288 103 372 103 c 0,25,26
 493 103 493 103 524 220 c 1,27,-1
 651 182 l 1,4,5
EndSplineSet
Substitution2: "'c2sc' Capitals to Small Capitals lookup 11 subtable" cacute.sc
Substitution2: "'aalt' Access All Alternates lookup 0 subtable" cacute.sc
EndChar

StartChar: cacute
Encoding: 263 263 201
Width: 569
GlyphClass: 2
Flags: W
LayerCount: 2
Fore
SplineSet
299 742 m 1,0,-1
 431 742 l 1,1,-1
 331 572 l 1,2,-1
 229 572 l 1,3,-1
 299 742 l 1,0,-1
301 510 m 0,4,5
 487 510 487 510 530 363 c 1,6,-1
 402 317 l 1,7,8
 384 408 384 408 305 408 c 0,9,10
 246 408 246 408 214.5 367.5 c 128,-1,11
 183 327 183 327 183 249 c 128,-1,12
 183 171 183 171 215 131.5 c 128,-1,13
 247 92 247 92 304 92 c 0,14,15
 392 92 392 92 408 181 c 1,16,-1
 532 141 l 1,17,18
 516 72 516 72 457.5 31 c 128,-1,19
 399 -10 399 -10 306 -10 c 0,20,21
 182 -10 182 -10 114 58.5 c 128,-1,22
 46 127 46 127 46 250 c 128,-1,23
 46 373 46 373 113.5 441.5 c 128,-1,24
 181 510 181 510 301 510 c 0,4,5
EndSplineSet
Substitution2: "'smcp' Lowercase to Small Capitals lookup 12 subtable" cacute.sc
Substitution2: "'aalt' Access All Alternates lookup 0 subtable" cacute.sc
EndChar

StartChar: Ccaron
Encoding: 268 268 202
Width: 683
GlyphClass: 2
Flags: W
LayerCount: 2
Fore
SplineSet
544 894 m 1,0,-1
 433 727 l 1,1,-1
 295 727 l 1,2,-1
 184 894 l 1,3,-1
 290 894 l 1,4,-1
 364 796 l 1,5,-1
 438 894 l 1,6,-1
 544 894 l 1,0,-1
651 182 m 1,7,8
 622 87 622 87 548 38.5 c 128,-1,9
 474 -10 474 -10 371 -10 c 0,10,11
 224 -10 224 -10 138.5 80.5 c 128,-1,12
 53 171 53 171 53 330 c 0,13,14
 53 488 53 488 138.5 579 c 128,-1,15
 224 670 224 670 369 670 c 0,16,17
 472 670 472 670 543.5 627 c 128,-1,18
 615 584 615 584 642 499 c 1,19,-1
 517 446 l 1,20,21
 501 505 501 505 467 531 c 128,-1,22
 433 557 433 557 375 557 c 0,23,24
 291 557 291 557 243.5 498 c 128,-1,25
 196 439 196 439 196 330 c 128,-1,26
 196 221 196 221 242 162 c 128,-1,27
 288 103 288 103 372 103 c 0,28,29
 493 103 493 103 524 220 c 1,30,-1
 651 182 l 1,7,8
EndSplineSet
Substitution2: "'c2sc' Capitals to Small Capitals lookup 11 subtable" ccaron.sc
Substitution2: "'aalt' Access All Alternates lookup 0 subtable" ccaron.sc
EndChar

StartChar: ccaron
Encoding: 269 269 203
Width: 569
GlyphClass: 2
Flags: W
LayerCount: 2
Fore
SplineSet
473 742 m 1,0,-1
 363 572 l 1,1,-1
 225 572 l 1,2,-1
 115 742 l 1,3,-1
 220 742 l 1,4,-1
 294 647 l 1,5,-1
 368 742 l 1,6,-1
 473 742 l 1,0,-1
301 510 m 0,7,8
 487 510 487 510 530 363 c 1,9,-1
 402 317 l 1,10,11
 384 408 384 408 305 408 c 0,12,13
 246 408 246 408 214.5 367.5 c 128,-1,14
 183 327 183 327 183 249 c 128,-1,15
 183 171 183 171 215 131.5 c 128,-1,16
 247 92 247 92 304 92 c 0,17,18
 392 92 392 92 408 181 c 1,19,-1
 532 141 l 1,20,21
 516 72 516 72 457.5 31 c 128,-1,22
 399 -10 399 -10 306 -10 c 0,23,24
 182 -10 182 -10 114 58.5 c 128,-1,25
 46 127 46 127 46 250 c 128,-1,26
 46 373 46 373 113.5 441.5 c 128,-1,27
 181 510 181 510 301 510 c 0,7,8
EndSplineSet
Substitution2: "'smcp' Lowercase to Small Capitals lookup 12 subtable" ccaron.sc
Substitution2: "'aalt' Access All Alternates lookup 0 subtable" ccaron.sc
EndChar

StartChar: Dcaron
Encoding: 270 270 204
Width: 719
GlyphClass: 2
Flags: W
LayerCount: 2
Fore
SplineSet
394 727 m 1,0,-1
 256 727 l 1,1,-1
 145 894 l 1,2,-1
 251 894 l 1,3,-1
 325 796 l 1,4,-1
 399 894 l 1,5,-1
 505 894 l 1,6,-1
 394 727 l 1,0,-1
341 660 m 2,7,8
 496 660 496 660 581 574 c 128,-1,9
 666 488 666 488 666 330 c 128,-1,10
 666 172 666 172 581 86 c 128,-1,11
 496 0 496 0 341 0 c 2,12,-1
 86 0 l 1,13,-1
 86 660 l 1,14,-1
 341 660 l 2,7,8
334 110 m 2,15,16
 428 110 428 110 475.5 166.5 c 128,-1,17
 523 223 523 223 523 330 c 128,-1,18
 523 437 523 437 475.5 493.5 c 128,-1,19
 428 550 428 550 334 550 c 2,20,-1
 224 550 l 1,21,-1
 224 110 l 1,22,-1
 334 110 l 2,15,16
EndSplineSet
Substitution2: "'c2sc' Capitals to Small Capitals lookup 11 subtable" dcaron.sc
Substitution2: "'aalt' Access All Alternates lookup 0 subtable" dcaron.sc
EndChar

StartChar: dcaron
Encoding: 271 271 205
Width: 687
GlyphClass: 2
Flags: W
LayerCount: 2
Fore
SplineSet
624 719 m 1,0,-1
 734 719 l 1,1,-1
 686 495 l 1,2,-1
 604 495 l 1,3,-1
 624 719 l 1,0,-1
419 418 m 1,4,-1
 419 719 l 1,5,-1
 556 719 l 1,6,-1
 556 0 l 1,7,-1
 434 0 l 1,8,-1
 428 93 l 1,9,10
 406 46 406 46 362.5 18 c 128,-1,11
 319 -10 319 -10 263 -10 c 0,12,13
 163 -10 163 -10 106 58.5 c 128,-1,14
 49 127 49 127 49 249 c 0,15,16
 49 372 49 372 106 441 c 128,-1,17
 163 510 163 510 263 510 c 0,18,19
 373 510 373 510 419 418 c 1,4,-1
303 95 m 0,20,21
 357 95 357 95 388 134 c 128,-1,22
 419 173 419 173 419 245 c 2,23,-1
 419 255 l 2,24,25
 419 326 419 326 388 365.5 c 128,-1,26
 357 405 357 405 303 405 c 0,27,28
 248 405 248 405 217 365 c 128,-1,29
 186 325 186 325 186 250 c 128,-1,30
 186 175 186 175 217 135 c 128,-1,31
 248 95 248 95 303 95 c 0,20,21
EndSplineSet
Substitution2: "'smcp' Lowercase to Small Capitals lookup 12 subtable" dcaron.sc
Substitution2: "'aalt' Access All Alternates lookup 0 subtable" dcaron.sc
EndChar

StartChar: Dcroat
Encoding: 272 272 206
Width: 740
GlyphClass: 2
Flags: W
LayerCount: 2
Fore
SplineSet
362 660 m 2,0,1
 517 660 517 660 601.5 574 c 128,-1,2
 686 488 686 488 686 330 c 128,-1,3
 686 172 686 172 601.5 86 c 128,-1,4
 517 0 517 0 362 0 c 2,5,-1
 107 0 l 1,6,-1
 107 284 l 1,7,-1
 18 284 l 1,8,-1
 18 378 l 1,9,-1
 107 378 l 1,10,-1
 107 660 l 1,11,-1
 362 660 l 2,0,1
354 110 m 2,12,13
 448 110 448 110 496 166.5 c 128,-1,14
 544 223 544 223 544 330 c 128,-1,15
 544 437 544 437 496 493.5 c 128,-1,16
 448 550 448 550 354 550 c 2,17,-1
 245 550 l 1,18,-1
 245 378 l 1,19,-1
 399 378 l 1,20,-1
 399 284 l 1,21,-1
 245 284 l 1,22,-1
 245 110 l 1,23,-1
 354 110 l 2,12,13
EndSplineSet
Substitution2: "'c2sc' Capitals to Small Capitals lookup 11 subtable" dcroat.sc
Substitution2: "'aalt' Access All Alternates lookup 0 subtable" dcroat.sc
EndChar

StartChar: dcroat
Encoding: 273 273 207
Width: 628
GlyphClass: 2
Flags: W
LayerCount: 2
Fore
SplineSet
633 632 m 1,0,-1
 633 548 l 1,1,-1
 556 548 l 1,2,-1
 556 0 l 1,3,-1
 434 0 l 1,4,-1
 428 93 l 1,5,6
 406 46 406 46 362.5 18 c 128,-1,7
 319 -10 319 -10 263 -10 c 0,8,9
 163 -10 163 -10 106 58.5 c 128,-1,10
 49 127 49 127 49 249 c 0,11,12
 49 372 49 372 106 441 c 128,-1,13
 163 510 163 510 263 510 c 0,14,15
 373 510 373 510 419 418 c 1,16,-1
 419 548 l 1,17,-1
 279 548 l 1,18,-1
 279 632 l 1,19,-1
 419 632 l 1,20,-1
 419 719 l 1,21,-1
 556 719 l 1,22,-1
 556 632 l 1,23,-1
 633 632 l 1,0,-1
303 95 m 0,24,25
 357 95 357 95 388 134 c 128,-1,26
 419 173 419 173 419 245 c 2,27,-1
 419 255 l 2,28,29
 419 326 419 326 388 365.5 c 128,-1,30
 357 405 357 405 303 405 c 0,31,32
 248 405 248 405 217 365 c 128,-1,33
 186 325 186 325 186 250 c 128,-1,34
 186 175 186 175 217 135 c 128,-1,35
 248 95 248 95 303 95 c 0,24,25
EndSplineSet
Substitution2: "'smcp' Lowercase to Small Capitals lookup 12 subtable" dcroat.sc
Substitution2: "'aalt' Access All Alternates lookup 0 subtable" dcroat.sc
EndChar

StartChar: Emacron
Encoding: 274 274 208
Width: 633
GlyphClass: 2
Flags: W
AnchorPoint: "Anchor-0" 335 0 basechar 0
LayerCount: 2
Fore
SplineSet
511 830 m 1,0,-1
 511 739 l 1,1,-1
 147 739 l 1,2,-1
 147 830 l 1,3,-1
 511 830 l 1,0,-1
224 111 m 1,4,-1
 595 111 l 1,5,-1
 595 0 l 1,6,-1
 86 0 l 1,7,-1
 86 660 l 1,8,-1
 581 660 l 1,9,-1
 581 549 l 1,10,-1
 224 549 l 1,11,-1
 224 385 l 1,12,-1
 505 385 l 1,13,-1
 505 279 l 1,14,-1
 224 279 l 1,15,-1
 224 111 l 1,4,-1
EndSplineSet
Substitution2: "Single Substitution lookup 57 subtable" Emacron.swsh.001
Substitution2: "Single Substitution lookup 56 subtable" Emacron.swsh
AlternateSubs2: "'swsh' Swash lookup 33 subtable" Emacron.swsh Emacron.swsh.001
Substitution2: "'c2sc' Capitals to Small Capitals lookup 11 subtable" emacron.sc
AlternateSubs2: "'aalt' Access All Alternates lookup 1 subtable" emacron.sc Emacron.swsh Emacron.swsh.001
EndChar

StartChar: emacron
Encoding: 275 275 209
Width: 582
GlyphClass: 2
Flags: W
AnchorPoint: "Anchor-0" 300 0 basechar 0
LayerCount: 2
Fore
SplineSet
477 670 m 1,0,-1
 477 579 l 1,1,-1
 113 579 l 1,2,-1
 113 670 l 1,3,-1
 477 670 l 1,0,-1
539 252 m 0,4,5
 539 224 539 224 535 198 c 1,6,-1
 181 198 l 1,7,8
 202 92 202 92 306 92 c 0,9,10
 394 92 394 92 416 154 c 1,11,-1
 528 113 l 1,12,13
 479 -10 479 -10 306 -10 c 0,14,15
 182 -10 182 -10 114 58.5 c 128,-1,16
 46 127 46 127 46 250 c 128,-1,17
 46 373 46 373 112 441.5 c 128,-1,18
 178 510 178 510 298 510 c 0,19,20
 414 510 414 510 476.5 443 c 128,-1,21
 539 376 539 376 539 252 c 0,4,5
297 409 m 0,22,23
 197 409 197 409 180 294 c 1,24,-1
 413 294 l 1,25,26
 405 350 405 350 375 379.5 c 128,-1,27
 345 409 345 409 297 409 c 0,22,23
EndSplineSet
Substitution2: "'smcp' Lowercase to Small Capitals lookup 12 subtable" emacron.sc
Substitution2: "'aalt' Access All Alternates lookup 0 subtable" emacron.sc
EndChar

StartChar: Edotaccent
Encoding: 278 278 210
Width: 633
GlyphClass: 2
Flags: W
AnchorPoint: "Anchor-0" 335 0 basechar 0
LayerCount: 2
Fore
SplineSet
329 734 m 0,0,1
 291 734 291 734 270 753 c 128,-1,2
 249 772 249 772 249 807 c 128,-1,3
 249 842 249 842 270 861 c 128,-1,4
 291 880 291 880 329 880 c 0,5,6
 368 880 368 880 389 861 c 128,-1,7
 410 842 410 842 410 807 c 128,-1,8
 410 772 410 772 389 753 c 128,-1,9
 368 734 368 734 329 734 c 0,0,1
224 111 m 1,10,-1
 595 111 l 1,11,-1
 595 0 l 1,12,-1
 86 0 l 1,13,-1
 86 660 l 1,14,-1
 581 660 l 1,15,-1
 581 549 l 1,16,-1
 224 549 l 1,17,-1
 224 385 l 1,18,-1
 505 385 l 1,19,-1
 505 279 l 1,20,-1
 224 279 l 1,21,-1
 224 111 l 1,10,-1
EndSplineSet
Substitution2: "Single Substitution lookup 57 subtable" Edotaccent.swsh.001
Substitution2: "Single Substitution lookup 56 subtable" Edotaccent.swsh
AlternateSubs2: "'swsh' Swash lookup 33 subtable" Edotaccent.swsh Edotaccent.swsh.001
Substitution2: "'c2sc' Capitals to Small Capitals lookup 11 subtable" edotaccent.sc
AlternateSubs2: "'aalt' Access All Alternates lookup 1 subtable" edotaccent.sc Edotaccent.swsh Edotaccent.swsh.001
EndChar

StartChar: edotaccent
Encoding: 279 279 211
Width: 582
GlyphClass: 2
Flags: W
AnchorPoint: "Anchor-0" 300 0 basechar 0
LayerCount: 2
Fore
SplineSet
295 574 m 0,0,1
 257 574 257 574 236 593 c 128,-1,2
 215 612 215 612 215 647 c 128,-1,3
 215 682 215 682 236 701 c 128,-1,4
 257 720 257 720 295 720 c 0,5,6
 334 720 334 720 355 701 c 128,-1,7
 376 682 376 682 376 647 c 128,-1,8
 376 612 376 612 355 593 c 128,-1,9
 334 574 334 574 295 574 c 0,0,1
539 252 m 0,10,11
 539 224 539 224 535 198 c 1,12,-1
 181 198 l 1,13,14
 202 92 202 92 306 92 c 0,15,16
 394 92 394 92 416 154 c 1,17,-1
 528 113 l 1,18,19
 479 -10 479 -10 306 -10 c 0,20,21
 182 -10 182 -10 114 58.5 c 128,-1,22
 46 127 46 127 46 250 c 128,-1,23
 46 373 46 373 112 441.5 c 128,-1,24
 178 510 178 510 298 510 c 0,25,26
 414 510 414 510 476.5 443 c 128,-1,27
 539 376 539 376 539 252 c 0,10,11
297 409 m 0,28,29
 197 409 197 409 180 294 c 1,30,-1
 413 294 l 1,31,32
 405 350 405 350 375 379.5 c 128,-1,33
 345 409 345 409 297 409 c 0,28,29
EndSplineSet
Substitution2: "'smcp' Lowercase to Small Capitals lookup 12 subtable" edotaccent.sc
Substitution2: "'aalt' Access All Alternates lookup 0 subtable" edotaccent.sc
EndChar

StartChar: Eogonek
Encoding: 280 280 212
Width: 633
GlyphClass: 2
Flags: W
AnchorPoint: "Anchor-0" 335 0 basechar 0
LayerCount: 2
Fore
SplineSet
584 -123 m 1,0,-1
 604 -193 l 1,1,2
 571 -215 571 -215 508 -215 c 0,3,4
 449 -215 449 -215 413 -187 c 128,-1,5
 377 -159 377 -159 377 -109 c 0,6,7
 377 -36 377 -36 459 0 c 1,8,-1
 86 0 l 1,9,-1
 86 660 l 1,10,-1
 581 660 l 1,11,-1
 581 549 l 1,12,-1
 224 549 l 1,13,-1
 224 385 l 1,14,-1
 505 385 l 1,15,-1
 505 279 l 1,16,-1
 224 279 l 1,17,-1
 224 111 l 1,18,-1
 595 111 l 1,19,-1
 595 1 l 1,20,-1
 596 0 l 1,21,22
 529 -16 529 -16 502.5 -37 c 128,-1,23
 476 -58 476 -58 476 -87 c 0,24,25
 476 -109 476 -109 491.5 -121.5 c 128,-1,26
 507 -134 507 -134 534 -134 c 0,27,28
 567 -134 567 -134 584 -123 c 1,0,-1
EndSplineSet
Substitution2: "'c2sc' Capitals to Small Capitals lookup 11 subtable" eogonek.sc
Substitution2: "'aalt' Access All Alternates lookup 0 subtable" eogonek.sc
EndChar

StartChar: eogonek
Encoding: 281 281 213
Width: 582
GlyphClass: 2
Flags: W
AnchorPoint: "Anchor-0" 300 0 basechar 0
LayerCount: 2
Fore
SplineSet
539 252 m 0,0,1
 539 224 539 224 535 198 c 1,2,-1
 181 198 l 1,3,4
 202 92 202 92 306 92 c 0,5,6
 394 92 394 92 416 154 c 1,7,-1
 528 113 l 1,8,9
 493 27 493 27 395 1 c 1,10,11
 319 -41 319 -41 319 -84 c 0,12,13
 319 -107 319 -107 334.5 -120.5 c 128,-1,14
 350 -134 350 -134 376 -134 c 0,15,16
 409 -134 409 -134 426 -123 c 1,17,-1
 446 -194 l 1,18,19
 412 -215 412 -215 351 -215 c 0,20,21
 292 -215 292 -215 255.5 -186.5 c 128,-1,22
 219 -158 219 -158 219 -107 c 0,23,24
 219 -49 219 -49 274 -9 c 1,25,26
 165 0 165 0 105.5 67.5 c 128,-1,27
 46 135 46 135 46 250 c 0,28,29
 46 373 46 373 112 441.5 c 128,-1,30
 178 510 178 510 298 510 c 0,31,32
 414 510 414 510 476.5 443 c 128,-1,33
 539 376 539 376 539 252 c 0,0,1
297 409 m 0,34,35
 197 409 197 409 180 294 c 1,36,-1
 413 294 l 1,37,38
 405 350 405 350 375 379.5 c 128,-1,39
 345 409 345 409 297 409 c 0,34,35
EndSplineSet
Substitution2: "'smcp' Lowercase to Small Capitals lookup 12 subtable" eogonek.sc
Substitution2: "'aalt' Access All Alternates lookup 0 subtable" eogonek.sc
EndChar

StartChar: Ecaron
Encoding: 282 282 214
Width: 633
GlyphClass: 2
Flags: W
AnchorPoint: "Anchor-0" 335 0 basechar 0
LayerCount: 2
Fore
SplineSet
396 727 m 1,0,-1
 258 727 l 1,1,-1
 147 894 l 1,2,-1
 253 894 l 1,3,-1
 327 796 l 1,4,-1
 401 894 l 1,5,-1
 507 894 l 1,6,-1
 396 727 l 1,0,-1
224 111 m 1,7,-1
 595 111 l 1,8,-1
 595 0 l 1,9,-1
 86 0 l 1,10,-1
 86 660 l 1,11,-1
 581 660 l 1,12,-1
 581 549 l 1,13,-1
 224 549 l 1,14,-1
 224 385 l 1,15,-1
 505 385 l 1,16,-1
 505 279 l 1,17,-1
 224 279 l 1,18,-1
 224 111 l 1,7,-1
EndSplineSet
Substitution2: "Single Substitution lookup 57 subtable" Ecaron.swsh.001
Substitution2: "Single Substitution lookup 56 subtable" Ecaron.swsh
AlternateSubs2: "'swsh' Swash lookup 33 subtable" Ecaron.swsh Ecaron.swsh.001
Substitution2: "'c2sc' Capitals to Small Capitals lookup 11 subtable" ecaron.sc
AlternateSubs2: "'aalt' Access All Alternates lookup 1 subtable" ecaron.sc Ecaron.swsh Ecaron.swsh.001
EndChar

StartChar: ecaron
Encoding: 283 283 215
Width: 582
GlyphClass: 2
Flags: W
AnchorPoint: "Anchor-0" 300 0 basechar 0
LayerCount: 2
Fore
SplineSet
362 572 m 1,0,-1
 224 572 l 1,1,-1
 114 742 l 1,2,-1
 219 742 l 1,3,-1
 293 647 l 1,4,-1
 367 742 l 1,5,-1
 472 742 l 1,6,-1
 362 572 l 1,0,-1
539 252 m 0,7,8
 539 224 539 224 535 198 c 1,9,-1
 181 198 l 1,10,11
 202 92 202 92 306 92 c 0,12,13
 394 92 394 92 416 154 c 1,14,-1
 528 113 l 1,15,16
 479 -10 479 -10 306 -10 c 0,17,18
 182 -10 182 -10 114 58.5 c 128,-1,19
 46 127 46 127 46 250 c 128,-1,20
 46 373 46 373 112 441.5 c 128,-1,21
 178 510 178 510 298 510 c 0,22,23
 414 510 414 510 476.5 443 c 128,-1,24
 539 376 539 376 539 252 c 0,7,8
297 409 m 0,25,26
 197 409 197 409 180 294 c 1,27,-1
 413 294 l 1,28,29
 405 350 405 350 375 379.5 c 128,-1,30
 345 409 345 409 297 409 c 0,25,26
EndSplineSet
Substitution2: "'smcp' Lowercase to Small Capitals lookup 12 subtable" ecaron.sc
Substitution2: "'aalt' Access All Alternates lookup 0 subtable" ecaron.sc
EndChar

StartChar: Gbreve
Encoding: 286 286 216
Width: 723
GlyphClass: 2
Flags: W
AnchorPoint: "Anchor-0" 394 0 basechar 0
LayerCount: 2
Fore
SplineSet
369 723 m 128,-1,1
 295 723 295 723 251.5 765.5 c 128,-1,2
 208 808 208 808 208 880 c 1,3,-1
 301 880 l 1,4,5
 301 848 301 848 320 826.5 c 128,-1,6
 339 805 339 805 369 805 c 128,-1,7
 399 805 399 805 418 826.5 c 128,-1,8
 437 848 437 848 437 880 c 1,9,-1
 530 880 l 1,10,11
 530 808 530 808 486.5 765.5 c 128,-1,0
 443 723 443 723 369 723 c 128,-1,1
346 349 m 1,12,-1
 658 349 l 1,13,-1
 658 0 l 1,14,-1
 557 0 l 1,15,-1
 554 79 l 1,16,17
 494 -10 494 -10 359 -10 c 0,18,19
 221 -10 221 -10 137 80 c 128,-1,20
 53 170 53 170 53 329 c 0,21,22
 53 487 53 487 139.5 578.5 c 128,-1,23
 226 670 226 670 374 670 c 0,24,25
 481 670 481 670 548.5 631 c 128,-1,26
 616 592 616 592 655 508 c 1,27,-1
 528 453 l 1,28,29
 513 504 513 504 473.5 530.5 c 128,-1,30
 434 557 434 557 378 557 c 0,31,32
 292 557 292 557 244 498 c 128,-1,33
 196 439 196 439 196 330 c 0,34,35
 196 217 196 217 243 159 c 128,-1,36
 290 101 290 101 381 101 c 0,37,38
 451 101 451 101 495 134.5 c 128,-1,39
 539 168 539 168 539 232 c 2,40,-1
 539 247 l 1,41,-1
 346 247 l 1,42,-1
 346 349 l 1,12,-1
EndSplineSet
Substitution2: "'ss04' Style Set 4 lookup 50 subtable" Gbreve.ss04
Substitution2: "'salt' Stylistic Alternatives lookup 42 subtable" Gbreve.ss04
Substitution2: "'c2sc' Capitals to Small Capitals lookup 11 subtable" gbreve.sc
AlternateSubs2: "'aalt' Access All Alternates lookup 1 subtable" gbreve.sc Gbreve.ss04
EndChar

StartChar: gbreve
Encoding: 287 287 217
Width: 629
GlyphClass: 2
Flags: W
LayerCount: 2
Fore
SplineSet
301 563 m 128,-1,1
 227 563 227 563 183.5 605.5 c 128,-1,2
 140 648 140 648 140 720 c 1,3,-1
 233 720 l 1,4,5
 233 688 233 688 252 666.5 c 128,-1,6
 271 645 271 645 301 645 c 128,-1,7
 331 645 331 645 350 666.5 c 128,-1,8
 369 688 369 688 369 720 c 1,9,-1
 462 720 l 1,10,11
 462 648 462 648 418.5 605.5 c 128,-1,0
 375 563 375 563 301 563 c 128,-1,1
436 500 m 1,12,-1
 556 500 l 1,13,-1
 556 40 l 2,14,15
 556 -215 556 -215 286 -215 c 0,16,17
 87 -215 87 -215 63 -78 c 1,18,-1
 194 -38 l 1,19,20
 204 -121 204 -121 301 -121 c 0,21,22
 354 -121 354 -121 386.5 -86.5 c 128,-1,23
 419 -52 419 -52 419 7 c 2,24,-1
 419 86 l 1,25,26
 367 9 367 9 262 9 c 0,27,28
 162 9 162 9 105 75 c 128,-1,29
 48 141 48 141 48 258 c 0,30,31
 48 377 48 377 105 443.5 c 128,-1,32
 162 510 162 510 262 510 c 0,33,34
 322 510 322 510 365 483 c 128,-1,35
 408 456 408 456 429 409 c 1,36,-1
 436 500 l 1,12,-1
303 113 m 0,37,38
 356 113 356 113 387.5 150 c 128,-1,39
 419 187 419 187 419 254 c 2,40,-1
 419 264 l 2,41,42
 419 330 419 330 388 367.5 c 128,-1,43
 357 405 357 405 303 405 c 0,44,45
 248 405 248 405 217 367.5 c 128,-1,46
 186 330 186 330 186 259 c 128,-1,47
 186 188 186 188 217 150.5 c 128,-1,48
 248 113 248 113 303 113 c 0,37,38
EndSplineSet
Substitution2: "'ss01' Style Set 1 lookup 47 subtable" gbreve.ss01
Substitution2: "'salt' Stylistic Alternatives lookup 42 subtable" gbreve.ss01
Substitution2: "'smcp' Lowercase to Small Capitals lookup 12 subtable" gbreve.sc
AlternateSubs2: "'aalt' Access All Alternates lookup 1 subtable" gbreve.sc gbreve.ss01
EndChar

StartChar: uni0122
Encoding: 290 290 218
Width: 723
GlyphClass: 2
Flags: W
AnchorPoint: "Anchor-0" 394 0 basechar 0
LayerCount: 2
Fore
SplineSet
346 349 m 1,0,-1
 658 349 l 1,1,-1
 658 0 l 1,2,-1
 557 0 l 1,3,-1
 554 79 l 1,4,5
 494 -10 494 -10 359 -10 c 0,6,7
 221 -10 221 -10 137 80 c 128,-1,8
 53 170 53 170 53 329 c 0,9,10
 53 487 53 487 139.5 578.5 c 128,-1,11
 226 670 226 670 374 670 c 0,12,13
 481 670 481 670 548.5 631 c 128,-1,14
 616 592 616 592 655 508 c 1,15,-1
 528 453 l 1,16,17
 513 504 513 504 473.5 530.5 c 128,-1,18
 434 557 434 557 378 557 c 0,19,20
 292 557 292 557 244 498 c 128,-1,21
 196 439 196 439 196 330 c 0,22,23
 196 217 196 217 243 159 c 128,-1,24
 290 101 290 101 381 101 c 0,25,26
 451 101 451 101 495 134.5 c 128,-1,27
 539 168 539 168 539 232 c 2,28,-1
 539 247 l 1,29,-1
 346 247 l 1,30,-1
 346 349 l 1,0,-1
293 -239 m 1,31,-1
 329 -66 l 1,32,-1
 455 -66 l 1,33,-1
 386 -239 l 1,34,-1
 293 -239 l 1,31,-1
EndSplineSet
Substitution2: "'ss04' Style Set 4 lookup 50 subtable" Gcommaaccent.ss04
Substitution2: "'salt' Stylistic Alternatives lookup 42 subtable" Gcommaaccent.ss04
Substitution2: "'c2sc' Capitals to Small Capitals lookup 11 subtable" Gcommaaccent.sc
AlternateSubs2: "'aalt' Access All Alternates lookup 1 subtable" Gcommaaccent.sc Gcommaaccent.ss04
EndChar

